M48
; DRILL file {KiCad 9.0.7} date 2026-04-13T12:53:02+0200
; FORMAT={-:-/ absolute / inch / decimal}
; #@! TF.CreationDate,2026-04-13T12:53:02+02:00
; #@! TF.GenerationSoftware,Kicad,Pcbnew,9.0.7
; #@! TF.FileFunction,Plated,1,2,PTH
FMAT,2
INCH
; #@! TA.AperFunction,Plated,PTH,ViaDrill
T1C0.0118
; #@! TA.AperFunction,Plated,PTH,ComponentDrill
T2C0.0315
; #@! TA.AperFunction,Plated,PTH,ComponentDrill
T3C0.0394
%
G90
G05
T1
X5.052Y-3.1224
X5.585Y-3.2437
X5.7797Y-3.2439
X6.1315Y-3.1142
X6.3205Y-2.9185
X6.3205Y-2.9516
X6.3205Y-2.9846
X6.3205Y-3.0181
X6.3205Y-3.0512
X6.3205Y-3.0846
X6.3205Y-3.1177
X6.3205Y-3.1512
X6.3236Y-3.5413
X6.3508Y-3.6311
X6.4933Y-3.2256
X6.5476Y-3.5413
X6.5476Y-3.5925
X6.5476Y-3.6724
X6.6004Y-3.3209
X6.6437Y-3.3209
X6.687Y-3.3209
X6.7303Y-3.3209
X6.7736Y-3.3209
X6.8169Y-3.3209
X6.8602Y-3.3209
X6.9035Y-3.3209
X7.3531Y-3.5941
T2
X4.5516Y-2.7807
X4.5516Y-3.3807
X4.6516Y-2.7807
X4.6516Y-3.3807
X4.7516Y-2.7807
X4.7516Y-3.3807
X4.8516Y-2.7807
X4.8516Y-3.3807
X4.9516Y-2.7807
X4.9516Y-3.3807
X5.0516Y-2.7807
X5.0516Y-3.3807
X5.1516Y-2.7807
X5.1516Y-3.3807
X5.2516Y-2.7807
X5.2516Y-3.3807
X5.3516Y-2.7807
X5.3516Y-3.3807
X5.4516Y-2.7807
X5.4516Y-3.3807
X5.5516Y-2.7807
X5.5516Y-3.3807
X5.6516Y-2.7807
X5.6516Y-3.3807
X5.7516Y-2.7807
X5.7516Y-3.3807
X5.8516Y-2.7807
X5.8516Y-3.3807
X6.0764Y-3.1843
X6.0764Y-3.3811
X6.3999Y-3.4382
X6.4983Y-3.4382
X7.0291Y-3.0425
X7.0291Y-3.3425
X7.1291Y-3.0425
X7.1291Y-3.3425
X7.2291Y-3.0425
X7.2291Y-3.3425
X7.3291Y-3.0425
X7.3291Y-3.3425
X7.4291Y-3.0425
X7.4291Y-3.3425
X7.5291Y-3.0425
X7.5291Y-3.3425
X7.6291Y-3.0425
X7.6291Y-3.3425
X7.7291Y-3.0425
X7.7291Y-3.3425
X7.9508Y-3.1469
X7.9508Y-3.3437
T3
X4.3004Y-3.7598
X4.4004Y-3.7598
X4.5004Y-3.7598
X4.6004Y-3.7598
X4.7004Y-3.7598
X4.8004Y-3.7598
X4.9004Y-3.7598
X5.0004Y-3.7598
X5.1004Y-3.7598
X5.2004Y-3.7598
X5.3004Y-3.7598
X5.4004Y-3.7598
X5.5004Y-3.7598
X5.6004Y-3.7598
X5.7004Y-3.7598
X5.8004Y-3.7598
X5.9004Y-3.7598
X6.0004Y-3.7598
X6.1004Y-3.7598
X6.2004Y-3.7598
X6.3004Y-3.7598
X6.4004Y-3.7598
X6.4272Y-2.7803
X6.5004Y-3.7598
X6.5272Y-2.7803
X6.6004Y-3.7598
X6.6272Y-2.7803
X6.7004Y-3.7598
X6.8004Y-3.7598
X6.9004Y-3.7598
X7.0004Y-3.7598
X7.1004Y-3.7598
X7.2004Y-3.7598
X7.3004Y-3.7598
X7.4004Y-3.7598
X7.5004Y-3.7598
X7.6004Y-3.7598
X7.7004Y-3.7598
X7.8004Y-3.7598
X7.9004Y-3.7598
X8.0004Y-3.7598
X8.1004Y-3.7598
M30
