%TF.GenerationSoftware,KiCad,Pcbnew,9.0.7*%
%TF.CreationDate,2026-04-13T12:52:59+02:00*%
%TF.ProjectId,RC6502_EPROM_Card,52433635-3032-45f4-9550-524f4d5f4361,version 1.0*%
%TF.SameCoordinates,Original*%
%TF.FileFunction,Legend,Top*%
%TF.FilePolarity,Positive*%
%FSLAX46Y46*%
G04 Gerber Fmt 4.6, Leading zero omitted, Abs format (unit mm)*
G04 Created by KiCad (PCBNEW 9.0.7) date 2026-04-13 12:52:59*
%MOMM*%
%LPD*%
G01*
G04 APERTURE LIST*
%ADD10C,0.160000*%
%ADD11C,0.200000*%
%ADD12C,0.240000*%
%ADD13C,0.150000*%
%ADD14C,0.120000*%
G04 APERTURE END LIST*
D10*
X177736415Y-91415739D02*
X177736415Y-91891929D01*
X177450700Y-91320501D02*
X178450700Y-91653834D01*
X178450700Y-91653834D02*
X177450700Y-91987167D01*
X178117367Y-92749072D02*
X177450700Y-92749072D01*
X178498320Y-92510977D02*
X177784034Y-92272882D01*
X177784034Y-92272882D02*
X177784034Y-92891929D01*
X187736415Y-91415739D02*
X187736415Y-91891929D01*
X187450700Y-91320501D02*
X188450700Y-91653834D01*
X188450700Y-91653834D02*
X187450700Y-91987167D01*
X188022129Y-92463358D02*
X188069748Y-92368120D01*
X188069748Y-92368120D02*
X188117367Y-92320501D01*
X188117367Y-92320501D02*
X188212605Y-92272882D01*
X188212605Y-92272882D02*
X188260224Y-92272882D01*
X188260224Y-92272882D02*
X188355462Y-92320501D01*
X188355462Y-92320501D02*
X188403081Y-92368120D01*
X188403081Y-92368120D02*
X188450700Y-92463358D01*
X188450700Y-92463358D02*
X188450700Y-92653834D01*
X188450700Y-92653834D02*
X188403081Y-92749072D01*
X188403081Y-92749072D02*
X188355462Y-92796691D01*
X188355462Y-92796691D02*
X188260224Y-92844310D01*
X188260224Y-92844310D02*
X188212605Y-92844310D01*
X188212605Y-92844310D02*
X188117367Y-92796691D01*
X188117367Y-92796691D02*
X188069748Y-92749072D01*
X188069748Y-92749072D02*
X188022129Y-92653834D01*
X188022129Y-92653834D02*
X188022129Y-92463358D01*
X188022129Y-92463358D02*
X187974510Y-92368120D01*
X187974510Y-92368120D02*
X187926891Y-92320501D01*
X187926891Y-92320501D02*
X187831653Y-92272882D01*
X187831653Y-92272882D02*
X187641177Y-92272882D01*
X187641177Y-92272882D02*
X187545939Y-92320501D01*
X187545939Y-92320501D02*
X187498320Y-92368120D01*
X187498320Y-92368120D02*
X187450700Y-92463358D01*
X187450700Y-92463358D02*
X187450700Y-92653834D01*
X187450700Y-92653834D02*
X187498320Y-92749072D01*
X187498320Y-92749072D02*
X187545939Y-92796691D01*
X187545939Y-92796691D02*
X187641177Y-92844310D01*
X187641177Y-92844310D02*
X187831653Y-92844310D01*
X187831653Y-92844310D02*
X187926891Y-92796691D01*
X187926891Y-92796691D02*
X187974510Y-92749072D01*
X187974510Y-92749072D02*
X188022129Y-92653834D01*
D11*
X122083006Y-67782742D02*
X121683006Y-67211314D01*
X121397292Y-67782742D02*
X121397292Y-66582742D01*
X121397292Y-66582742D02*
X121854435Y-66582742D01*
X121854435Y-66582742D02*
X121968720Y-66639885D01*
X121968720Y-66639885D02*
X122025863Y-66697028D01*
X122025863Y-66697028D02*
X122083006Y-66811314D01*
X122083006Y-66811314D02*
X122083006Y-66982742D01*
X122083006Y-66982742D02*
X122025863Y-67097028D01*
X122025863Y-67097028D02*
X121968720Y-67154171D01*
X121968720Y-67154171D02*
X121854435Y-67211314D01*
X121854435Y-67211314D02*
X121397292Y-67211314D01*
X123283006Y-67668457D02*
X123225863Y-67725600D01*
X123225863Y-67725600D02*
X123054435Y-67782742D01*
X123054435Y-67782742D02*
X122940149Y-67782742D01*
X122940149Y-67782742D02*
X122768720Y-67725600D01*
X122768720Y-67725600D02*
X122654435Y-67611314D01*
X122654435Y-67611314D02*
X122597292Y-67497028D01*
X122597292Y-67497028D02*
X122540149Y-67268457D01*
X122540149Y-67268457D02*
X122540149Y-67097028D01*
X122540149Y-67097028D02*
X122597292Y-66868457D01*
X122597292Y-66868457D02*
X122654435Y-66754171D01*
X122654435Y-66754171D02*
X122768720Y-66639885D01*
X122768720Y-66639885D02*
X122940149Y-66582742D01*
X122940149Y-66582742D02*
X123054435Y-66582742D01*
X123054435Y-66582742D02*
X123225863Y-66639885D01*
X123225863Y-66639885D02*
X123283006Y-66697028D01*
X124311578Y-66582742D02*
X124083006Y-66582742D01*
X124083006Y-66582742D02*
X123968720Y-66639885D01*
X123968720Y-66639885D02*
X123911578Y-66697028D01*
X123911578Y-66697028D02*
X123797292Y-66868457D01*
X123797292Y-66868457D02*
X123740149Y-67097028D01*
X123740149Y-67097028D02*
X123740149Y-67554171D01*
X123740149Y-67554171D02*
X123797292Y-67668457D01*
X123797292Y-67668457D02*
X123854435Y-67725600D01*
X123854435Y-67725600D02*
X123968720Y-67782742D01*
X123968720Y-67782742D02*
X124197292Y-67782742D01*
X124197292Y-67782742D02*
X124311578Y-67725600D01*
X124311578Y-67725600D02*
X124368720Y-67668457D01*
X124368720Y-67668457D02*
X124425863Y-67554171D01*
X124425863Y-67554171D02*
X124425863Y-67268457D01*
X124425863Y-67268457D02*
X124368720Y-67154171D01*
X124368720Y-67154171D02*
X124311578Y-67097028D01*
X124311578Y-67097028D02*
X124197292Y-67039885D01*
X124197292Y-67039885D02*
X123968720Y-67039885D01*
X123968720Y-67039885D02*
X123854435Y-67097028D01*
X123854435Y-67097028D02*
X123797292Y-67154171D01*
X123797292Y-67154171D02*
X123740149Y-67268457D01*
X125511577Y-66582742D02*
X124940149Y-66582742D01*
X124940149Y-66582742D02*
X124883006Y-67154171D01*
X124883006Y-67154171D02*
X124940149Y-67097028D01*
X124940149Y-67097028D02*
X125054435Y-67039885D01*
X125054435Y-67039885D02*
X125340149Y-67039885D01*
X125340149Y-67039885D02*
X125454435Y-67097028D01*
X125454435Y-67097028D02*
X125511577Y-67154171D01*
X125511577Y-67154171D02*
X125568720Y-67268457D01*
X125568720Y-67268457D02*
X125568720Y-67554171D01*
X125568720Y-67554171D02*
X125511577Y-67668457D01*
X125511577Y-67668457D02*
X125454435Y-67725600D01*
X125454435Y-67725600D02*
X125340149Y-67782742D01*
X125340149Y-67782742D02*
X125054435Y-67782742D01*
X125054435Y-67782742D02*
X124940149Y-67725600D01*
X124940149Y-67725600D02*
X124883006Y-67668457D01*
X126311577Y-66582742D02*
X126425863Y-66582742D01*
X126425863Y-66582742D02*
X126540149Y-66639885D01*
X126540149Y-66639885D02*
X126597292Y-66697028D01*
X126597292Y-66697028D02*
X126654434Y-66811314D01*
X126654434Y-66811314D02*
X126711577Y-67039885D01*
X126711577Y-67039885D02*
X126711577Y-67325600D01*
X126711577Y-67325600D02*
X126654434Y-67554171D01*
X126654434Y-67554171D02*
X126597292Y-67668457D01*
X126597292Y-67668457D02*
X126540149Y-67725600D01*
X126540149Y-67725600D02*
X126425863Y-67782742D01*
X126425863Y-67782742D02*
X126311577Y-67782742D01*
X126311577Y-67782742D02*
X126197292Y-67725600D01*
X126197292Y-67725600D02*
X126140149Y-67668457D01*
X126140149Y-67668457D02*
X126083006Y-67554171D01*
X126083006Y-67554171D02*
X126025863Y-67325600D01*
X126025863Y-67325600D02*
X126025863Y-67039885D01*
X126025863Y-67039885D02*
X126083006Y-66811314D01*
X126083006Y-66811314D02*
X126140149Y-66697028D01*
X126140149Y-66697028D02*
X126197292Y-66639885D01*
X126197292Y-66639885D02*
X126311577Y-66582742D01*
X127168720Y-66697028D02*
X127225863Y-66639885D01*
X127225863Y-66639885D02*
X127340149Y-66582742D01*
X127340149Y-66582742D02*
X127625863Y-66582742D01*
X127625863Y-66582742D02*
X127740149Y-66639885D01*
X127740149Y-66639885D02*
X127797291Y-66697028D01*
X127797291Y-66697028D02*
X127854434Y-66811314D01*
X127854434Y-66811314D02*
X127854434Y-66925600D01*
X127854434Y-66925600D02*
X127797291Y-67097028D01*
X127797291Y-67097028D02*
X127111577Y-67782742D01*
X127111577Y-67782742D02*
X127854434Y-67782742D01*
X129283006Y-67325600D02*
X130197292Y-67325600D01*
X131683006Y-67154171D02*
X132083006Y-67154171D01*
X132254434Y-67782742D02*
X131683006Y-67782742D01*
X131683006Y-67782742D02*
X131683006Y-66582742D01*
X131683006Y-66582742D02*
X132254434Y-66582742D01*
X132768720Y-67782742D02*
X132768720Y-66582742D01*
X132768720Y-66582742D02*
X133225863Y-66582742D01*
X133225863Y-66582742D02*
X133340148Y-66639885D01*
X133340148Y-66639885D02*
X133397291Y-66697028D01*
X133397291Y-66697028D02*
X133454434Y-66811314D01*
X133454434Y-66811314D02*
X133454434Y-66982742D01*
X133454434Y-66982742D02*
X133397291Y-67097028D01*
X133397291Y-67097028D02*
X133340148Y-67154171D01*
X133340148Y-67154171D02*
X133225863Y-67211314D01*
X133225863Y-67211314D02*
X132768720Y-67211314D01*
X134654434Y-67782742D02*
X134254434Y-67211314D01*
X133968720Y-67782742D02*
X133968720Y-66582742D01*
X133968720Y-66582742D02*
X134425863Y-66582742D01*
X134425863Y-66582742D02*
X134540148Y-66639885D01*
X134540148Y-66639885D02*
X134597291Y-66697028D01*
X134597291Y-66697028D02*
X134654434Y-66811314D01*
X134654434Y-66811314D02*
X134654434Y-66982742D01*
X134654434Y-66982742D02*
X134597291Y-67097028D01*
X134597291Y-67097028D02*
X134540148Y-67154171D01*
X134540148Y-67154171D02*
X134425863Y-67211314D01*
X134425863Y-67211314D02*
X133968720Y-67211314D01*
X135397291Y-66582742D02*
X135625863Y-66582742D01*
X135625863Y-66582742D02*
X135740148Y-66639885D01*
X135740148Y-66639885D02*
X135854434Y-66754171D01*
X135854434Y-66754171D02*
X135911577Y-66982742D01*
X135911577Y-66982742D02*
X135911577Y-67382742D01*
X135911577Y-67382742D02*
X135854434Y-67611314D01*
X135854434Y-67611314D02*
X135740148Y-67725600D01*
X135740148Y-67725600D02*
X135625863Y-67782742D01*
X135625863Y-67782742D02*
X135397291Y-67782742D01*
X135397291Y-67782742D02*
X135283006Y-67725600D01*
X135283006Y-67725600D02*
X135168720Y-67611314D01*
X135168720Y-67611314D02*
X135111577Y-67382742D01*
X135111577Y-67382742D02*
X135111577Y-66982742D01*
X135111577Y-66982742D02*
X135168720Y-66754171D01*
X135168720Y-66754171D02*
X135283006Y-66639885D01*
X135283006Y-66639885D02*
X135397291Y-66582742D01*
X136425863Y-67782742D02*
X136425863Y-66582742D01*
X136425863Y-66582742D02*
X136825863Y-67439885D01*
X136825863Y-67439885D02*
X137225863Y-66582742D01*
X137225863Y-66582742D02*
X137225863Y-67782742D01*
X139397292Y-67668457D02*
X139340149Y-67725600D01*
X139340149Y-67725600D02*
X139168721Y-67782742D01*
X139168721Y-67782742D02*
X139054435Y-67782742D01*
X139054435Y-67782742D02*
X138883006Y-67725600D01*
X138883006Y-67725600D02*
X138768721Y-67611314D01*
X138768721Y-67611314D02*
X138711578Y-67497028D01*
X138711578Y-67497028D02*
X138654435Y-67268457D01*
X138654435Y-67268457D02*
X138654435Y-67097028D01*
X138654435Y-67097028D02*
X138711578Y-66868457D01*
X138711578Y-66868457D02*
X138768721Y-66754171D01*
X138768721Y-66754171D02*
X138883006Y-66639885D01*
X138883006Y-66639885D02*
X139054435Y-66582742D01*
X139054435Y-66582742D02*
X139168721Y-66582742D01*
X139168721Y-66582742D02*
X139340149Y-66639885D01*
X139340149Y-66639885D02*
X139397292Y-66697028D01*
X139854435Y-67439885D02*
X140425864Y-67439885D01*
X139740149Y-67782742D02*
X140140149Y-66582742D01*
X140140149Y-66582742D02*
X140540149Y-67782742D01*
X141625863Y-67782742D02*
X141225863Y-67211314D01*
X140940149Y-67782742D02*
X140940149Y-66582742D01*
X140940149Y-66582742D02*
X141397292Y-66582742D01*
X141397292Y-66582742D02*
X141511577Y-66639885D01*
X141511577Y-66639885D02*
X141568720Y-66697028D01*
X141568720Y-66697028D02*
X141625863Y-66811314D01*
X141625863Y-66811314D02*
X141625863Y-66982742D01*
X141625863Y-66982742D02*
X141568720Y-67097028D01*
X141568720Y-67097028D02*
X141511577Y-67154171D01*
X141511577Y-67154171D02*
X141397292Y-67211314D01*
X141397292Y-67211314D02*
X140940149Y-67211314D01*
X142140149Y-67782742D02*
X142140149Y-66582742D01*
X142140149Y-66582742D02*
X142425863Y-66582742D01*
X142425863Y-66582742D02*
X142597292Y-66639885D01*
X142597292Y-66639885D02*
X142711577Y-66754171D01*
X142711577Y-66754171D02*
X142768720Y-66868457D01*
X142768720Y-66868457D02*
X142825863Y-67097028D01*
X142825863Y-67097028D02*
X142825863Y-67268457D01*
X142825863Y-67268457D02*
X142768720Y-67497028D01*
X142768720Y-67497028D02*
X142711577Y-67611314D01*
X142711577Y-67611314D02*
X142597292Y-67725600D01*
X142597292Y-67725600D02*
X142425863Y-67782742D01*
X142425863Y-67782742D02*
X142140149Y-67782742D01*
D10*
X159650700Y-90663358D02*
X160650700Y-90663358D01*
X160650700Y-90663358D02*
X160650700Y-91044310D01*
X160650700Y-91044310D02*
X160603081Y-91139548D01*
X160603081Y-91139548D02*
X160555462Y-91187167D01*
X160555462Y-91187167D02*
X160460224Y-91234786D01*
X160460224Y-91234786D02*
X160317367Y-91234786D01*
X160317367Y-91234786D02*
X160222129Y-91187167D01*
X160222129Y-91187167D02*
X160174510Y-91139548D01*
X160174510Y-91139548D02*
X160126891Y-91044310D01*
X160126891Y-91044310D02*
X160126891Y-90663358D01*
X159650700Y-91663358D02*
X160650700Y-91663358D01*
X160174510Y-91663358D02*
X160174510Y-92234786D01*
X159650700Y-92234786D02*
X160650700Y-92234786D01*
X159650700Y-92710977D02*
X160650700Y-92710977D01*
X160555462Y-93139548D02*
X160603081Y-93187167D01*
X160603081Y-93187167D02*
X160650700Y-93282405D01*
X160650700Y-93282405D02*
X160650700Y-93520500D01*
X160650700Y-93520500D02*
X160603081Y-93615738D01*
X160603081Y-93615738D02*
X160555462Y-93663357D01*
X160555462Y-93663357D02*
X160460224Y-93710976D01*
X160460224Y-93710976D02*
X160364986Y-93710976D01*
X160364986Y-93710976D02*
X160222129Y-93663357D01*
X160222129Y-93663357D02*
X159650700Y-93091929D01*
X159650700Y-93091929D02*
X159650700Y-93710976D01*
X149550700Y-90863358D02*
X150550700Y-90863358D01*
X150550700Y-90863358D02*
X150550700Y-91244310D01*
X150550700Y-91244310D02*
X150503081Y-91339548D01*
X150503081Y-91339548D02*
X150455462Y-91387167D01*
X150455462Y-91387167D02*
X150360224Y-91434786D01*
X150360224Y-91434786D02*
X150217367Y-91434786D01*
X150217367Y-91434786D02*
X150122129Y-91387167D01*
X150122129Y-91387167D02*
X150074510Y-91339548D01*
X150074510Y-91339548D02*
X150026891Y-91244310D01*
X150026891Y-91244310D02*
X150026891Y-90863358D01*
X149550700Y-91863358D02*
X150550700Y-91863358D01*
X150074510Y-91863358D02*
X150074510Y-92434786D01*
X149550700Y-92434786D02*
X150550700Y-92434786D01*
X149550700Y-92910977D02*
X150550700Y-92910977D01*
X149550700Y-93910976D02*
X149550700Y-93339548D01*
X149550700Y-93625262D02*
X150550700Y-93625262D01*
X150550700Y-93625262D02*
X150407843Y-93530024D01*
X150407843Y-93530024D02*
X150312605Y-93434786D01*
X150312605Y-93434786D02*
X150264986Y-93339548D01*
D12*
X172032179Y-69980662D02*
X172146465Y-69980662D01*
X172146465Y-69980662D02*
X172260751Y-70037805D01*
X172260751Y-70037805D02*
X172317894Y-70094948D01*
X172317894Y-70094948D02*
X172375036Y-70209234D01*
X172375036Y-70209234D02*
X172432179Y-70437805D01*
X172432179Y-70437805D02*
X172432179Y-70723520D01*
X172432179Y-70723520D02*
X172375036Y-70952091D01*
X172375036Y-70952091D02*
X172317894Y-71066377D01*
X172317894Y-71066377D02*
X172260751Y-71123520D01*
X172260751Y-71123520D02*
X172146465Y-71180662D01*
X172146465Y-71180662D02*
X172032179Y-71180662D01*
X172032179Y-71180662D02*
X171917894Y-71123520D01*
X171917894Y-71123520D02*
X171860751Y-71066377D01*
X171860751Y-71066377D02*
X171803608Y-70952091D01*
X171803608Y-70952091D02*
X171746465Y-70723520D01*
X171746465Y-70723520D02*
X171746465Y-70437805D01*
X171746465Y-70437805D02*
X171803608Y-70209234D01*
X171803608Y-70209234D02*
X171860751Y-70094948D01*
X171860751Y-70094948D02*
X171917894Y-70037805D01*
X171917894Y-70037805D02*
X172032179Y-69980662D01*
D10*
X192736415Y-91415739D02*
X192736415Y-91891929D01*
X192450700Y-91320501D02*
X193450700Y-91653834D01*
X193450700Y-91653834D02*
X192450700Y-91987167D01*
X192450700Y-92844310D02*
X192450700Y-92272882D01*
X192450700Y-92558596D02*
X193450700Y-92558596D01*
X193450700Y-92558596D02*
X193307843Y-92463358D01*
X193307843Y-92463358D02*
X193212605Y-92368120D01*
X193212605Y-92368120D02*
X193164986Y-92272882D01*
X193450700Y-93463358D02*
X193450700Y-93558596D01*
X193450700Y-93558596D02*
X193403081Y-93653834D01*
X193403081Y-93653834D02*
X193355462Y-93701453D01*
X193355462Y-93701453D02*
X193260224Y-93749072D01*
X193260224Y-93749072D02*
X193069748Y-93796691D01*
X193069748Y-93796691D02*
X192831653Y-93796691D01*
X192831653Y-93796691D02*
X192641177Y-93749072D01*
X192641177Y-93749072D02*
X192545939Y-93701453D01*
X192545939Y-93701453D02*
X192498320Y-93653834D01*
X192498320Y-93653834D02*
X192450700Y-93558596D01*
X192450700Y-93558596D02*
X192450700Y-93463358D01*
X192450700Y-93463358D02*
X192498320Y-93368120D01*
X192498320Y-93368120D02*
X192545939Y-93320501D01*
X192545939Y-93320501D02*
X192641177Y-93272882D01*
X192641177Y-93272882D02*
X192831653Y-93225263D01*
X192831653Y-93225263D02*
X193069748Y-93225263D01*
X193069748Y-93225263D02*
X193260224Y-93272882D01*
X193260224Y-93272882D02*
X193355462Y-93320501D01*
X193355462Y-93320501D02*
X193403081Y-93368120D01*
X193403081Y-93368120D02*
X193450700Y-93463358D01*
D11*
X160817292Y-67154171D02*
X160988720Y-67211314D01*
X160988720Y-67211314D02*
X161045863Y-67268457D01*
X161045863Y-67268457D02*
X161103006Y-67382742D01*
X161103006Y-67382742D02*
X161103006Y-67554171D01*
X161103006Y-67554171D02*
X161045863Y-67668457D01*
X161045863Y-67668457D02*
X160988720Y-67725600D01*
X160988720Y-67725600D02*
X160874435Y-67782742D01*
X160874435Y-67782742D02*
X160417292Y-67782742D01*
X160417292Y-67782742D02*
X160417292Y-66582742D01*
X160417292Y-66582742D02*
X160817292Y-66582742D01*
X160817292Y-66582742D02*
X160931578Y-66639885D01*
X160931578Y-66639885D02*
X160988720Y-66697028D01*
X160988720Y-66697028D02*
X161045863Y-66811314D01*
X161045863Y-66811314D02*
X161045863Y-66925600D01*
X161045863Y-66925600D02*
X160988720Y-67039885D01*
X160988720Y-67039885D02*
X160931578Y-67097028D01*
X160931578Y-67097028D02*
X160817292Y-67154171D01*
X160817292Y-67154171D02*
X160417292Y-67154171D01*
X162131578Y-67782742D02*
X162131578Y-67154171D01*
X162131578Y-67154171D02*
X162074435Y-67039885D01*
X162074435Y-67039885D02*
X161960149Y-66982742D01*
X161960149Y-66982742D02*
X161731578Y-66982742D01*
X161731578Y-66982742D02*
X161617292Y-67039885D01*
X162131578Y-67725600D02*
X162017292Y-67782742D01*
X162017292Y-67782742D02*
X161731578Y-67782742D01*
X161731578Y-67782742D02*
X161617292Y-67725600D01*
X161617292Y-67725600D02*
X161560149Y-67611314D01*
X161560149Y-67611314D02*
X161560149Y-67497028D01*
X161560149Y-67497028D02*
X161617292Y-67382742D01*
X161617292Y-67382742D02*
X161731578Y-67325600D01*
X161731578Y-67325600D02*
X162017292Y-67325600D01*
X162017292Y-67325600D02*
X162131578Y-67268457D01*
X162703006Y-66982742D02*
X162703006Y-67782742D01*
X162703006Y-67097028D02*
X162760149Y-67039885D01*
X162760149Y-67039885D02*
X162874434Y-66982742D01*
X162874434Y-66982742D02*
X163045863Y-66982742D01*
X163045863Y-66982742D02*
X163160149Y-67039885D01*
X163160149Y-67039885D02*
X163217292Y-67154171D01*
X163217292Y-67154171D02*
X163217292Y-67782742D01*
X163788720Y-67782742D02*
X163788720Y-66582742D01*
X163903006Y-67325600D02*
X164245863Y-67782742D01*
X164245863Y-66982742D02*
X163788720Y-67439885D01*
X165617292Y-67725600D02*
X165788721Y-67782742D01*
X165788721Y-67782742D02*
X166074435Y-67782742D01*
X166074435Y-67782742D02*
X166188721Y-67725600D01*
X166188721Y-67725600D02*
X166245863Y-67668457D01*
X166245863Y-67668457D02*
X166303006Y-67554171D01*
X166303006Y-67554171D02*
X166303006Y-67439885D01*
X166303006Y-67439885D02*
X166245863Y-67325600D01*
X166245863Y-67325600D02*
X166188721Y-67268457D01*
X166188721Y-67268457D02*
X166074435Y-67211314D01*
X166074435Y-67211314D02*
X165845863Y-67154171D01*
X165845863Y-67154171D02*
X165731578Y-67097028D01*
X165731578Y-67097028D02*
X165674435Y-67039885D01*
X165674435Y-67039885D02*
X165617292Y-66925600D01*
X165617292Y-66925600D02*
X165617292Y-66811314D01*
X165617292Y-66811314D02*
X165674435Y-66697028D01*
X165674435Y-66697028D02*
X165731578Y-66639885D01*
X165731578Y-66639885D02*
X165845863Y-66582742D01*
X165845863Y-66582742D02*
X166131578Y-66582742D01*
X166131578Y-66582742D02*
X166303006Y-66639885D01*
X167274435Y-67725600D02*
X167160149Y-67782742D01*
X167160149Y-67782742D02*
X166931578Y-67782742D01*
X166931578Y-67782742D02*
X166817292Y-67725600D01*
X166817292Y-67725600D02*
X166760149Y-67611314D01*
X166760149Y-67611314D02*
X166760149Y-67154171D01*
X166760149Y-67154171D02*
X166817292Y-67039885D01*
X166817292Y-67039885D02*
X166931578Y-66982742D01*
X166931578Y-66982742D02*
X167160149Y-66982742D01*
X167160149Y-66982742D02*
X167274435Y-67039885D01*
X167274435Y-67039885D02*
X167331578Y-67154171D01*
X167331578Y-67154171D02*
X167331578Y-67268457D01*
X167331578Y-67268457D02*
X166760149Y-67382742D01*
X168017291Y-67782742D02*
X167903006Y-67725600D01*
X167903006Y-67725600D02*
X167845863Y-67611314D01*
X167845863Y-67611314D02*
X167845863Y-66582742D01*
X168931577Y-67725600D02*
X168817291Y-67782742D01*
X168817291Y-67782742D02*
X168588720Y-67782742D01*
X168588720Y-67782742D02*
X168474434Y-67725600D01*
X168474434Y-67725600D02*
X168417291Y-67611314D01*
X168417291Y-67611314D02*
X168417291Y-67154171D01*
X168417291Y-67154171D02*
X168474434Y-67039885D01*
X168474434Y-67039885D02*
X168588720Y-66982742D01*
X168588720Y-66982742D02*
X168817291Y-66982742D01*
X168817291Y-66982742D02*
X168931577Y-67039885D01*
X168931577Y-67039885D02*
X168988720Y-67154171D01*
X168988720Y-67154171D02*
X168988720Y-67268457D01*
X168988720Y-67268457D02*
X168417291Y-67382742D01*
X170017291Y-67725600D02*
X169903005Y-67782742D01*
X169903005Y-67782742D02*
X169674433Y-67782742D01*
X169674433Y-67782742D02*
X169560148Y-67725600D01*
X169560148Y-67725600D02*
X169503005Y-67668457D01*
X169503005Y-67668457D02*
X169445862Y-67554171D01*
X169445862Y-67554171D02*
X169445862Y-67211314D01*
X169445862Y-67211314D02*
X169503005Y-67097028D01*
X169503005Y-67097028D02*
X169560148Y-67039885D01*
X169560148Y-67039885D02*
X169674433Y-66982742D01*
X169674433Y-66982742D02*
X169903005Y-66982742D01*
X169903005Y-66982742D02*
X170017291Y-67039885D01*
X170360147Y-66982742D02*
X170817290Y-66982742D01*
X170531576Y-66582742D02*
X170531576Y-67611314D01*
X170531576Y-67611314D02*
X170588719Y-67725600D01*
X170588719Y-67725600D02*
X170703004Y-67782742D01*
X170703004Y-67782742D02*
X170817290Y-67782742D01*
D10*
X205436415Y-91415739D02*
X205436415Y-91891929D01*
X205150700Y-91320501D02*
X206150700Y-91653834D01*
X206150700Y-91653834D02*
X205150700Y-91987167D01*
X205150700Y-92844310D02*
X205150700Y-92272882D01*
X205150700Y-92558596D02*
X206150700Y-92558596D01*
X206150700Y-92558596D02*
X206007843Y-92463358D01*
X206007843Y-92463358D02*
X205912605Y-92368120D01*
X205912605Y-92368120D02*
X205864986Y-92272882D01*
X206150700Y-93749072D02*
X206150700Y-93272882D01*
X206150700Y-93272882D02*
X205674510Y-93225263D01*
X205674510Y-93225263D02*
X205722129Y-93272882D01*
X205722129Y-93272882D02*
X205769748Y-93368120D01*
X205769748Y-93368120D02*
X205769748Y-93606215D01*
X205769748Y-93606215D02*
X205722129Y-93701453D01*
X205722129Y-93701453D02*
X205674510Y-93749072D01*
X205674510Y-93749072D02*
X205579272Y-93796691D01*
X205579272Y-93796691D02*
X205341177Y-93796691D01*
X205341177Y-93796691D02*
X205245939Y-93749072D01*
X205245939Y-93749072D02*
X205198320Y-93701453D01*
X205198320Y-93701453D02*
X205150700Y-93606215D01*
X205150700Y-93606215D02*
X205150700Y-93368120D01*
X205150700Y-93368120D02*
X205198320Y-93272882D01*
X205198320Y-93272882D02*
X205245939Y-93225263D01*
X163350700Y-91320501D02*
X162350700Y-91653834D01*
X162350700Y-91653834D02*
X163350700Y-91987167D01*
X162398320Y-92749072D02*
X162350700Y-92653834D01*
X162350700Y-92653834D02*
X162350700Y-92463358D01*
X162350700Y-92463358D02*
X162398320Y-92368120D01*
X162398320Y-92368120D02*
X162445939Y-92320501D01*
X162445939Y-92320501D02*
X162541177Y-92272882D01*
X162541177Y-92272882D02*
X162826891Y-92272882D01*
X162826891Y-92272882D02*
X162922129Y-92320501D01*
X162922129Y-92320501D02*
X162969748Y-92368120D01*
X162969748Y-92368120D02*
X163017367Y-92463358D01*
X163017367Y-92463358D02*
X163017367Y-92653834D01*
X163017367Y-92653834D02*
X162969748Y-92749072D01*
X162398320Y-93606215D02*
X162350700Y-93510977D01*
X162350700Y-93510977D02*
X162350700Y-93320501D01*
X162350700Y-93320501D02*
X162398320Y-93225263D01*
X162398320Y-93225263D02*
X162445939Y-93177644D01*
X162445939Y-93177644D02*
X162541177Y-93130025D01*
X162541177Y-93130025D02*
X162826891Y-93130025D01*
X162826891Y-93130025D02*
X162922129Y-93177644D01*
X162922129Y-93177644D02*
X162969748Y-93225263D01*
X162969748Y-93225263D02*
X163017367Y-93320501D01*
X163017367Y-93320501D02*
X163017367Y-93510977D01*
X163017367Y-93510977D02*
X162969748Y-93606215D01*
X144450700Y-92034786D02*
X144926891Y-91701453D01*
X144450700Y-91463358D02*
X145450700Y-91463358D01*
X145450700Y-91463358D02*
X145450700Y-91844310D01*
X145450700Y-91844310D02*
X145403081Y-91939548D01*
X145403081Y-91939548D02*
X145355462Y-91987167D01*
X145355462Y-91987167D02*
X145260224Y-92034786D01*
X145260224Y-92034786D02*
X145117367Y-92034786D01*
X145117367Y-92034786D02*
X145022129Y-91987167D01*
X145022129Y-91987167D02*
X144974510Y-91939548D01*
X144974510Y-91939548D02*
X144926891Y-91844310D01*
X144926891Y-91844310D02*
X144926891Y-91463358D01*
X144450700Y-92463358D02*
X145450700Y-92463358D01*
X145450700Y-92463358D02*
X145450700Y-92701453D01*
X145450700Y-92701453D02*
X145403081Y-92844310D01*
X145403081Y-92844310D02*
X145307843Y-92939548D01*
X145307843Y-92939548D02*
X145212605Y-92987167D01*
X145212605Y-92987167D02*
X145022129Y-93034786D01*
X145022129Y-93034786D02*
X144879272Y-93034786D01*
X144879272Y-93034786D02*
X144688796Y-92987167D01*
X144688796Y-92987167D02*
X144593558Y-92939548D01*
X144593558Y-92939548D02*
X144498320Y-92844310D01*
X144498320Y-92844310D02*
X144450700Y-92701453D01*
X144450700Y-92701453D02*
X144450700Y-92463358D01*
X144926891Y-93653834D02*
X144450700Y-93653834D01*
X145450700Y-93320501D02*
X144926891Y-93653834D01*
X144926891Y-93653834D02*
X145450700Y-93987167D01*
X198036415Y-91415739D02*
X198036415Y-91891929D01*
X197750700Y-91320501D02*
X198750700Y-91653834D01*
X198750700Y-91653834D02*
X197750700Y-91987167D01*
X197750700Y-92844310D02*
X197750700Y-92272882D01*
X197750700Y-92558596D02*
X198750700Y-92558596D01*
X198750700Y-92558596D02*
X198607843Y-92463358D01*
X198607843Y-92463358D02*
X198512605Y-92368120D01*
X198512605Y-92368120D02*
X198464986Y-92272882D01*
X198655462Y-93225263D02*
X198703081Y-93272882D01*
X198703081Y-93272882D02*
X198750700Y-93368120D01*
X198750700Y-93368120D02*
X198750700Y-93606215D01*
X198750700Y-93606215D02*
X198703081Y-93701453D01*
X198703081Y-93701453D02*
X198655462Y-93749072D01*
X198655462Y-93749072D02*
X198560224Y-93796691D01*
X198560224Y-93796691D02*
X198464986Y-93796691D01*
X198464986Y-93796691D02*
X198322129Y-93749072D01*
X198322129Y-93749072D02*
X197750700Y-93177644D01*
X197750700Y-93177644D02*
X197750700Y-93796691D01*
X195336415Y-91415739D02*
X195336415Y-91891929D01*
X195050700Y-91320501D02*
X196050700Y-91653834D01*
X196050700Y-91653834D02*
X195050700Y-91987167D01*
X195050700Y-92844310D02*
X195050700Y-92272882D01*
X195050700Y-92558596D02*
X196050700Y-92558596D01*
X196050700Y-92558596D02*
X195907843Y-92463358D01*
X195907843Y-92463358D02*
X195812605Y-92368120D01*
X195812605Y-92368120D02*
X195764986Y-92272882D01*
X195050700Y-93796691D02*
X195050700Y-93225263D01*
X195050700Y-93510977D02*
X196050700Y-93510977D01*
X196050700Y-93510977D02*
X195907843Y-93415739D01*
X195907843Y-93415739D02*
X195812605Y-93320501D01*
X195812605Y-93320501D02*
X195764986Y-93225263D01*
X182636415Y-91415739D02*
X182636415Y-91891929D01*
X182350700Y-91320501D02*
X183350700Y-91653834D01*
X183350700Y-91653834D02*
X182350700Y-91987167D01*
X183350700Y-92749072D02*
X183350700Y-92558596D01*
X183350700Y-92558596D02*
X183303081Y-92463358D01*
X183303081Y-92463358D02*
X183255462Y-92415739D01*
X183255462Y-92415739D02*
X183112605Y-92320501D01*
X183112605Y-92320501D02*
X182922129Y-92272882D01*
X182922129Y-92272882D02*
X182541177Y-92272882D01*
X182541177Y-92272882D02*
X182445939Y-92320501D01*
X182445939Y-92320501D02*
X182398320Y-92368120D01*
X182398320Y-92368120D02*
X182350700Y-92463358D01*
X182350700Y-92463358D02*
X182350700Y-92653834D01*
X182350700Y-92653834D02*
X182398320Y-92749072D01*
X182398320Y-92749072D02*
X182445939Y-92796691D01*
X182445939Y-92796691D02*
X182541177Y-92844310D01*
X182541177Y-92844310D02*
X182779272Y-92844310D01*
X182779272Y-92844310D02*
X182874510Y-92796691D01*
X182874510Y-92796691D02*
X182922129Y-92749072D01*
X182922129Y-92749072D02*
X182969748Y-92653834D01*
X182969748Y-92653834D02*
X182969748Y-92463358D01*
X182969748Y-92463358D02*
X182922129Y-92368120D01*
X182922129Y-92368120D02*
X182874510Y-92320501D01*
X182874510Y-92320501D02*
X182779272Y-92272882D01*
X136850700Y-91463358D02*
X137850700Y-91463358D01*
X137850700Y-91463358D02*
X137850700Y-91701453D01*
X137850700Y-91701453D02*
X137803081Y-91844310D01*
X137803081Y-91844310D02*
X137707843Y-91939548D01*
X137707843Y-91939548D02*
X137612605Y-91987167D01*
X137612605Y-91987167D02*
X137422129Y-92034786D01*
X137422129Y-92034786D02*
X137279272Y-92034786D01*
X137279272Y-92034786D02*
X137088796Y-91987167D01*
X137088796Y-91987167D02*
X136993558Y-91939548D01*
X136993558Y-91939548D02*
X136898320Y-91844310D01*
X136898320Y-91844310D02*
X136850700Y-91701453D01*
X136850700Y-91701453D02*
X136850700Y-91463358D01*
X136850700Y-92987167D02*
X136850700Y-92415739D01*
X136850700Y-92701453D02*
X137850700Y-92701453D01*
X137850700Y-92701453D02*
X137707843Y-92606215D01*
X137707843Y-92606215D02*
X137612605Y-92510977D01*
X137612605Y-92510977D02*
X137564986Y-92415739D01*
X134250700Y-91463358D02*
X135250700Y-91463358D01*
X135250700Y-91463358D02*
X135250700Y-91701453D01*
X135250700Y-91701453D02*
X135203081Y-91844310D01*
X135203081Y-91844310D02*
X135107843Y-91939548D01*
X135107843Y-91939548D02*
X135012605Y-91987167D01*
X135012605Y-91987167D02*
X134822129Y-92034786D01*
X134822129Y-92034786D02*
X134679272Y-92034786D01*
X134679272Y-92034786D02*
X134488796Y-91987167D01*
X134488796Y-91987167D02*
X134393558Y-91939548D01*
X134393558Y-91939548D02*
X134298320Y-91844310D01*
X134298320Y-91844310D02*
X134250700Y-91701453D01*
X134250700Y-91701453D02*
X134250700Y-91463358D01*
X135155462Y-92415739D02*
X135203081Y-92463358D01*
X135203081Y-92463358D02*
X135250700Y-92558596D01*
X135250700Y-92558596D02*
X135250700Y-92796691D01*
X135250700Y-92796691D02*
X135203081Y-92891929D01*
X135203081Y-92891929D02*
X135155462Y-92939548D01*
X135155462Y-92939548D02*
X135060224Y-92987167D01*
X135060224Y-92987167D02*
X134964986Y-92987167D01*
X134964986Y-92987167D02*
X134822129Y-92939548D01*
X134822129Y-92939548D02*
X134250700Y-92368120D01*
X134250700Y-92368120D02*
X134250700Y-92987167D01*
X172536415Y-91415739D02*
X172536415Y-91891929D01*
X172250700Y-91320501D02*
X173250700Y-91653834D01*
X173250700Y-91653834D02*
X172250700Y-91987167D01*
X173155462Y-92272882D02*
X173203081Y-92320501D01*
X173203081Y-92320501D02*
X173250700Y-92415739D01*
X173250700Y-92415739D02*
X173250700Y-92653834D01*
X173250700Y-92653834D02*
X173203081Y-92749072D01*
X173203081Y-92749072D02*
X173155462Y-92796691D01*
X173155462Y-92796691D02*
X173060224Y-92844310D01*
X173060224Y-92844310D02*
X172964986Y-92844310D01*
X172964986Y-92844310D02*
X172822129Y-92796691D01*
X172822129Y-92796691D02*
X172250700Y-92225263D01*
X172250700Y-92225263D02*
X172250700Y-92844310D01*
X170036415Y-91415739D02*
X170036415Y-91891929D01*
X169750700Y-91320501D02*
X170750700Y-91653834D01*
X170750700Y-91653834D02*
X169750700Y-91987167D01*
X169750700Y-92844310D02*
X169750700Y-92272882D01*
X169750700Y-92558596D02*
X170750700Y-92558596D01*
X170750700Y-92558596D02*
X170607843Y-92463358D01*
X170607843Y-92463358D02*
X170512605Y-92368120D01*
X170512605Y-92368120D02*
X170464986Y-92272882D01*
X146850700Y-91714786D02*
X147326891Y-91381453D01*
X146850700Y-91143358D02*
X147850700Y-91143358D01*
X147850700Y-91143358D02*
X147850700Y-91524310D01*
X147850700Y-91524310D02*
X147803081Y-91619548D01*
X147803081Y-91619548D02*
X147755462Y-91667167D01*
X147755462Y-91667167D02*
X147660224Y-91714786D01*
X147660224Y-91714786D02*
X147517367Y-91714786D01*
X147517367Y-91714786D02*
X147422129Y-91667167D01*
X147422129Y-91667167D02*
X147374510Y-91619548D01*
X147374510Y-91619548D02*
X147326891Y-91524310D01*
X147326891Y-91524310D02*
X147326891Y-91143358D01*
X147898320Y-92857643D02*
X146612605Y-92000501D01*
X147850700Y-93095739D02*
X146850700Y-93333834D01*
X146850700Y-93333834D02*
X147564986Y-93524310D01*
X147564986Y-93524310D02*
X146850700Y-93714786D01*
X146850700Y-93714786D02*
X147850700Y-93952882D01*
X116550700Y-92034786D02*
X117026891Y-91701453D01*
X116550700Y-91463358D02*
X117550700Y-91463358D01*
X117550700Y-91463358D02*
X117550700Y-91844310D01*
X117550700Y-91844310D02*
X117503081Y-91939548D01*
X117503081Y-91939548D02*
X117455462Y-91987167D01*
X117455462Y-91987167D02*
X117360224Y-92034786D01*
X117360224Y-92034786D02*
X117217367Y-92034786D01*
X117217367Y-92034786D02*
X117122129Y-91987167D01*
X117122129Y-91987167D02*
X117074510Y-91939548D01*
X117074510Y-91939548D02*
X117026891Y-91844310D01*
X117026891Y-91844310D02*
X117026891Y-91463358D01*
X117550700Y-92368120D02*
X116550700Y-93034786D01*
X117550700Y-93034786D02*
X116550700Y-92368120D01*
X139250700Y-91463358D02*
X140250700Y-91463358D01*
X140250700Y-91463358D02*
X140250700Y-91701453D01*
X140250700Y-91701453D02*
X140203081Y-91844310D01*
X140203081Y-91844310D02*
X140107843Y-91939548D01*
X140107843Y-91939548D02*
X140012605Y-91987167D01*
X140012605Y-91987167D02*
X139822129Y-92034786D01*
X139822129Y-92034786D02*
X139679272Y-92034786D01*
X139679272Y-92034786D02*
X139488796Y-91987167D01*
X139488796Y-91987167D02*
X139393558Y-91939548D01*
X139393558Y-91939548D02*
X139298320Y-91844310D01*
X139298320Y-91844310D02*
X139250700Y-91701453D01*
X139250700Y-91701453D02*
X139250700Y-91463358D01*
X140250700Y-92653834D02*
X140250700Y-92749072D01*
X140250700Y-92749072D02*
X140203081Y-92844310D01*
X140203081Y-92844310D02*
X140155462Y-92891929D01*
X140155462Y-92891929D02*
X140060224Y-92939548D01*
X140060224Y-92939548D02*
X139869748Y-92987167D01*
X139869748Y-92987167D02*
X139631653Y-92987167D01*
X139631653Y-92987167D02*
X139441177Y-92939548D01*
X139441177Y-92939548D02*
X139345939Y-92891929D01*
X139345939Y-92891929D02*
X139298320Y-92844310D01*
X139298320Y-92844310D02*
X139250700Y-92749072D01*
X139250700Y-92749072D02*
X139250700Y-92653834D01*
X139250700Y-92653834D02*
X139298320Y-92558596D01*
X139298320Y-92558596D02*
X139345939Y-92510977D01*
X139345939Y-92510977D02*
X139441177Y-92463358D01*
X139441177Y-92463358D02*
X139631653Y-92415739D01*
X139631653Y-92415739D02*
X139869748Y-92415739D01*
X139869748Y-92415739D02*
X140060224Y-92463358D01*
X140060224Y-92463358D02*
X140155462Y-92510977D01*
X140155462Y-92510977D02*
X140203081Y-92558596D01*
X140203081Y-92558596D02*
X140250700Y-92653834D01*
D11*
X124753006Y-88883409D02*
X124895863Y-88931028D01*
X124895863Y-88931028D02*
X124943482Y-88978647D01*
X124943482Y-88978647D02*
X124991101Y-89073885D01*
X124991101Y-89073885D02*
X124991101Y-89216742D01*
X124991101Y-89216742D02*
X124943482Y-89311980D01*
X124943482Y-89311980D02*
X124895863Y-89359600D01*
X124895863Y-89359600D02*
X124800625Y-89407219D01*
X124800625Y-89407219D02*
X124419673Y-89407219D01*
X124419673Y-89407219D02*
X124419673Y-88407219D01*
X124419673Y-88407219D02*
X124753006Y-88407219D01*
X124753006Y-88407219D02*
X124848244Y-88454838D01*
X124848244Y-88454838D02*
X124895863Y-88502457D01*
X124895863Y-88502457D02*
X124943482Y-88597695D01*
X124943482Y-88597695D02*
X124943482Y-88692933D01*
X124943482Y-88692933D02*
X124895863Y-88788171D01*
X124895863Y-88788171D02*
X124848244Y-88835790D01*
X124848244Y-88835790D02*
X124753006Y-88883409D01*
X124753006Y-88883409D02*
X124419673Y-88883409D01*
X125848244Y-89407219D02*
X125848244Y-88883409D01*
X125848244Y-88883409D02*
X125800625Y-88788171D01*
X125800625Y-88788171D02*
X125705387Y-88740552D01*
X125705387Y-88740552D02*
X125514911Y-88740552D01*
X125514911Y-88740552D02*
X125419673Y-88788171D01*
X125848244Y-89359600D02*
X125753006Y-89407219D01*
X125753006Y-89407219D02*
X125514911Y-89407219D01*
X125514911Y-89407219D02*
X125419673Y-89359600D01*
X125419673Y-89359600D02*
X125372054Y-89264361D01*
X125372054Y-89264361D02*
X125372054Y-89169123D01*
X125372054Y-89169123D02*
X125419673Y-89073885D01*
X125419673Y-89073885D02*
X125514911Y-89026266D01*
X125514911Y-89026266D02*
X125753006Y-89026266D01*
X125753006Y-89026266D02*
X125848244Y-88978647D01*
X126276816Y-89359600D02*
X126372054Y-89407219D01*
X126372054Y-89407219D02*
X126562530Y-89407219D01*
X126562530Y-89407219D02*
X126657768Y-89359600D01*
X126657768Y-89359600D02*
X126705387Y-89264361D01*
X126705387Y-89264361D02*
X126705387Y-89216742D01*
X126705387Y-89216742D02*
X126657768Y-89121504D01*
X126657768Y-89121504D02*
X126562530Y-89073885D01*
X126562530Y-89073885D02*
X126419673Y-89073885D01*
X126419673Y-89073885D02*
X126324435Y-89026266D01*
X126324435Y-89026266D02*
X126276816Y-88931028D01*
X126276816Y-88931028D02*
X126276816Y-88883409D01*
X126276816Y-88883409D02*
X126324435Y-88788171D01*
X126324435Y-88788171D02*
X126419673Y-88740552D01*
X126419673Y-88740552D02*
X126562530Y-88740552D01*
X126562530Y-88740552D02*
X126657768Y-88788171D01*
X127514911Y-89359600D02*
X127419673Y-89407219D01*
X127419673Y-89407219D02*
X127229197Y-89407219D01*
X127229197Y-89407219D02*
X127133959Y-89359600D01*
X127133959Y-89359600D02*
X127086340Y-89264361D01*
X127086340Y-89264361D02*
X127086340Y-88883409D01*
X127086340Y-88883409D02*
X127133959Y-88788171D01*
X127133959Y-88788171D02*
X127229197Y-88740552D01*
X127229197Y-88740552D02*
X127419673Y-88740552D01*
X127419673Y-88740552D02*
X127514911Y-88788171D01*
X127514911Y-88788171D02*
X127562530Y-88883409D01*
X127562530Y-88883409D02*
X127562530Y-88978647D01*
X127562530Y-88978647D02*
X127086340Y-89073885D01*
X129181578Y-89407219D02*
X129181578Y-88883409D01*
X129181578Y-88883409D02*
X129133959Y-88788171D01*
X129133959Y-88788171D02*
X129038721Y-88740552D01*
X129038721Y-88740552D02*
X128848245Y-88740552D01*
X128848245Y-88740552D02*
X128753007Y-88788171D01*
X129181578Y-89359600D02*
X129086340Y-89407219D01*
X129086340Y-89407219D02*
X128848245Y-89407219D01*
X128848245Y-89407219D02*
X128753007Y-89359600D01*
X128753007Y-89359600D02*
X128705388Y-89264361D01*
X128705388Y-89264361D02*
X128705388Y-89169123D01*
X128705388Y-89169123D02*
X128753007Y-89073885D01*
X128753007Y-89073885D02*
X128848245Y-89026266D01*
X128848245Y-89026266D02*
X129086340Y-89026266D01*
X129086340Y-89026266D02*
X129181578Y-88978647D01*
X130086340Y-89407219D02*
X130086340Y-88407219D01*
X130086340Y-89359600D02*
X129991102Y-89407219D01*
X129991102Y-89407219D02*
X129800626Y-89407219D01*
X129800626Y-89407219D02*
X129705388Y-89359600D01*
X129705388Y-89359600D02*
X129657769Y-89311980D01*
X129657769Y-89311980D02*
X129610150Y-89216742D01*
X129610150Y-89216742D02*
X129610150Y-88931028D01*
X129610150Y-88931028D02*
X129657769Y-88835790D01*
X129657769Y-88835790D02*
X129705388Y-88788171D01*
X129705388Y-88788171D02*
X129800626Y-88740552D01*
X129800626Y-88740552D02*
X129991102Y-88740552D01*
X129991102Y-88740552D02*
X130086340Y-88788171D01*
X130991102Y-89407219D02*
X130991102Y-88407219D01*
X130991102Y-89359600D02*
X130895864Y-89407219D01*
X130895864Y-89407219D02*
X130705388Y-89407219D01*
X130705388Y-89407219D02*
X130610150Y-89359600D01*
X130610150Y-89359600D02*
X130562531Y-89311980D01*
X130562531Y-89311980D02*
X130514912Y-89216742D01*
X130514912Y-89216742D02*
X130514912Y-88931028D01*
X130514912Y-88931028D02*
X130562531Y-88835790D01*
X130562531Y-88835790D02*
X130610150Y-88788171D01*
X130610150Y-88788171D02*
X130705388Y-88740552D01*
X130705388Y-88740552D02*
X130895864Y-88740552D01*
X130895864Y-88740552D02*
X130991102Y-88788171D01*
X131467293Y-89407219D02*
X131467293Y-88740552D01*
X131467293Y-88931028D02*
X131514912Y-88835790D01*
X131514912Y-88835790D02*
X131562531Y-88788171D01*
X131562531Y-88788171D02*
X131657769Y-88740552D01*
X131657769Y-88740552D02*
X131753007Y-88740552D01*
X132467293Y-89359600D02*
X132372055Y-89407219D01*
X132372055Y-89407219D02*
X132181579Y-89407219D01*
X132181579Y-89407219D02*
X132086341Y-89359600D01*
X132086341Y-89359600D02*
X132038722Y-89264361D01*
X132038722Y-89264361D02*
X132038722Y-88883409D01*
X132038722Y-88883409D02*
X132086341Y-88788171D01*
X132086341Y-88788171D02*
X132181579Y-88740552D01*
X132181579Y-88740552D02*
X132372055Y-88740552D01*
X132372055Y-88740552D02*
X132467293Y-88788171D01*
X132467293Y-88788171D02*
X132514912Y-88883409D01*
X132514912Y-88883409D02*
X132514912Y-88978647D01*
X132514912Y-88978647D02*
X132038722Y-89073885D01*
X132895865Y-89359600D02*
X132991103Y-89407219D01*
X132991103Y-89407219D02*
X133181579Y-89407219D01*
X133181579Y-89407219D02*
X133276817Y-89359600D01*
X133276817Y-89359600D02*
X133324436Y-89264361D01*
X133324436Y-89264361D02*
X133324436Y-89216742D01*
X133324436Y-89216742D02*
X133276817Y-89121504D01*
X133276817Y-89121504D02*
X133181579Y-89073885D01*
X133181579Y-89073885D02*
X133038722Y-89073885D01*
X133038722Y-89073885D02*
X132943484Y-89026266D01*
X132943484Y-89026266D02*
X132895865Y-88931028D01*
X132895865Y-88931028D02*
X132895865Y-88883409D01*
X132895865Y-88883409D02*
X132943484Y-88788171D01*
X132943484Y-88788171D02*
X133038722Y-88740552D01*
X133038722Y-88740552D02*
X133181579Y-88740552D01*
X133181579Y-88740552D02*
X133276817Y-88788171D01*
X133705389Y-89359600D02*
X133800627Y-89407219D01*
X133800627Y-89407219D02*
X133991103Y-89407219D01*
X133991103Y-89407219D02*
X134086341Y-89359600D01*
X134086341Y-89359600D02*
X134133960Y-89264361D01*
X134133960Y-89264361D02*
X134133960Y-89216742D01*
X134133960Y-89216742D02*
X134086341Y-89121504D01*
X134086341Y-89121504D02*
X133991103Y-89073885D01*
X133991103Y-89073885D02*
X133848246Y-89073885D01*
X133848246Y-89073885D02*
X133753008Y-89026266D01*
X133753008Y-89026266D02*
X133705389Y-88931028D01*
X133705389Y-88931028D02*
X133705389Y-88883409D01*
X133705389Y-88883409D02*
X133753008Y-88788171D01*
X133753008Y-88788171D02*
X133848246Y-88740552D01*
X133848246Y-88740552D02*
X133991103Y-88740552D01*
X133991103Y-88740552D02*
X134086341Y-88788171D01*
X135276818Y-89359600D02*
X135419675Y-89407219D01*
X135419675Y-89407219D02*
X135657770Y-89407219D01*
X135657770Y-89407219D02*
X135753008Y-89359600D01*
X135753008Y-89359600D02*
X135800627Y-89311980D01*
X135800627Y-89311980D02*
X135848246Y-89216742D01*
X135848246Y-89216742D02*
X135848246Y-89121504D01*
X135848246Y-89121504D02*
X135800627Y-89026266D01*
X135800627Y-89026266D02*
X135753008Y-88978647D01*
X135753008Y-88978647D02*
X135657770Y-88931028D01*
X135657770Y-88931028D02*
X135467294Y-88883409D01*
X135467294Y-88883409D02*
X135372056Y-88835790D01*
X135372056Y-88835790D02*
X135324437Y-88788171D01*
X135324437Y-88788171D02*
X135276818Y-88692933D01*
X135276818Y-88692933D02*
X135276818Y-88597695D01*
X135276818Y-88597695D02*
X135324437Y-88502457D01*
X135324437Y-88502457D02*
X135372056Y-88454838D01*
X135372056Y-88454838D02*
X135467294Y-88407219D01*
X135467294Y-88407219D02*
X135705389Y-88407219D01*
X135705389Y-88407219D02*
X135848246Y-88454838D01*
X135562532Y-88264361D02*
X135562532Y-89550076D01*
X136419675Y-88835790D02*
X136324437Y-88788171D01*
X136324437Y-88788171D02*
X136276818Y-88740552D01*
X136276818Y-88740552D02*
X136229199Y-88645314D01*
X136229199Y-88645314D02*
X136229199Y-88597695D01*
X136229199Y-88597695D02*
X136276818Y-88502457D01*
X136276818Y-88502457D02*
X136324437Y-88454838D01*
X136324437Y-88454838D02*
X136419675Y-88407219D01*
X136419675Y-88407219D02*
X136610151Y-88407219D01*
X136610151Y-88407219D02*
X136705389Y-88454838D01*
X136705389Y-88454838D02*
X136753008Y-88502457D01*
X136753008Y-88502457D02*
X136800627Y-88597695D01*
X136800627Y-88597695D02*
X136800627Y-88645314D01*
X136800627Y-88645314D02*
X136753008Y-88740552D01*
X136753008Y-88740552D02*
X136705389Y-88788171D01*
X136705389Y-88788171D02*
X136610151Y-88835790D01*
X136610151Y-88835790D02*
X136419675Y-88835790D01*
X136419675Y-88835790D02*
X136324437Y-88883409D01*
X136324437Y-88883409D02*
X136276818Y-88931028D01*
X136276818Y-88931028D02*
X136229199Y-89026266D01*
X136229199Y-89026266D02*
X136229199Y-89216742D01*
X136229199Y-89216742D02*
X136276818Y-89311980D01*
X136276818Y-89311980D02*
X136324437Y-89359600D01*
X136324437Y-89359600D02*
X136419675Y-89407219D01*
X136419675Y-89407219D02*
X136610151Y-89407219D01*
X136610151Y-89407219D02*
X136705389Y-89359600D01*
X136705389Y-89359600D02*
X136753008Y-89311980D01*
X136753008Y-89311980D02*
X136800627Y-89216742D01*
X136800627Y-89216742D02*
X136800627Y-89026266D01*
X136800627Y-89026266D02*
X136753008Y-88931028D01*
X136753008Y-88931028D02*
X136705389Y-88883409D01*
X136705389Y-88883409D02*
X136610151Y-88835790D01*
X137419675Y-88407219D02*
X137514913Y-88407219D01*
X137514913Y-88407219D02*
X137610151Y-88454838D01*
X137610151Y-88454838D02*
X137657770Y-88502457D01*
X137657770Y-88502457D02*
X137705389Y-88597695D01*
X137705389Y-88597695D02*
X137753008Y-88788171D01*
X137753008Y-88788171D02*
X137753008Y-89026266D01*
X137753008Y-89026266D02*
X137705389Y-89216742D01*
X137705389Y-89216742D02*
X137657770Y-89311980D01*
X137657770Y-89311980D02*
X137610151Y-89359600D01*
X137610151Y-89359600D02*
X137514913Y-89407219D01*
X137514913Y-89407219D02*
X137419675Y-89407219D01*
X137419675Y-89407219D02*
X137324437Y-89359600D01*
X137324437Y-89359600D02*
X137276818Y-89311980D01*
X137276818Y-89311980D02*
X137229199Y-89216742D01*
X137229199Y-89216742D02*
X137181580Y-89026266D01*
X137181580Y-89026266D02*
X137181580Y-88788171D01*
X137181580Y-88788171D02*
X137229199Y-88597695D01*
X137229199Y-88597695D02*
X137276818Y-88502457D01*
X137276818Y-88502457D02*
X137324437Y-88454838D01*
X137324437Y-88454838D02*
X137419675Y-88407219D01*
X138372056Y-88407219D02*
X138467294Y-88407219D01*
X138467294Y-88407219D02*
X138562532Y-88454838D01*
X138562532Y-88454838D02*
X138610151Y-88502457D01*
X138610151Y-88502457D02*
X138657770Y-88597695D01*
X138657770Y-88597695D02*
X138705389Y-88788171D01*
X138705389Y-88788171D02*
X138705389Y-89026266D01*
X138705389Y-89026266D02*
X138657770Y-89216742D01*
X138657770Y-89216742D02*
X138610151Y-89311980D01*
X138610151Y-89311980D02*
X138562532Y-89359600D01*
X138562532Y-89359600D02*
X138467294Y-89407219D01*
X138467294Y-89407219D02*
X138372056Y-89407219D01*
X138372056Y-89407219D02*
X138276818Y-89359600D01*
X138276818Y-89359600D02*
X138229199Y-89311980D01*
X138229199Y-89311980D02*
X138181580Y-89216742D01*
X138181580Y-89216742D02*
X138133961Y-89026266D01*
X138133961Y-89026266D02*
X138133961Y-88788171D01*
X138133961Y-88788171D02*
X138181580Y-88597695D01*
X138181580Y-88597695D02*
X138229199Y-88502457D01*
X138229199Y-88502457D02*
X138276818Y-88454838D01*
X138276818Y-88454838D02*
X138372056Y-88407219D01*
X139324437Y-88407219D02*
X139419675Y-88407219D01*
X139419675Y-88407219D02*
X139514913Y-88454838D01*
X139514913Y-88454838D02*
X139562532Y-88502457D01*
X139562532Y-88502457D02*
X139610151Y-88597695D01*
X139610151Y-88597695D02*
X139657770Y-88788171D01*
X139657770Y-88788171D02*
X139657770Y-89026266D01*
X139657770Y-89026266D02*
X139610151Y-89216742D01*
X139610151Y-89216742D02*
X139562532Y-89311980D01*
X139562532Y-89311980D02*
X139514913Y-89359600D01*
X139514913Y-89359600D02*
X139419675Y-89407219D01*
X139419675Y-89407219D02*
X139324437Y-89407219D01*
X139324437Y-89407219D02*
X139229199Y-89359600D01*
X139229199Y-89359600D02*
X139181580Y-89311980D01*
X139181580Y-89311980D02*
X139133961Y-89216742D01*
X139133961Y-89216742D02*
X139086342Y-89026266D01*
X139086342Y-89026266D02*
X139086342Y-88788171D01*
X139086342Y-88788171D02*
X139133961Y-88597695D01*
X139133961Y-88597695D02*
X139181580Y-88502457D01*
X139181580Y-88502457D02*
X139229199Y-88454838D01*
X139229199Y-88454838D02*
X139324437Y-88407219D01*
D10*
X120150700Y-91320501D02*
X120150700Y-91891929D01*
X119150700Y-91606215D02*
X120150700Y-91606215D01*
X120150700Y-92130025D02*
X119150700Y-92796691D01*
X120150700Y-92796691D02*
X119150700Y-92130025D01*
X154550700Y-90733358D02*
X155550700Y-90733358D01*
X155550700Y-90733358D02*
X155550700Y-91114310D01*
X155550700Y-91114310D02*
X155503081Y-91209548D01*
X155503081Y-91209548D02*
X155455462Y-91257167D01*
X155455462Y-91257167D02*
X155360224Y-91304786D01*
X155360224Y-91304786D02*
X155217367Y-91304786D01*
X155217367Y-91304786D02*
X155122129Y-91257167D01*
X155122129Y-91257167D02*
X155074510Y-91209548D01*
X155074510Y-91209548D02*
X155026891Y-91114310D01*
X155026891Y-91114310D02*
X155026891Y-90733358D01*
X154550700Y-91733358D02*
X155550700Y-91733358D01*
X155074510Y-91733358D02*
X155074510Y-92304786D01*
X154550700Y-92304786D02*
X155550700Y-92304786D01*
X154550700Y-92780977D02*
X155550700Y-92780977D01*
X155550700Y-93447643D02*
X155550700Y-93542881D01*
X155550700Y-93542881D02*
X155503081Y-93638119D01*
X155503081Y-93638119D02*
X155455462Y-93685738D01*
X155455462Y-93685738D02*
X155360224Y-93733357D01*
X155360224Y-93733357D02*
X155169748Y-93780976D01*
X155169748Y-93780976D02*
X154931653Y-93780976D01*
X154931653Y-93780976D02*
X154741177Y-93733357D01*
X154741177Y-93733357D02*
X154645939Y-93685738D01*
X154645939Y-93685738D02*
X154598320Y-93638119D01*
X154598320Y-93638119D02*
X154550700Y-93542881D01*
X154550700Y-93542881D02*
X154550700Y-93447643D01*
X154550700Y-93447643D02*
X154598320Y-93352405D01*
X154598320Y-93352405D02*
X154645939Y-93304786D01*
X154645939Y-93304786D02*
X154741177Y-93257167D01*
X154741177Y-93257167D02*
X154931653Y-93209548D01*
X154931653Y-93209548D02*
X155169748Y-93209548D01*
X155169748Y-93209548D02*
X155360224Y-93257167D01*
X155360224Y-93257167D02*
X155455462Y-93304786D01*
X155455462Y-93304786D02*
X155503081Y-93352405D01*
X155503081Y-93352405D02*
X155550700Y-93447643D01*
X180036415Y-91415739D02*
X180036415Y-91891929D01*
X179750700Y-91320501D02*
X180750700Y-91653834D01*
X180750700Y-91653834D02*
X179750700Y-91987167D01*
X180750700Y-92796691D02*
X180750700Y-92320501D01*
X180750700Y-92320501D02*
X180274510Y-92272882D01*
X180274510Y-92272882D02*
X180322129Y-92320501D01*
X180322129Y-92320501D02*
X180369748Y-92415739D01*
X180369748Y-92415739D02*
X180369748Y-92653834D01*
X180369748Y-92653834D02*
X180322129Y-92749072D01*
X180322129Y-92749072D02*
X180274510Y-92796691D01*
X180274510Y-92796691D02*
X180179272Y-92844310D01*
X180179272Y-92844310D02*
X179941177Y-92844310D01*
X179941177Y-92844310D02*
X179845939Y-92796691D01*
X179845939Y-92796691D02*
X179798320Y-92749072D01*
X179798320Y-92749072D02*
X179750700Y-92653834D01*
X179750700Y-92653834D02*
X179750700Y-92415739D01*
X179750700Y-92415739D02*
X179798320Y-92320501D01*
X179798320Y-92320501D02*
X179845939Y-92272882D01*
X167536415Y-91415739D02*
X167536415Y-91891929D01*
X167250700Y-91320501D02*
X168250700Y-91653834D01*
X168250700Y-91653834D02*
X167250700Y-91987167D01*
X168250700Y-92510977D02*
X168250700Y-92606215D01*
X168250700Y-92606215D02*
X168203081Y-92701453D01*
X168203081Y-92701453D02*
X168155462Y-92749072D01*
X168155462Y-92749072D02*
X168060224Y-92796691D01*
X168060224Y-92796691D02*
X167869748Y-92844310D01*
X167869748Y-92844310D02*
X167631653Y-92844310D01*
X167631653Y-92844310D02*
X167441177Y-92796691D01*
X167441177Y-92796691D02*
X167345939Y-92749072D01*
X167345939Y-92749072D02*
X167298320Y-92701453D01*
X167298320Y-92701453D02*
X167250700Y-92606215D01*
X167250700Y-92606215D02*
X167250700Y-92510977D01*
X167250700Y-92510977D02*
X167298320Y-92415739D01*
X167298320Y-92415739D02*
X167345939Y-92368120D01*
X167345939Y-92368120D02*
X167441177Y-92320501D01*
X167441177Y-92320501D02*
X167631653Y-92272882D01*
X167631653Y-92272882D02*
X167869748Y-92272882D01*
X167869748Y-92272882D02*
X168060224Y-92320501D01*
X168060224Y-92320501D02*
X168155462Y-92368120D01*
X168155462Y-92368120D02*
X168203081Y-92415739D01*
X168203081Y-92415739D02*
X168250700Y-92510977D01*
D11*
X175420149Y-68239885D02*
X175363006Y-68182742D01*
X175363006Y-68182742D02*
X175248720Y-68011314D01*
X175248720Y-68011314D02*
X175191578Y-67897028D01*
X175191578Y-67897028D02*
X175134435Y-67725600D01*
X175134435Y-67725600D02*
X175077292Y-67439885D01*
X175077292Y-67439885D02*
X175077292Y-67211314D01*
X175077292Y-67211314D02*
X175134435Y-66925600D01*
X175134435Y-66925600D02*
X175191578Y-66754171D01*
X175191578Y-66754171D02*
X175248720Y-66639885D01*
X175248720Y-66639885D02*
X175363006Y-66468457D01*
X175363006Y-66468457D02*
X175420149Y-66411314D01*
X176563006Y-67668457D02*
X176505863Y-67725600D01*
X176505863Y-67725600D02*
X176334435Y-67782742D01*
X176334435Y-67782742D02*
X176220149Y-67782742D01*
X176220149Y-67782742D02*
X176048720Y-67725600D01*
X176048720Y-67725600D02*
X175934435Y-67611314D01*
X175934435Y-67611314D02*
X175877292Y-67497028D01*
X175877292Y-67497028D02*
X175820149Y-67268457D01*
X175820149Y-67268457D02*
X175820149Y-67097028D01*
X175820149Y-67097028D02*
X175877292Y-66868457D01*
X175877292Y-66868457D02*
X175934435Y-66754171D01*
X175934435Y-66754171D02*
X176048720Y-66639885D01*
X176048720Y-66639885D02*
X176220149Y-66582742D01*
X176220149Y-66582742D02*
X176334435Y-66582742D01*
X176334435Y-66582742D02*
X176505863Y-66639885D01*
X176505863Y-66639885D02*
X176563006Y-66697028D01*
X176963006Y-68239885D02*
X177020149Y-68182742D01*
X177020149Y-68182742D02*
X177134435Y-68011314D01*
X177134435Y-68011314D02*
X177191578Y-67897028D01*
X177191578Y-67897028D02*
X177248720Y-67725600D01*
X177248720Y-67725600D02*
X177305863Y-67439885D01*
X177305863Y-67439885D02*
X177305863Y-67211314D01*
X177305863Y-67211314D02*
X177248720Y-66925600D01*
X177248720Y-66925600D02*
X177191578Y-66754171D01*
X177191578Y-66754171D02*
X177134435Y-66639885D01*
X177134435Y-66639885D02*
X177020149Y-66468457D01*
X177020149Y-66468457D02*
X176963006Y-66411314D01*
X178677292Y-66582742D02*
X179477292Y-67782742D01*
X179477292Y-66582742D02*
X178677292Y-67782742D01*
X179934435Y-67325600D02*
X180848721Y-67325600D01*
X181991577Y-67782742D02*
X181420149Y-67782742D01*
X181420149Y-67782742D02*
X181420149Y-66582742D01*
X182391578Y-67154171D02*
X182791578Y-67154171D01*
X182963006Y-67782742D02*
X182391578Y-67782742D01*
X182391578Y-67782742D02*
X182391578Y-66582742D01*
X182391578Y-66582742D02*
X182963006Y-66582742D01*
X183477292Y-67782742D02*
X183477292Y-66582742D01*
X183477292Y-66582742D02*
X184163006Y-67782742D01*
X184163006Y-67782742D02*
X184163006Y-66582742D01*
X184563006Y-66582742D02*
X185248721Y-66582742D01*
X184905863Y-67782742D02*
X184905863Y-66582742D01*
X186563007Y-67154171D02*
X186963007Y-67154171D01*
X187134435Y-67782742D02*
X186563007Y-67782742D01*
X186563007Y-67782742D02*
X186563007Y-66582742D01*
X186563007Y-66582742D02*
X187134435Y-66582742D01*
X188220149Y-67782742D02*
X187648721Y-67782742D01*
X187648721Y-67782742D02*
X187648721Y-66582742D01*
X188620150Y-67154171D02*
X189020150Y-67154171D01*
X189191578Y-67782742D02*
X188620150Y-67782742D01*
X188620150Y-67782742D02*
X188620150Y-66582742D01*
X188620150Y-66582742D02*
X189191578Y-66582742D01*
X190391578Y-67668457D02*
X190334435Y-67725600D01*
X190334435Y-67725600D02*
X190163007Y-67782742D01*
X190163007Y-67782742D02*
X190048721Y-67782742D01*
X190048721Y-67782742D02*
X189877292Y-67725600D01*
X189877292Y-67725600D02*
X189763007Y-67611314D01*
X189763007Y-67611314D02*
X189705864Y-67497028D01*
X189705864Y-67497028D02*
X189648721Y-67268457D01*
X189648721Y-67268457D02*
X189648721Y-67097028D01*
X189648721Y-67097028D02*
X189705864Y-66868457D01*
X189705864Y-66868457D02*
X189763007Y-66754171D01*
X189763007Y-66754171D02*
X189877292Y-66639885D01*
X189877292Y-66639885D02*
X190048721Y-66582742D01*
X190048721Y-66582742D02*
X190163007Y-66582742D01*
X190163007Y-66582742D02*
X190334435Y-66639885D01*
X190334435Y-66639885D02*
X190391578Y-66697028D01*
X190734435Y-66582742D02*
X191420150Y-66582742D01*
X191077292Y-67782742D02*
X191077292Y-66582742D01*
X192505864Y-67782742D02*
X192105864Y-67211314D01*
X191820150Y-67782742D02*
X191820150Y-66582742D01*
X191820150Y-66582742D02*
X192277293Y-66582742D01*
X192277293Y-66582742D02*
X192391578Y-66639885D01*
X192391578Y-66639885D02*
X192448721Y-66697028D01*
X192448721Y-66697028D02*
X192505864Y-66811314D01*
X192505864Y-66811314D02*
X192505864Y-66982742D01*
X192505864Y-66982742D02*
X192448721Y-67097028D01*
X192448721Y-67097028D02*
X192391578Y-67154171D01*
X192391578Y-67154171D02*
X192277293Y-67211314D01*
X192277293Y-67211314D02*
X191820150Y-67211314D01*
X193248721Y-66582742D02*
X193477293Y-66582742D01*
X193477293Y-66582742D02*
X193591578Y-66639885D01*
X193591578Y-66639885D02*
X193705864Y-66754171D01*
X193705864Y-66754171D02*
X193763007Y-66982742D01*
X193763007Y-66982742D02*
X193763007Y-67382742D01*
X193763007Y-67382742D02*
X193705864Y-67611314D01*
X193705864Y-67611314D02*
X193591578Y-67725600D01*
X193591578Y-67725600D02*
X193477293Y-67782742D01*
X193477293Y-67782742D02*
X193248721Y-67782742D01*
X193248721Y-67782742D02*
X193134436Y-67725600D01*
X193134436Y-67725600D02*
X193020150Y-67611314D01*
X193020150Y-67611314D02*
X192963007Y-67382742D01*
X192963007Y-67382742D02*
X192963007Y-66982742D01*
X192963007Y-66982742D02*
X193020150Y-66754171D01*
X193020150Y-66754171D02*
X193134436Y-66639885D01*
X193134436Y-66639885D02*
X193248721Y-66582742D01*
X194277293Y-67782742D02*
X194277293Y-66582742D01*
X194277293Y-66582742D02*
X194963007Y-67782742D01*
X194963007Y-67782742D02*
X194963007Y-66582742D01*
X195534436Y-67782742D02*
X195534436Y-66582742D01*
X196791579Y-67668457D02*
X196734436Y-67725600D01*
X196734436Y-67725600D02*
X196563008Y-67782742D01*
X196563008Y-67782742D02*
X196448722Y-67782742D01*
X196448722Y-67782742D02*
X196277293Y-67725600D01*
X196277293Y-67725600D02*
X196163008Y-67611314D01*
X196163008Y-67611314D02*
X196105865Y-67497028D01*
X196105865Y-67497028D02*
X196048722Y-67268457D01*
X196048722Y-67268457D02*
X196048722Y-67097028D01*
X196048722Y-67097028D02*
X196105865Y-66868457D01*
X196105865Y-66868457D02*
X196163008Y-66754171D01*
X196163008Y-66754171D02*
X196277293Y-66639885D01*
X196277293Y-66639885D02*
X196448722Y-66582742D01*
X196448722Y-66582742D02*
X196563008Y-66582742D01*
X196563008Y-66582742D02*
X196734436Y-66639885D01*
X196734436Y-66639885D02*
X196791579Y-66697028D01*
X197248722Y-67725600D02*
X197420151Y-67782742D01*
X197420151Y-67782742D02*
X197705865Y-67782742D01*
X197705865Y-67782742D02*
X197820151Y-67725600D01*
X197820151Y-67725600D02*
X197877293Y-67668457D01*
X197877293Y-67668457D02*
X197934436Y-67554171D01*
X197934436Y-67554171D02*
X197934436Y-67439885D01*
X197934436Y-67439885D02*
X197877293Y-67325600D01*
X197877293Y-67325600D02*
X197820151Y-67268457D01*
X197820151Y-67268457D02*
X197705865Y-67211314D01*
X197705865Y-67211314D02*
X197477293Y-67154171D01*
X197477293Y-67154171D02*
X197363008Y-67097028D01*
X197363008Y-67097028D02*
X197305865Y-67039885D01*
X197305865Y-67039885D02*
X197248722Y-66925600D01*
X197248722Y-66925600D02*
X197248722Y-66811314D01*
X197248722Y-66811314D02*
X197305865Y-66697028D01*
X197305865Y-66697028D02*
X197363008Y-66639885D01*
X197363008Y-66639885D02*
X197477293Y-66582742D01*
X197477293Y-66582742D02*
X197763008Y-66582742D01*
X197763008Y-66582742D02*
X197934436Y-66639885D01*
X198505865Y-67725600D02*
X198505865Y-67782742D01*
X198505865Y-67782742D02*
X198448722Y-67897028D01*
X198448722Y-67897028D02*
X198391579Y-67954171D01*
X199877294Y-66697028D02*
X199934437Y-66639885D01*
X199934437Y-66639885D02*
X200048723Y-66582742D01*
X200048723Y-66582742D02*
X200334437Y-66582742D01*
X200334437Y-66582742D02*
X200448723Y-66639885D01*
X200448723Y-66639885D02*
X200505865Y-66697028D01*
X200505865Y-66697028D02*
X200563008Y-66811314D01*
X200563008Y-66811314D02*
X200563008Y-66925600D01*
X200563008Y-66925600D02*
X200505865Y-67097028D01*
X200505865Y-67097028D02*
X199820151Y-67782742D01*
X199820151Y-67782742D02*
X200563008Y-67782742D01*
X201305865Y-66582742D02*
X201420151Y-66582742D01*
X201420151Y-66582742D02*
X201534437Y-66639885D01*
X201534437Y-66639885D02*
X201591580Y-66697028D01*
X201591580Y-66697028D02*
X201648722Y-66811314D01*
X201648722Y-66811314D02*
X201705865Y-67039885D01*
X201705865Y-67039885D02*
X201705865Y-67325600D01*
X201705865Y-67325600D02*
X201648722Y-67554171D01*
X201648722Y-67554171D02*
X201591580Y-67668457D01*
X201591580Y-67668457D02*
X201534437Y-67725600D01*
X201534437Y-67725600D02*
X201420151Y-67782742D01*
X201420151Y-67782742D02*
X201305865Y-67782742D01*
X201305865Y-67782742D02*
X201191580Y-67725600D01*
X201191580Y-67725600D02*
X201134437Y-67668457D01*
X201134437Y-67668457D02*
X201077294Y-67554171D01*
X201077294Y-67554171D02*
X201020151Y-67325600D01*
X201020151Y-67325600D02*
X201020151Y-67039885D01*
X201020151Y-67039885D02*
X201077294Y-66811314D01*
X201077294Y-66811314D02*
X201134437Y-66697028D01*
X201134437Y-66697028D02*
X201191580Y-66639885D01*
X201191580Y-66639885D02*
X201305865Y-66582742D01*
X202163008Y-66697028D02*
X202220151Y-66639885D01*
X202220151Y-66639885D02*
X202334437Y-66582742D01*
X202334437Y-66582742D02*
X202620151Y-66582742D01*
X202620151Y-66582742D02*
X202734437Y-66639885D01*
X202734437Y-66639885D02*
X202791579Y-66697028D01*
X202791579Y-66697028D02*
X202848722Y-66811314D01*
X202848722Y-66811314D02*
X202848722Y-66925600D01*
X202848722Y-66925600D02*
X202791579Y-67097028D01*
X202791579Y-67097028D02*
X202105865Y-67782742D01*
X202105865Y-67782742D02*
X202848722Y-67782742D01*
X203877294Y-66582742D02*
X203648722Y-66582742D01*
X203648722Y-66582742D02*
X203534436Y-66639885D01*
X203534436Y-66639885D02*
X203477294Y-66697028D01*
X203477294Y-66697028D02*
X203363008Y-66868457D01*
X203363008Y-66868457D02*
X203305865Y-67097028D01*
X203305865Y-67097028D02*
X203305865Y-67554171D01*
X203305865Y-67554171D02*
X203363008Y-67668457D01*
X203363008Y-67668457D02*
X203420151Y-67725600D01*
X203420151Y-67725600D02*
X203534436Y-67782742D01*
X203534436Y-67782742D02*
X203763008Y-67782742D01*
X203763008Y-67782742D02*
X203877294Y-67725600D01*
X203877294Y-67725600D02*
X203934436Y-67668457D01*
X203934436Y-67668457D02*
X203991579Y-67554171D01*
X203991579Y-67554171D02*
X203991579Y-67268457D01*
X203991579Y-67268457D02*
X203934436Y-67154171D01*
X203934436Y-67154171D02*
X203877294Y-67097028D01*
X203877294Y-67097028D02*
X203763008Y-67039885D01*
X203763008Y-67039885D02*
X203534436Y-67039885D01*
X203534436Y-67039885D02*
X203420151Y-67097028D01*
X203420151Y-67097028D02*
X203363008Y-67154171D01*
X203363008Y-67154171D02*
X203305865Y-67268457D01*
D10*
X185236415Y-91415739D02*
X185236415Y-91891929D01*
X184950700Y-91320501D02*
X185950700Y-91653834D01*
X185950700Y-91653834D02*
X184950700Y-91987167D01*
X185950700Y-92225263D02*
X185950700Y-92891929D01*
X185950700Y-92891929D02*
X184950700Y-92463358D01*
X121550700Y-91463358D02*
X122550700Y-91463358D01*
X122550700Y-91463358D02*
X122550700Y-91701453D01*
X122550700Y-91701453D02*
X122503081Y-91844310D01*
X122503081Y-91844310D02*
X122407843Y-91939548D01*
X122407843Y-91939548D02*
X122312605Y-91987167D01*
X122312605Y-91987167D02*
X122122129Y-92034786D01*
X122122129Y-92034786D02*
X121979272Y-92034786D01*
X121979272Y-92034786D02*
X121788796Y-91987167D01*
X121788796Y-91987167D02*
X121693558Y-91939548D01*
X121693558Y-91939548D02*
X121598320Y-91844310D01*
X121598320Y-91844310D02*
X121550700Y-91701453D01*
X121550700Y-91701453D02*
X121550700Y-91463358D01*
X122550700Y-92368120D02*
X122550700Y-93034786D01*
X122550700Y-93034786D02*
X121550700Y-92606215D01*
X113860700Y-91463358D02*
X114860700Y-91463358D01*
X114860700Y-91463358D02*
X113860700Y-92034786D01*
X113860700Y-92034786D02*
X114860700Y-92034786D01*
X113860700Y-92510977D02*
X114860700Y-92510977D01*
X114860700Y-92510977D02*
X114146415Y-92844310D01*
X114146415Y-92844310D02*
X114860700Y-93177643D01*
X114860700Y-93177643D02*
X113860700Y-93177643D01*
X113860700Y-93653834D02*
X114860700Y-93653834D01*
X124050700Y-91463358D02*
X125050700Y-91463358D01*
X125050700Y-91463358D02*
X125050700Y-91701453D01*
X125050700Y-91701453D02*
X125003081Y-91844310D01*
X125003081Y-91844310D02*
X124907843Y-91939548D01*
X124907843Y-91939548D02*
X124812605Y-91987167D01*
X124812605Y-91987167D02*
X124622129Y-92034786D01*
X124622129Y-92034786D02*
X124479272Y-92034786D01*
X124479272Y-92034786D02*
X124288796Y-91987167D01*
X124288796Y-91987167D02*
X124193558Y-91939548D01*
X124193558Y-91939548D02*
X124098320Y-91844310D01*
X124098320Y-91844310D02*
X124050700Y-91701453D01*
X124050700Y-91701453D02*
X124050700Y-91463358D01*
X125050700Y-92891929D02*
X125050700Y-92701453D01*
X125050700Y-92701453D02*
X125003081Y-92606215D01*
X125003081Y-92606215D02*
X124955462Y-92558596D01*
X124955462Y-92558596D02*
X124812605Y-92463358D01*
X124812605Y-92463358D02*
X124622129Y-92415739D01*
X124622129Y-92415739D02*
X124241177Y-92415739D01*
X124241177Y-92415739D02*
X124145939Y-92463358D01*
X124145939Y-92463358D02*
X124098320Y-92510977D01*
X124098320Y-92510977D02*
X124050700Y-92606215D01*
X124050700Y-92606215D02*
X124050700Y-92796691D01*
X124050700Y-92796691D02*
X124098320Y-92891929D01*
X124098320Y-92891929D02*
X124145939Y-92939548D01*
X124145939Y-92939548D02*
X124241177Y-92987167D01*
X124241177Y-92987167D02*
X124479272Y-92987167D01*
X124479272Y-92987167D02*
X124574510Y-92939548D01*
X124574510Y-92939548D02*
X124622129Y-92891929D01*
X124622129Y-92891929D02*
X124669748Y-92796691D01*
X124669748Y-92796691D02*
X124669748Y-92606215D01*
X124669748Y-92606215D02*
X124622129Y-92510977D01*
X124622129Y-92510977D02*
X124574510Y-92463358D01*
X124574510Y-92463358D02*
X124479272Y-92415739D01*
X131650700Y-91463358D02*
X132650700Y-91463358D01*
X132650700Y-91463358D02*
X132650700Y-91701453D01*
X132650700Y-91701453D02*
X132603081Y-91844310D01*
X132603081Y-91844310D02*
X132507843Y-91939548D01*
X132507843Y-91939548D02*
X132412605Y-91987167D01*
X132412605Y-91987167D02*
X132222129Y-92034786D01*
X132222129Y-92034786D02*
X132079272Y-92034786D01*
X132079272Y-92034786D02*
X131888796Y-91987167D01*
X131888796Y-91987167D02*
X131793558Y-91939548D01*
X131793558Y-91939548D02*
X131698320Y-91844310D01*
X131698320Y-91844310D02*
X131650700Y-91701453D01*
X131650700Y-91701453D02*
X131650700Y-91463358D01*
X132650700Y-92368120D02*
X132650700Y-92987167D01*
X132650700Y-92987167D02*
X132269748Y-92653834D01*
X132269748Y-92653834D02*
X132269748Y-92796691D01*
X132269748Y-92796691D02*
X132222129Y-92891929D01*
X132222129Y-92891929D02*
X132174510Y-92939548D01*
X132174510Y-92939548D02*
X132079272Y-92987167D01*
X132079272Y-92987167D02*
X131841177Y-92987167D01*
X131841177Y-92987167D02*
X131745939Y-92939548D01*
X131745939Y-92939548D02*
X131698320Y-92891929D01*
X131698320Y-92891929D02*
X131650700Y-92796691D01*
X131650700Y-92796691D02*
X131650700Y-92510977D01*
X131650700Y-92510977D02*
X131698320Y-92415739D01*
X131698320Y-92415739D02*
X131745939Y-92368120D01*
X129150700Y-91463358D02*
X130150700Y-91463358D01*
X130150700Y-91463358D02*
X130150700Y-91701453D01*
X130150700Y-91701453D02*
X130103081Y-91844310D01*
X130103081Y-91844310D02*
X130007843Y-91939548D01*
X130007843Y-91939548D02*
X129912605Y-91987167D01*
X129912605Y-91987167D02*
X129722129Y-92034786D01*
X129722129Y-92034786D02*
X129579272Y-92034786D01*
X129579272Y-92034786D02*
X129388796Y-91987167D01*
X129388796Y-91987167D02*
X129293558Y-91939548D01*
X129293558Y-91939548D02*
X129198320Y-91844310D01*
X129198320Y-91844310D02*
X129150700Y-91701453D01*
X129150700Y-91701453D02*
X129150700Y-91463358D01*
X129817367Y-92891929D02*
X129150700Y-92891929D01*
X130198320Y-92653834D02*
X129484034Y-92415739D01*
X129484034Y-92415739D02*
X129484034Y-93034786D01*
X190336415Y-91415739D02*
X190336415Y-91891929D01*
X190050700Y-91320501D02*
X191050700Y-91653834D01*
X191050700Y-91653834D02*
X190050700Y-91987167D01*
X190050700Y-92368120D02*
X190050700Y-92558596D01*
X190050700Y-92558596D02*
X190098320Y-92653834D01*
X190098320Y-92653834D02*
X190145939Y-92701453D01*
X190145939Y-92701453D02*
X190288796Y-92796691D01*
X190288796Y-92796691D02*
X190479272Y-92844310D01*
X190479272Y-92844310D02*
X190860224Y-92844310D01*
X190860224Y-92844310D02*
X190955462Y-92796691D01*
X190955462Y-92796691D02*
X191003081Y-92749072D01*
X191003081Y-92749072D02*
X191050700Y-92653834D01*
X191050700Y-92653834D02*
X191050700Y-92463358D01*
X191050700Y-92463358D02*
X191003081Y-92368120D01*
X191003081Y-92368120D02*
X190955462Y-92320501D01*
X190955462Y-92320501D02*
X190860224Y-92272882D01*
X190860224Y-92272882D02*
X190622129Y-92272882D01*
X190622129Y-92272882D02*
X190526891Y-92320501D01*
X190526891Y-92320501D02*
X190479272Y-92368120D01*
X190479272Y-92368120D02*
X190431653Y-92463358D01*
X190431653Y-92463358D02*
X190431653Y-92653834D01*
X190431653Y-92653834D02*
X190479272Y-92749072D01*
X190479272Y-92749072D02*
X190526891Y-92796691D01*
X190526891Y-92796691D02*
X190622129Y-92844310D01*
D12*
X160012179Y-71180662D02*
X159326465Y-71180662D01*
X159669322Y-71180662D02*
X159669322Y-69980662D01*
X159669322Y-69980662D02*
X159555036Y-70152091D01*
X159555036Y-70152091D02*
X159440751Y-70266377D01*
X159440751Y-70266377D02*
X159326465Y-70323520D01*
D10*
X175136415Y-91415739D02*
X175136415Y-91891929D01*
X174850700Y-91320501D02*
X175850700Y-91653834D01*
X175850700Y-91653834D02*
X174850700Y-91987167D01*
X175850700Y-92225263D02*
X175850700Y-92844310D01*
X175850700Y-92844310D02*
X175469748Y-92510977D01*
X175469748Y-92510977D02*
X175469748Y-92653834D01*
X175469748Y-92653834D02*
X175422129Y-92749072D01*
X175422129Y-92749072D02*
X175374510Y-92796691D01*
X175374510Y-92796691D02*
X175279272Y-92844310D01*
X175279272Y-92844310D02*
X175041177Y-92844310D01*
X175041177Y-92844310D02*
X174945939Y-92796691D01*
X174945939Y-92796691D02*
X174898320Y-92749072D01*
X174898320Y-92749072D02*
X174850700Y-92653834D01*
X174850700Y-92653834D02*
X174850700Y-92368120D01*
X174850700Y-92368120D02*
X174898320Y-92272882D01*
X174898320Y-92272882D02*
X174945939Y-92225263D01*
X200336415Y-91415739D02*
X200336415Y-91891929D01*
X200050700Y-91320501D02*
X201050700Y-91653834D01*
X201050700Y-91653834D02*
X200050700Y-91987167D01*
X200050700Y-92844310D02*
X200050700Y-92272882D01*
X200050700Y-92558596D02*
X201050700Y-92558596D01*
X201050700Y-92558596D02*
X200907843Y-92463358D01*
X200907843Y-92463358D02*
X200812605Y-92368120D01*
X200812605Y-92368120D02*
X200764986Y-92272882D01*
X201050700Y-93177644D02*
X201050700Y-93796691D01*
X201050700Y-93796691D02*
X200669748Y-93463358D01*
X200669748Y-93463358D02*
X200669748Y-93606215D01*
X200669748Y-93606215D02*
X200622129Y-93701453D01*
X200622129Y-93701453D02*
X200574510Y-93749072D01*
X200574510Y-93749072D02*
X200479272Y-93796691D01*
X200479272Y-93796691D02*
X200241177Y-93796691D01*
X200241177Y-93796691D02*
X200145939Y-93749072D01*
X200145939Y-93749072D02*
X200098320Y-93701453D01*
X200098320Y-93701453D02*
X200050700Y-93606215D01*
X200050700Y-93606215D02*
X200050700Y-93320501D01*
X200050700Y-93320501D02*
X200098320Y-93225263D01*
X200098320Y-93225263D02*
X200145939Y-93177644D01*
X126650700Y-91463358D02*
X127650700Y-91463358D01*
X127650700Y-91463358D02*
X127650700Y-91701453D01*
X127650700Y-91701453D02*
X127603081Y-91844310D01*
X127603081Y-91844310D02*
X127507843Y-91939548D01*
X127507843Y-91939548D02*
X127412605Y-91987167D01*
X127412605Y-91987167D02*
X127222129Y-92034786D01*
X127222129Y-92034786D02*
X127079272Y-92034786D01*
X127079272Y-92034786D02*
X126888796Y-91987167D01*
X126888796Y-91987167D02*
X126793558Y-91939548D01*
X126793558Y-91939548D02*
X126698320Y-91844310D01*
X126698320Y-91844310D02*
X126650700Y-91701453D01*
X126650700Y-91701453D02*
X126650700Y-91463358D01*
X127650700Y-92939548D02*
X127650700Y-92463358D01*
X127650700Y-92463358D02*
X127174510Y-92415739D01*
X127174510Y-92415739D02*
X127222129Y-92463358D01*
X127222129Y-92463358D02*
X127269748Y-92558596D01*
X127269748Y-92558596D02*
X127269748Y-92796691D01*
X127269748Y-92796691D02*
X127222129Y-92891929D01*
X127222129Y-92891929D02*
X127174510Y-92939548D01*
X127174510Y-92939548D02*
X127079272Y-92987167D01*
X127079272Y-92987167D02*
X126841177Y-92987167D01*
X126841177Y-92987167D02*
X126745939Y-92939548D01*
X126745939Y-92939548D02*
X126698320Y-92891929D01*
X126698320Y-92891929D02*
X126650700Y-92796691D01*
X126650700Y-92796691D02*
X126650700Y-92558596D01*
X126650700Y-92558596D02*
X126698320Y-92463358D01*
X126698320Y-92463358D02*
X126745939Y-92415739D01*
X165703081Y-91987167D02*
X165750700Y-91891929D01*
X165750700Y-91891929D02*
X165750700Y-91749072D01*
X165750700Y-91749072D02*
X165703081Y-91606215D01*
X165703081Y-91606215D02*
X165607843Y-91510977D01*
X165607843Y-91510977D02*
X165512605Y-91463358D01*
X165512605Y-91463358D02*
X165322129Y-91415739D01*
X165322129Y-91415739D02*
X165179272Y-91415739D01*
X165179272Y-91415739D02*
X164988796Y-91463358D01*
X164988796Y-91463358D02*
X164893558Y-91510977D01*
X164893558Y-91510977D02*
X164798320Y-91606215D01*
X164798320Y-91606215D02*
X164750700Y-91749072D01*
X164750700Y-91749072D02*
X164750700Y-91844310D01*
X164750700Y-91844310D02*
X164798320Y-91987167D01*
X164798320Y-91987167D02*
X164845939Y-92034786D01*
X164845939Y-92034786D02*
X165179272Y-92034786D01*
X165179272Y-92034786D02*
X165179272Y-91844310D01*
X164750700Y-92463358D02*
X165750700Y-92463358D01*
X165750700Y-92463358D02*
X164750700Y-93034786D01*
X164750700Y-93034786D02*
X165750700Y-93034786D01*
X164750700Y-93510977D02*
X165750700Y-93510977D01*
X165750700Y-93510977D02*
X165750700Y-93749072D01*
X165750700Y-93749072D02*
X165703081Y-93891929D01*
X165703081Y-93891929D02*
X165607843Y-93987167D01*
X165607843Y-93987167D02*
X165512605Y-94034786D01*
X165512605Y-94034786D02*
X165322129Y-94082405D01*
X165322129Y-94082405D02*
X165179272Y-94082405D01*
X165179272Y-94082405D02*
X164988796Y-94034786D01*
X164988796Y-94034786D02*
X164893558Y-93987167D01*
X164893558Y-93987167D02*
X164798320Y-93891929D01*
X164798320Y-93891929D02*
X164750700Y-93749072D01*
X164750700Y-93749072D02*
X164750700Y-93510977D01*
D13*
X184141541Y-73809819D02*
X184808207Y-73809819D01*
X184808207Y-73809819D02*
X184379636Y-74809819D01*
X185617731Y-74143152D02*
X185617731Y-74809819D01*
X185379636Y-73762200D02*
X185141541Y-74476485D01*
X185141541Y-74476485D02*
X185760588Y-74476485D01*
X186617731Y-74809819D02*
X186141541Y-74809819D01*
X186141541Y-74809819D02*
X186141541Y-73809819D01*
X186903446Y-74762200D02*
X187046303Y-74809819D01*
X187046303Y-74809819D02*
X187284398Y-74809819D01*
X187284398Y-74809819D02*
X187379636Y-74762200D01*
X187379636Y-74762200D02*
X187427255Y-74714580D01*
X187427255Y-74714580D02*
X187474874Y-74619342D01*
X187474874Y-74619342D02*
X187474874Y-74524104D01*
X187474874Y-74524104D02*
X187427255Y-74428866D01*
X187427255Y-74428866D02*
X187379636Y-74381247D01*
X187379636Y-74381247D02*
X187284398Y-74333628D01*
X187284398Y-74333628D02*
X187093922Y-74286009D01*
X187093922Y-74286009D02*
X186998684Y-74238390D01*
X186998684Y-74238390D02*
X186951065Y-74190771D01*
X186951065Y-74190771D02*
X186903446Y-74095533D01*
X186903446Y-74095533D02*
X186903446Y-74000295D01*
X186903446Y-74000295D02*
X186951065Y-73905057D01*
X186951065Y-73905057D02*
X186998684Y-73857438D01*
X186998684Y-73857438D02*
X187093922Y-73809819D01*
X187093922Y-73809819D02*
X187332017Y-73809819D01*
X187332017Y-73809819D02*
X187474874Y-73857438D01*
X188427255Y-74809819D02*
X187855827Y-74809819D01*
X188141541Y-74809819D02*
X188141541Y-73809819D01*
X188141541Y-73809819D02*
X188046303Y-73952676D01*
X188046303Y-73952676D02*
X187951065Y-74047914D01*
X187951065Y-74047914D02*
X187855827Y-74095533D01*
X188760589Y-73809819D02*
X189379636Y-73809819D01*
X189379636Y-73809819D02*
X189046303Y-74190771D01*
X189046303Y-74190771D02*
X189189160Y-74190771D01*
X189189160Y-74190771D02*
X189284398Y-74238390D01*
X189284398Y-74238390D02*
X189332017Y-74286009D01*
X189332017Y-74286009D02*
X189379636Y-74381247D01*
X189379636Y-74381247D02*
X189379636Y-74619342D01*
X189379636Y-74619342D02*
X189332017Y-74714580D01*
X189332017Y-74714580D02*
X189284398Y-74762200D01*
X189284398Y-74762200D02*
X189189160Y-74809819D01*
X189189160Y-74809819D02*
X188903446Y-74809819D01*
X188903446Y-74809819D02*
X188808208Y-74762200D01*
X188808208Y-74762200D02*
X188760589Y-74714580D01*
X189951065Y-74238390D02*
X189855827Y-74190771D01*
X189855827Y-74190771D02*
X189808208Y-74143152D01*
X189808208Y-74143152D02*
X189760589Y-74047914D01*
X189760589Y-74047914D02*
X189760589Y-74000295D01*
X189760589Y-74000295D02*
X189808208Y-73905057D01*
X189808208Y-73905057D02*
X189855827Y-73857438D01*
X189855827Y-73857438D02*
X189951065Y-73809819D01*
X189951065Y-73809819D02*
X190141541Y-73809819D01*
X190141541Y-73809819D02*
X190236779Y-73857438D01*
X190236779Y-73857438D02*
X190284398Y-73905057D01*
X190284398Y-73905057D02*
X190332017Y-74000295D01*
X190332017Y-74000295D02*
X190332017Y-74047914D01*
X190332017Y-74047914D02*
X190284398Y-74143152D01*
X190284398Y-74143152D02*
X190236779Y-74190771D01*
X190236779Y-74190771D02*
X190141541Y-74238390D01*
X190141541Y-74238390D02*
X189951065Y-74238390D01*
X189951065Y-74238390D02*
X189855827Y-74286009D01*
X189855827Y-74286009D02*
X189808208Y-74333628D01*
X189808208Y-74333628D02*
X189760589Y-74428866D01*
X189760589Y-74428866D02*
X189760589Y-74619342D01*
X189760589Y-74619342D02*
X189808208Y-74714580D01*
X189808208Y-74714580D02*
X189855827Y-74762200D01*
X189855827Y-74762200D02*
X189951065Y-74809819D01*
X189951065Y-74809819D02*
X190141541Y-74809819D01*
X190141541Y-74809819D02*
X190236779Y-74762200D01*
X190236779Y-74762200D02*
X190284398Y-74714580D01*
X190284398Y-74714580D02*
X190332017Y-74619342D01*
X190332017Y-74619342D02*
X190332017Y-74428866D01*
X190332017Y-74428866D02*
X190284398Y-74333628D01*
X190284398Y-74333628D02*
X190236779Y-74286009D01*
X190236779Y-74286009D02*
X190141541Y-74238390D01*
D10*
X157050700Y-90234786D02*
X157526891Y-89901453D01*
X157050700Y-89663358D02*
X158050700Y-89663358D01*
X158050700Y-89663358D02*
X158050700Y-90044310D01*
X158050700Y-90044310D02*
X158003081Y-90139548D01*
X158003081Y-90139548D02*
X157955462Y-90187167D01*
X157955462Y-90187167D02*
X157860224Y-90234786D01*
X157860224Y-90234786D02*
X157717367Y-90234786D01*
X157717367Y-90234786D02*
X157622129Y-90187167D01*
X157622129Y-90187167D02*
X157574510Y-90139548D01*
X157574510Y-90139548D02*
X157526891Y-90044310D01*
X157526891Y-90044310D02*
X157526891Y-89663358D01*
X157574510Y-90663358D02*
X157574510Y-90996691D01*
X157050700Y-91139548D02*
X157050700Y-90663358D01*
X157050700Y-90663358D02*
X158050700Y-90663358D01*
X158050700Y-90663358D02*
X158050700Y-91139548D01*
X157098320Y-91520501D02*
X157050700Y-91663358D01*
X157050700Y-91663358D02*
X157050700Y-91901453D01*
X157050700Y-91901453D02*
X157098320Y-91996691D01*
X157098320Y-91996691D02*
X157145939Y-92044310D01*
X157145939Y-92044310D02*
X157241177Y-92091929D01*
X157241177Y-92091929D02*
X157336415Y-92091929D01*
X157336415Y-92091929D02*
X157431653Y-92044310D01*
X157431653Y-92044310D02*
X157479272Y-91996691D01*
X157479272Y-91996691D02*
X157526891Y-91901453D01*
X157526891Y-91901453D02*
X157574510Y-91710977D01*
X157574510Y-91710977D02*
X157622129Y-91615739D01*
X157622129Y-91615739D02*
X157669748Y-91568120D01*
X157669748Y-91568120D02*
X157764986Y-91520501D01*
X157764986Y-91520501D02*
X157860224Y-91520501D01*
X157860224Y-91520501D02*
X157955462Y-91568120D01*
X157955462Y-91568120D02*
X158003081Y-91615739D01*
X158003081Y-91615739D02*
X158050700Y-91710977D01*
X158050700Y-91710977D02*
X158050700Y-91949072D01*
X158050700Y-91949072D02*
X158003081Y-92091929D01*
X157574510Y-92520501D02*
X157574510Y-92853834D01*
X157050700Y-92996691D02*
X157050700Y-92520501D01*
X157050700Y-92520501D02*
X158050700Y-92520501D01*
X158050700Y-92520501D02*
X158050700Y-92996691D01*
X158050700Y-93282406D02*
X158050700Y-93853834D01*
X157050700Y-93568120D02*
X158050700Y-93568120D01*
X202936415Y-91415739D02*
X202936415Y-91891929D01*
X202650700Y-91320501D02*
X203650700Y-91653834D01*
X203650700Y-91653834D02*
X202650700Y-91987167D01*
X202650700Y-92844310D02*
X202650700Y-92272882D01*
X202650700Y-92558596D02*
X203650700Y-92558596D01*
X203650700Y-92558596D02*
X203507843Y-92463358D01*
X203507843Y-92463358D02*
X203412605Y-92368120D01*
X203412605Y-92368120D02*
X203364986Y-92272882D01*
X203317367Y-93701453D02*
X202650700Y-93701453D01*
X203698320Y-93463358D02*
X202984034Y-93225263D01*
X202984034Y-93225263D02*
X202984034Y-93844310D01*
X141818320Y-90245739D02*
X141770700Y-90388596D01*
X141770700Y-90388596D02*
X141770700Y-90626691D01*
X141770700Y-90626691D02*
X141818320Y-90721929D01*
X141818320Y-90721929D02*
X141865939Y-90769548D01*
X141865939Y-90769548D02*
X141961177Y-90817167D01*
X141961177Y-90817167D02*
X142056415Y-90817167D01*
X142056415Y-90817167D02*
X142151653Y-90769548D01*
X142151653Y-90769548D02*
X142199272Y-90721929D01*
X142199272Y-90721929D02*
X142246891Y-90626691D01*
X142246891Y-90626691D02*
X142294510Y-90436215D01*
X142294510Y-90436215D02*
X142342129Y-90340977D01*
X142342129Y-90340977D02*
X142389748Y-90293358D01*
X142389748Y-90293358D02*
X142484986Y-90245739D01*
X142484986Y-90245739D02*
X142580224Y-90245739D01*
X142580224Y-90245739D02*
X142675462Y-90293358D01*
X142675462Y-90293358D02*
X142723081Y-90340977D01*
X142723081Y-90340977D02*
X142770700Y-90436215D01*
X142770700Y-90436215D02*
X142770700Y-90674310D01*
X142770700Y-90674310D02*
X142723081Y-90817167D01*
X142246891Y-91436215D02*
X141770700Y-91436215D01*
X142770700Y-91102882D02*
X142246891Y-91436215D01*
X142246891Y-91436215D02*
X142770700Y-91769548D01*
X141770700Y-92102882D02*
X142770700Y-92102882D01*
X142770700Y-92102882D02*
X141770700Y-92674310D01*
X141770700Y-92674310D02*
X142770700Y-92674310D01*
X141865939Y-93721929D02*
X141818320Y-93674310D01*
X141818320Y-93674310D02*
X141770700Y-93531453D01*
X141770700Y-93531453D02*
X141770700Y-93436215D01*
X141770700Y-93436215D02*
X141818320Y-93293358D01*
X141818320Y-93293358D02*
X141913558Y-93198120D01*
X141913558Y-93198120D02*
X142008796Y-93150501D01*
X142008796Y-93150501D02*
X142199272Y-93102882D01*
X142199272Y-93102882D02*
X142342129Y-93102882D01*
X142342129Y-93102882D02*
X142532605Y-93150501D01*
X142532605Y-93150501D02*
X142627843Y-93198120D01*
X142627843Y-93198120D02*
X142723081Y-93293358D01*
X142723081Y-93293358D02*
X142770700Y-93436215D01*
X142770700Y-93436215D02*
X142770700Y-93531453D01*
X142770700Y-93531453D02*
X142723081Y-93674310D01*
X142723081Y-93674310D02*
X142675462Y-93721929D01*
X151950700Y-91463358D02*
X152950700Y-91463358D01*
X151950700Y-92510976D02*
X152426891Y-92177643D01*
X151950700Y-91939548D02*
X152950700Y-91939548D01*
X152950700Y-91939548D02*
X152950700Y-92320500D01*
X152950700Y-92320500D02*
X152903081Y-92415738D01*
X152903081Y-92415738D02*
X152855462Y-92463357D01*
X152855462Y-92463357D02*
X152760224Y-92510976D01*
X152760224Y-92510976D02*
X152617367Y-92510976D01*
X152617367Y-92510976D02*
X152522129Y-92463357D01*
X152522129Y-92463357D02*
X152474510Y-92415738D01*
X152474510Y-92415738D02*
X152426891Y-92320500D01*
X152426891Y-92320500D02*
X152426891Y-91939548D01*
X151855462Y-93606214D02*
X151903081Y-93510976D01*
X151903081Y-93510976D02*
X151998320Y-93415738D01*
X151998320Y-93415738D02*
X152141177Y-93272881D01*
X152141177Y-93272881D02*
X152188796Y-93177643D01*
X152188796Y-93177643D02*
X152188796Y-93082405D01*
X151950700Y-93130024D02*
X151998320Y-93034786D01*
X151998320Y-93034786D02*
X152093558Y-92939548D01*
X152093558Y-92939548D02*
X152284034Y-92891929D01*
X152284034Y-92891929D02*
X152617367Y-92891929D01*
X152617367Y-92891929D02*
X152807843Y-92939548D01*
X152807843Y-92939548D02*
X152903081Y-93034786D01*
X152903081Y-93034786D02*
X152950700Y-93130024D01*
X152950700Y-93130024D02*
X152950700Y-93320500D01*
X152950700Y-93320500D02*
X152903081Y-93415738D01*
X152903081Y-93415738D02*
X152807843Y-93510976D01*
X152807843Y-93510976D02*
X152617367Y-93558595D01*
X152617367Y-93558595D02*
X152284034Y-93558595D01*
X152284034Y-93558595D02*
X152093558Y-93510976D01*
X152093558Y-93510976D02*
X151998320Y-93415738D01*
X151998320Y-93415738D02*
X151950700Y-93320500D01*
X151950700Y-93320500D02*
X151950700Y-93130024D01*
D13*
X157609580Y-85986666D02*
X157657200Y-86034285D01*
X157657200Y-86034285D02*
X157704819Y-86177142D01*
X157704819Y-86177142D02*
X157704819Y-86272380D01*
X157704819Y-86272380D02*
X157657200Y-86415237D01*
X157657200Y-86415237D02*
X157561961Y-86510475D01*
X157561961Y-86510475D02*
X157466723Y-86558094D01*
X157466723Y-86558094D02*
X157276247Y-86605713D01*
X157276247Y-86605713D02*
X157133390Y-86605713D01*
X157133390Y-86605713D02*
X156942914Y-86558094D01*
X156942914Y-86558094D02*
X156847676Y-86510475D01*
X156847676Y-86510475D02*
X156752438Y-86415237D01*
X156752438Y-86415237D02*
X156704819Y-86272380D01*
X156704819Y-86272380D02*
X156704819Y-86177142D01*
X156704819Y-86177142D02*
X156752438Y-86034285D01*
X156752438Y-86034285D02*
X156800057Y-85986666D01*
X156800057Y-85605713D02*
X156752438Y-85558094D01*
X156752438Y-85558094D02*
X156704819Y-85462856D01*
X156704819Y-85462856D02*
X156704819Y-85224761D01*
X156704819Y-85224761D02*
X156752438Y-85129523D01*
X156752438Y-85129523D02*
X156800057Y-85081904D01*
X156800057Y-85081904D02*
X156895295Y-85034285D01*
X156895295Y-85034285D02*
X156990533Y-85034285D01*
X156990533Y-85034285D02*
X157133390Y-85081904D01*
X157133390Y-85081904D02*
X157704819Y-85653332D01*
X157704819Y-85653332D02*
X157704819Y-85034285D01*
X157704819Y-83307619D02*
X157704819Y-83879047D01*
X157704819Y-83593333D02*
X156704819Y-83593333D01*
X156704819Y-83593333D02*
X156847676Y-83688571D01*
X156847676Y-83688571D02*
X156942914Y-83783809D01*
X156942914Y-83783809D02*
X156990533Y-83879047D01*
X156704819Y-82688571D02*
X156704819Y-82593333D01*
X156704819Y-82593333D02*
X156752438Y-82498095D01*
X156752438Y-82498095D02*
X156800057Y-82450476D01*
X156800057Y-82450476D02*
X156895295Y-82402857D01*
X156895295Y-82402857D02*
X157085771Y-82355238D01*
X157085771Y-82355238D02*
X157323866Y-82355238D01*
X157323866Y-82355238D02*
X157514342Y-82402857D01*
X157514342Y-82402857D02*
X157609580Y-82450476D01*
X157609580Y-82450476D02*
X157657200Y-82498095D01*
X157657200Y-82498095D02*
X157704819Y-82593333D01*
X157704819Y-82593333D02*
X157704819Y-82688571D01*
X157704819Y-82688571D02*
X157657200Y-82783809D01*
X157657200Y-82783809D02*
X157609580Y-82831428D01*
X157609580Y-82831428D02*
X157514342Y-82879047D01*
X157514342Y-82879047D02*
X157323866Y-82926666D01*
X157323866Y-82926666D02*
X157085771Y-82926666D01*
X157085771Y-82926666D02*
X156895295Y-82879047D01*
X156895295Y-82879047D02*
X156800057Y-82831428D01*
X156800057Y-82831428D02*
X156752438Y-82783809D01*
X156752438Y-82783809D02*
X156704819Y-82688571D01*
X156704819Y-81736190D02*
X156704819Y-81640952D01*
X156704819Y-81640952D02*
X156752438Y-81545714D01*
X156752438Y-81545714D02*
X156800057Y-81498095D01*
X156800057Y-81498095D02*
X156895295Y-81450476D01*
X156895295Y-81450476D02*
X157085771Y-81402857D01*
X157085771Y-81402857D02*
X157323866Y-81402857D01*
X157323866Y-81402857D02*
X157514342Y-81450476D01*
X157514342Y-81450476D02*
X157609580Y-81498095D01*
X157609580Y-81498095D02*
X157657200Y-81545714D01*
X157657200Y-81545714D02*
X157704819Y-81640952D01*
X157704819Y-81640952D02*
X157704819Y-81736190D01*
X157704819Y-81736190D02*
X157657200Y-81831428D01*
X157657200Y-81831428D02*
X157609580Y-81879047D01*
X157609580Y-81879047D02*
X157514342Y-81926666D01*
X157514342Y-81926666D02*
X157323866Y-81974285D01*
X157323866Y-81974285D02*
X157085771Y-81974285D01*
X157085771Y-81974285D02*
X156895295Y-81926666D01*
X156895295Y-81926666D02*
X156800057Y-81879047D01*
X156800057Y-81879047D02*
X156752438Y-81831428D01*
X156752438Y-81831428D02*
X156704819Y-81736190D01*
X157038152Y-80974285D02*
X157704819Y-80974285D01*
X157133390Y-80974285D02*
X157085771Y-80926666D01*
X157085771Y-80926666D02*
X157038152Y-80831428D01*
X157038152Y-80831428D02*
X157038152Y-80688571D01*
X157038152Y-80688571D02*
X157085771Y-80593333D01*
X157085771Y-80593333D02*
X157181009Y-80545714D01*
X157181009Y-80545714D02*
X157704819Y-80545714D01*
X157181009Y-79736190D02*
X157181009Y-80069523D01*
X157704819Y-80069523D02*
X156704819Y-80069523D01*
X156704819Y-80069523D02*
X156704819Y-79593333D01*
X164986666Y-72924819D02*
X164986666Y-73639104D01*
X164986666Y-73639104D02*
X164939047Y-73781961D01*
X164939047Y-73781961D02*
X164843809Y-73877200D01*
X164843809Y-73877200D02*
X164700952Y-73924819D01*
X164700952Y-73924819D02*
X164605714Y-73924819D01*
X165462857Y-73924819D02*
X165462857Y-72924819D01*
X165462857Y-72924819D02*
X165843809Y-72924819D01*
X165843809Y-72924819D02*
X165939047Y-72972438D01*
X165939047Y-72972438D02*
X165986666Y-73020057D01*
X165986666Y-73020057D02*
X166034285Y-73115295D01*
X166034285Y-73115295D02*
X166034285Y-73258152D01*
X166034285Y-73258152D02*
X165986666Y-73353390D01*
X165986666Y-73353390D02*
X165939047Y-73401009D01*
X165939047Y-73401009D02*
X165843809Y-73448628D01*
X165843809Y-73448628D02*
X165462857Y-73448628D01*
X166986666Y-73924819D02*
X166415238Y-73924819D01*
X166700952Y-73924819D02*
X166700952Y-72924819D01*
X166700952Y-72924819D02*
X166605714Y-73067676D01*
X166605714Y-73067676D02*
X166510476Y-73162914D01*
X166510476Y-73162914D02*
X166415238Y-73210533D01*
X205059580Y-85106666D02*
X205107200Y-85154285D01*
X205107200Y-85154285D02*
X205154819Y-85297142D01*
X205154819Y-85297142D02*
X205154819Y-85392380D01*
X205154819Y-85392380D02*
X205107200Y-85535237D01*
X205107200Y-85535237D02*
X205011961Y-85630475D01*
X205011961Y-85630475D02*
X204916723Y-85678094D01*
X204916723Y-85678094D02*
X204726247Y-85725713D01*
X204726247Y-85725713D02*
X204583390Y-85725713D01*
X204583390Y-85725713D02*
X204392914Y-85678094D01*
X204392914Y-85678094D02*
X204297676Y-85630475D01*
X204297676Y-85630475D02*
X204202438Y-85535237D01*
X204202438Y-85535237D02*
X204154819Y-85392380D01*
X204154819Y-85392380D02*
X204154819Y-85297142D01*
X204154819Y-85297142D02*
X204202438Y-85154285D01*
X204202438Y-85154285D02*
X204250057Y-85106666D01*
X204154819Y-84773332D02*
X204154819Y-84154285D01*
X204154819Y-84154285D02*
X204535771Y-84487618D01*
X204535771Y-84487618D02*
X204535771Y-84344761D01*
X204535771Y-84344761D02*
X204583390Y-84249523D01*
X204583390Y-84249523D02*
X204631009Y-84201904D01*
X204631009Y-84201904D02*
X204726247Y-84154285D01*
X204726247Y-84154285D02*
X204964342Y-84154285D01*
X204964342Y-84154285D02*
X205059580Y-84201904D01*
X205059580Y-84201904D02*
X205107200Y-84249523D01*
X205107200Y-84249523D02*
X205154819Y-84344761D01*
X205154819Y-84344761D02*
X205154819Y-84630475D01*
X205154819Y-84630475D02*
X205107200Y-84725713D01*
X205107200Y-84725713D02*
X205059580Y-84773332D01*
X205154819Y-82437619D02*
X205154819Y-83009047D01*
X205154819Y-82723333D02*
X204154819Y-82723333D01*
X204154819Y-82723333D02*
X204297676Y-82818571D01*
X204297676Y-82818571D02*
X204392914Y-82913809D01*
X204392914Y-82913809D02*
X204440533Y-83009047D01*
X204154819Y-81818571D02*
X204154819Y-81723333D01*
X204154819Y-81723333D02*
X204202438Y-81628095D01*
X204202438Y-81628095D02*
X204250057Y-81580476D01*
X204250057Y-81580476D02*
X204345295Y-81532857D01*
X204345295Y-81532857D02*
X204535771Y-81485238D01*
X204535771Y-81485238D02*
X204773866Y-81485238D01*
X204773866Y-81485238D02*
X204964342Y-81532857D01*
X204964342Y-81532857D02*
X205059580Y-81580476D01*
X205059580Y-81580476D02*
X205107200Y-81628095D01*
X205107200Y-81628095D02*
X205154819Y-81723333D01*
X205154819Y-81723333D02*
X205154819Y-81818571D01*
X205154819Y-81818571D02*
X205107200Y-81913809D01*
X205107200Y-81913809D02*
X205059580Y-81961428D01*
X205059580Y-81961428D02*
X204964342Y-82009047D01*
X204964342Y-82009047D02*
X204773866Y-82056666D01*
X204773866Y-82056666D02*
X204535771Y-82056666D01*
X204535771Y-82056666D02*
X204345295Y-82009047D01*
X204345295Y-82009047D02*
X204250057Y-81961428D01*
X204250057Y-81961428D02*
X204202438Y-81913809D01*
X204202438Y-81913809D02*
X204154819Y-81818571D01*
X204154819Y-80866190D02*
X204154819Y-80770952D01*
X204154819Y-80770952D02*
X204202438Y-80675714D01*
X204202438Y-80675714D02*
X204250057Y-80628095D01*
X204250057Y-80628095D02*
X204345295Y-80580476D01*
X204345295Y-80580476D02*
X204535771Y-80532857D01*
X204535771Y-80532857D02*
X204773866Y-80532857D01*
X204773866Y-80532857D02*
X204964342Y-80580476D01*
X204964342Y-80580476D02*
X205059580Y-80628095D01*
X205059580Y-80628095D02*
X205107200Y-80675714D01*
X205107200Y-80675714D02*
X205154819Y-80770952D01*
X205154819Y-80770952D02*
X205154819Y-80866190D01*
X205154819Y-80866190D02*
X205107200Y-80961428D01*
X205107200Y-80961428D02*
X205059580Y-81009047D01*
X205059580Y-81009047D02*
X204964342Y-81056666D01*
X204964342Y-81056666D02*
X204773866Y-81104285D01*
X204773866Y-81104285D02*
X204535771Y-81104285D01*
X204535771Y-81104285D02*
X204345295Y-81056666D01*
X204345295Y-81056666D02*
X204250057Y-81009047D01*
X204250057Y-81009047D02*
X204202438Y-80961428D01*
X204202438Y-80961428D02*
X204154819Y-80866190D01*
X204488152Y-80104285D02*
X205154819Y-80104285D01*
X204583390Y-80104285D02*
X204535771Y-80056666D01*
X204535771Y-80056666D02*
X204488152Y-79961428D01*
X204488152Y-79961428D02*
X204488152Y-79818571D01*
X204488152Y-79818571D02*
X204535771Y-79723333D01*
X204535771Y-79723333D02*
X204631009Y-79675714D01*
X204631009Y-79675714D02*
X205154819Y-79675714D01*
X204631009Y-78866190D02*
X204631009Y-79199523D01*
X205154819Y-79199523D02*
X204154819Y-79199523D01*
X204154819Y-79199523D02*
X204154819Y-78723333D01*
X199668095Y-76714819D02*
X199668095Y-77524342D01*
X199668095Y-77524342D02*
X199715714Y-77619580D01*
X199715714Y-77619580D02*
X199763333Y-77667200D01*
X199763333Y-77667200D02*
X199858571Y-77714819D01*
X199858571Y-77714819D02*
X200049047Y-77714819D01*
X200049047Y-77714819D02*
X200144285Y-77667200D01*
X200144285Y-77667200D02*
X200191904Y-77619580D01*
X200191904Y-77619580D02*
X200239523Y-77524342D01*
X200239523Y-77524342D02*
X200239523Y-76714819D01*
X201239523Y-77714819D02*
X200668095Y-77714819D01*
X200953809Y-77714819D02*
X200953809Y-76714819D01*
X200953809Y-76714819D02*
X200858571Y-76857676D01*
X200858571Y-76857676D02*
X200763333Y-76952914D01*
X200763333Y-76952914D02*
X200668095Y-77000533D01*
X152158095Y-70124819D02*
X152158095Y-70934342D01*
X152158095Y-70934342D02*
X152205714Y-71029580D01*
X152205714Y-71029580D02*
X152253333Y-71077200D01*
X152253333Y-71077200D02*
X152348571Y-71124819D01*
X152348571Y-71124819D02*
X152539047Y-71124819D01*
X152539047Y-71124819D02*
X152634285Y-71077200D01*
X152634285Y-71077200D02*
X152681904Y-71029580D01*
X152681904Y-71029580D02*
X152729523Y-70934342D01*
X152729523Y-70934342D02*
X152729523Y-70124819D01*
X153158095Y-70220057D02*
X153205714Y-70172438D01*
X153205714Y-70172438D02*
X153300952Y-70124819D01*
X153300952Y-70124819D02*
X153539047Y-70124819D01*
X153539047Y-70124819D02*
X153634285Y-70172438D01*
X153634285Y-70172438D02*
X153681904Y-70220057D01*
X153681904Y-70220057D02*
X153729523Y-70315295D01*
X153729523Y-70315295D02*
X153729523Y-70410533D01*
X153729523Y-70410533D02*
X153681904Y-70553390D01*
X153681904Y-70553390D02*
X153110476Y-71124819D01*
X153110476Y-71124819D02*
X153729523Y-71124819D01*
X111514819Y-89921428D02*
X112514819Y-89683333D01*
X112514819Y-89683333D02*
X111800533Y-89492857D01*
X111800533Y-89492857D02*
X112514819Y-89302381D01*
X112514819Y-89302381D02*
X111514819Y-89064286D01*
X111610057Y-88730952D02*
X111562438Y-88683333D01*
X111562438Y-88683333D02*
X111514819Y-88588095D01*
X111514819Y-88588095D02*
X111514819Y-88350000D01*
X111514819Y-88350000D02*
X111562438Y-88254762D01*
X111562438Y-88254762D02*
X111610057Y-88207143D01*
X111610057Y-88207143D02*
X111705295Y-88159524D01*
X111705295Y-88159524D02*
X111800533Y-88159524D01*
X111800533Y-88159524D02*
X111943390Y-88207143D01*
X111943390Y-88207143D02*
X112514819Y-88778571D01*
X112514819Y-88778571D02*
X112514819Y-88159524D01*
X111514819Y-87826190D02*
X111514819Y-87159524D01*
X111514819Y-87159524D02*
X112514819Y-87588095D01*
X111991009Y-86778571D02*
X111991009Y-86445238D01*
X112514819Y-86302381D02*
X112514819Y-86778571D01*
X112514819Y-86778571D02*
X111514819Y-86778571D01*
X111514819Y-86778571D02*
X111514819Y-86302381D01*
X111610057Y-85921428D02*
X111562438Y-85873809D01*
X111562438Y-85873809D02*
X111514819Y-85778571D01*
X111514819Y-85778571D02*
X111514819Y-85540476D01*
X111514819Y-85540476D02*
X111562438Y-85445238D01*
X111562438Y-85445238D02*
X111610057Y-85397619D01*
X111610057Y-85397619D02*
X111705295Y-85350000D01*
X111705295Y-85350000D02*
X111800533Y-85350000D01*
X111800533Y-85350000D02*
X111943390Y-85397619D01*
X111943390Y-85397619D02*
X112514819Y-85969047D01*
X112514819Y-85969047D02*
X112514819Y-85350000D01*
X111514819Y-84445238D02*
X111514819Y-84921428D01*
X111514819Y-84921428D02*
X111991009Y-84969047D01*
X111991009Y-84969047D02*
X111943390Y-84921428D01*
X111943390Y-84921428D02*
X111895771Y-84826190D01*
X111895771Y-84826190D02*
X111895771Y-84588095D01*
X111895771Y-84588095D02*
X111943390Y-84492857D01*
X111943390Y-84492857D02*
X111991009Y-84445238D01*
X111991009Y-84445238D02*
X112086247Y-84397619D01*
X112086247Y-84397619D02*
X112324342Y-84397619D01*
X112324342Y-84397619D02*
X112419580Y-84445238D01*
X112419580Y-84445238D02*
X112467200Y-84492857D01*
X112467200Y-84492857D02*
X112514819Y-84588095D01*
X112514819Y-84588095D02*
X112514819Y-84826190D01*
X112514819Y-84826190D02*
X112467200Y-84921428D01*
X112467200Y-84921428D02*
X112419580Y-84969047D01*
X111514819Y-84064285D02*
X111514819Y-83397619D01*
X111514819Y-83397619D02*
X112514819Y-83826190D01*
X112467200Y-82969047D02*
X112514819Y-82969047D01*
X112514819Y-82969047D02*
X112610057Y-83016666D01*
X112610057Y-83016666D02*
X112657676Y-83064285D01*
X111610057Y-81826190D02*
X111562438Y-81778571D01*
X111562438Y-81778571D02*
X111514819Y-81683333D01*
X111514819Y-81683333D02*
X111514819Y-81445238D01*
X111514819Y-81445238D02*
X111562438Y-81350000D01*
X111562438Y-81350000D02*
X111610057Y-81302381D01*
X111610057Y-81302381D02*
X111705295Y-81254762D01*
X111705295Y-81254762D02*
X111800533Y-81254762D01*
X111800533Y-81254762D02*
X111943390Y-81302381D01*
X111943390Y-81302381D02*
X112514819Y-81873809D01*
X112514819Y-81873809D02*
X112514819Y-81254762D01*
X111514819Y-80921428D02*
X111514819Y-80254762D01*
X111514819Y-80254762D02*
X112514819Y-80683333D01*
X112419580Y-79302381D02*
X112467200Y-79350000D01*
X112467200Y-79350000D02*
X112514819Y-79492857D01*
X112514819Y-79492857D02*
X112514819Y-79588095D01*
X112514819Y-79588095D02*
X112467200Y-79730952D01*
X112467200Y-79730952D02*
X112371961Y-79826190D01*
X112371961Y-79826190D02*
X112276723Y-79873809D01*
X112276723Y-79873809D02*
X112086247Y-79921428D01*
X112086247Y-79921428D02*
X111943390Y-79921428D01*
X111943390Y-79921428D02*
X111752914Y-79873809D01*
X111752914Y-79873809D02*
X111657676Y-79826190D01*
X111657676Y-79826190D02*
X111562438Y-79730952D01*
X111562438Y-79730952D02*
X111514819Y-79588095D01*
X111514819Y-79588095D02*
X111514819Y-79492857D01*
X111514819Y-79492857D02*
X111562438Y-79350000D01*
X111562438Y-79350000D02*
X111610057Y-79302381D01*
X111610057Y-78921428D02*
X111562438Y-78873809D01*
X111562438Y-78873809D02*
X111514819Y-78778571D01*
X111514819Y-78778571D02*
X111514819Y-78540476D01*
X111514819Y-78540476D02*
X111562438Y-78445238D01*
X111562438Y-78445238D02*
X111610057Y-78397619D01*
X111610057Y-78397619D02*
X111705295Y-78350000D01*
X111705295Y-78350000D02*
X111800533Y-78350000D01*
X111800533Y-78350000D02*
X111943390Y-78397619D01*
X111943390Y-78397619D02*
X112514819Y-78969047D01*
X112514819Y-78969047D02*
X112514819Y-78350000D01*
X111514819Y-77445238D02*
X111514819Y-77921428D01*
X111514819Y-77921428D02*
X111991009Y-77969047D01*
X111991009Y-77969047D02*
X111943390Y-77921428D01*
X111943390Y-77921428D02*
X111895771Y-77826190D01*
X111895771Y-77826190D02*
X111895771Y-77588095D01*
X111895771Y-77588095D02*
X111943390Y-77492857D01*
X111943390Y-77492857D02*
X111991009Y-77445238D01*
X111991009Y-77445238D02*
X112086247Y-77397619D01*
X112086247Y-77397619D02*
X112324342Y-77397619D01*
X112324342Y-77397619D02*
X112419580Y-77445238D01*
X112419580Y-77445238D02*
X112467200Y-77492857D01*
X112467200Y-77492857D02*
X112514819Y-77588095D01*
X112514819Y-77588095D02*
X112514819Y-77826190D01*
X112514819Y-77826190D02*
X112467200Y-77921428D01*
X112467200Y-77921428D02*
X112419580Y-77969047D01*
X111514819Y-76540476D02*
X111514819Y-76730952D01*
X111514819Y-76730952D02*
X111562438Y-76826190D01*
X111562438Y-76826190D02*
X111610057Y-76873809D01*
X111610057Y-76873809D02*
X111752914Y-76969047D01*
X111752914Y-76969047D02*
X111943390Y-77016666D01*
X111943390Y-77016666D02*
X112324342Y-77016666D01*
X112324342Y-77016666D02*
X112419580Y-76969047D01*
X112419580Y-76969047D02*
X112467200Y-76921428D01*
X112467200Y-76921428D02*
X112514819Y-76826190D01*
X112514819Y-76826190D02*
X112514819Y-76635714D01*
X112514819Y-76635714D02*
X112467200Y-76540476D01*
X112467200Y-76540476D02*
X112419580Y-76492857D01*
X112419580Y-76492857D02*
X112324342Y-76445238D01*
X112324342Y-76445238D02*
X112086247Y-76445238D01*
X112086247Y-76445238D02*
X111991009Y-76492857D01*
X111991009Y-76492857D02*
X111943390Y-76540476D01*
X111943390Y-76540476D02*
X111895771Y-76635714D01*
X111895771Y-76635714D02*
X111895771Y-76826190D01*
X111895771Y-76826190D02*
X111943390Y-76921428D01*
X111943390Y-76921428D02*
X111991009Y-76969047D01*
X111991009Y-76969047D02*
X112086247Y-77016666D01*
X112467200Y-75969047D02*
X112514819Y-75969047D01*
X112514819Y-75969047D02*
X112610057Y-76016666D01*
X112610057Y-76016666D02*
X112657676Y-76064285D01*
X112229104Y-74826190D02*
X112229104Y-74350000D01*
X112514819Y-74921428D02*
X111514819Y-74588095D01*
X111514819Y-74588095D02*
X112514819Y-74254762D01*
X111514819Y-74064285D02*
X111514819Y-73492857D01*
X112514819Y-73778571D02*
X111514819Y-73778571D01*
X111610057Y-73207142D02*
X111562438Y-73159523D01*
X111562438Y-73159523D02*
X111514819Y-73064285D01*
X111514819Y-73064285D02*
X111514819Y-72826190D01*
X111514819Y-72826190D02*
X111562438Y-72730952D01*
X111562438Y-72730952D02*
X111610057Y-72683333D01*
X111610057Y-72683333D02*
X111705295Y-72635714D01*
X111705295Y-72635714D02*
X111800533Y-72635714D01*
X111800533Y-72635714D02*
X111943390Y-72683333D01*
X111943390Y-72683333D02*
X112514819Y-73254761D01*
X112514819Y-73254761D02*
X112514819Y-72635714D01*
X111943390Y-72064285D02*
X111895771Y-72159523D01*
X111895771Y-72159523D02*
X111848152Y-72207142D01*
X111848152Y-72207142D02*
X111752914Y-72254761D01*
X111752914Y-72254761D02*
X111705295Y-72254761D01*
X111705295Y-72254761D02*
X111610057Y-72207142D01*
X111610057Y-72207142D02*
X111562438Y-72159523D01*
X111562438Y-72159523D02*
X111514819Y-72064285D01*
X111514819Y-72064285D02*
X111514819Y-71873809D01*
X111514819Y-71873809D02*
X111562438Y-71778571D01*
X111562438Y-71778571D02*
X111610057Y-71730952D01*
X111610057Y-71730952D02*
X111705295Y-71683333D01*
X111705295Y-71683333D02*
X111752914Y-71683333D01*
X111752914Y-71683333D02*
X111848152Y-71730952D01*
X111848152Y-71730952D02*
X111895771Y-71778571D01*
X111895771Y-71778571D02*
X111943390Y-71873809D01*
X111943390Y-71873809D02*
X111943390Y-72064285D01*
X111943390Y-72064285D02*
X111991009Y-72159523D01*
X111991009Y-72159523D02*
X112038628Y-72207142D01*
X112038628Y-72207142D02*
X112133866Y-72254761D01*
X112133866Y-72254761D02*
X112324342Y-72254761D01*
X112324342Y-72254761D02*
X112419580Y-72207142D01*
X112419580Y-72207142D02*
X112467200Y-72159523D01*
X112467200Y-72159523D02*
X112514819Y-72064285D01*
X112514819Y-72064285D02*
X112514819Y-71873809D01*
X112514819Y-71873809D02*
X112467200Y-71778571D01*
X112467200Y-71778571D02*
X112419580Y-71730952D01*
X112419580Y-71730952D02*
X112324342Y-71683333D01*
X112324342Y-71683333D02*
X112133866Y-71683333D01*
X112133866Y-71683333D02*
X112038628Y-71730952D01*
X112038628Y-71730952D02*
X111991009Y-71778571D01*
X111991009Y-71778571D02*
X111943390Y-71873809D01*
X112419580Y-70683333D02*
X112467200Y-70730952D01*
X112467200Y-70730952D02*
X112514819Y-70873809D01*
X112514819Y-70873809D02*
X112514819Y-70969047D01*
X112514819Y-70969047D02*
X112467200Y-71111904D01*
X112467200Y-71111904D02*
X112371961Y-71207142D01*
X112371961Y-71207142D02*
X112276723Y-71254761D01*
X112276723Y-71254761D02*
X112086247Y-71302380D01*
X112086247Y-71302380D02*
X111943390Y-71302380D01*
X111943390Y-71302380D02*
X111752914Y-71254761D01*
X111752914Y-71254761D02*
X111657676Y-71207142D01*
X111657676Y-71207142D02*
X111562438Y-71111904D01*
X111562438Y-71111904D02*
X111514819Y-70969047D01*
X111514819Y-70969047D02*
X111514819Y-70873809D01*
X111514819Y-70873809D02*
X111562438Y-70730952D01*
X111562438Y-70730952D02*
X111610057Y-70683333D01*
X111610057Y-70302380D02*
X111562438Y-70254761D01*
X111562438Y-70254761D02*
X111514819Y-70159523D01*
X111514819Y-70159523D02*
X111514819Y-69921428D01*
X111514819Y-69921428D02*
X111562438Y-69826190D01*
X111562438Y-69826190D02*
X111610057Y-69778571D01*
X111610057Y-69778571D02*
X111705295Y-69730952D01*
X111705295Y-69730952D02*
X111800533Y-69730952D01*
X111800533Y-69730952D02*
X111943390Y-69778571D01*
X111943390Y-69778571D02*
X112514819Y-70349999D01*
X112514819Y-70349999D02*
X112514819Y-69730952D01*
X111514819Y-68826190D02*
X111514819Y-69302380D01*
X111514819Y-69302380D02*
X111991009Y-69349999D01*
X111991009Y-69349999D02*
X111943390Y-69302380D01*
X111943390Y-69302380D02*
X111895771Y-69207142D01*
X111895771Y-69207142D02*
X111895771Y-68969047D01*
X111895771Y-68969047D02*
X111943390Y-68873809D01*
X111943390Y-68873809D02*
X111991009Y-68826190D01*
X111991009Y-68826190D02*
X112086247Y-68778571D01*
X112086247Y-68778571D02*
X112324342Y-68778571D01*
X112324342Y-68778571D02*
X112419580Y-68826190D01*
X112419580Y-68826190D02*
X112467200Y-68873809D01*
X112467200Y-68873809D02*
X112514819Y-68969047D01*
X112514819Y-68969047D02*
X112514819Y-69207142D01*
X112514819Y-69207142D02*
X112467200Y-69302380D01*
X112467200Y-69302380D02*
X112419580Y-69349999D01*
X111514819Y-67921428D02*
X111514819Y-68111904D01*
X111514819Y-68111904D02*
X111562438Y-68207142D01*
X111562438Y-68207142D02*
X111610057Y-68254761D01*
X111610057Y-68254761D02*
X111752914Y-68349999D01*
X111752914Y-68349999D02*
X111943390Y-68397618D01*
X111943390Y-68397618D02*
X112324342Y-68397618D01*
X112324342Y-68397618D02*
X112419580Y-68349999D01*
X112419580Y-68349999D02*
X112467200Y-68302380D01*
X112467200Y-68302380D02*
X112514819Y-68207142D01*
X112514819Y-68207142D02*
X112514819Y-68016666D01*
X112514819Y-68016666D02*
X112467200Y-67921428D01*
X112467200Y-67921428D02*
X112419580Y-67873809D01*
X112419580Y-67873809D02*
X112324342Y-67826190D01*
X112324342Y-67826190D02*
X112086247Y-67826190D01*
X112086247Y-67826190D02*
X111991009Y-67873809D01*
X111991009Y-67873809D02*
X111943390Y-67921428D01*
X111943390Y-67921428D02*
X111895771Y-68016666D01*
X111895771Y-68016666D02*
X111895771Y-68207142D01*
X111895771Y-68207142D02*
X111943390Y-68302380D01*
X111943390Y-68302380D02*
X111991009Y-68349999D01*
X111991009Y-68349999D02*
X112086247Y-68397618D01*
X109886666Y-92014819D02*
X109886666Y-92729104D01*
X109886666Y-92729104D02*
X109839047Y-92871961D01*
X109839047Y-92871961D02*
X109743809Y-92967200D01*
X109743809Y-92967200D02*
X109600952Y-93014819D01*
X109600952Y-93014819D02*
X109505714Y-93014819D01*
X110886666Y-93014819D02*
X110315238Y-93014819D01*
X110600952Y-93014819D02*
X110600952Y-92014819D01*
X110600952Y-92014819D02*
X110505714Y-92157676D01*
X110505714Y-92157676D02*
X110410476Y-92252914D01*
X110410476Y-92252914D02*
X110315238Y-92300533D01*
X161570954Y-83289580D02*
X161523335Y-83337200D01*
X161523335Y-83337200D02*
X161380478Y-83384819D01*
X161380478Y-83384819D02*
X161285240Y-83384819D01*
X161285240Y-83384819D02*
X161142383Y-83337200D01*
X161142383Y-83337200D02*
X161047145Y-83241961D01*
X161047145Y-83241961D02*
X160999526Y-83146723D01*
X160999526Y-83146723D02*
X160951907Y-82956247D01*
X160951907Y-82956247D02*
X160951907Y-82813390D01*
X160951907Y-82813390D02*
X160999526Y-82622914D01*
X160999526Y-82622914D02*
X161047145Y-82527676D01*
X161047145Y-82527676D02*
X161142383Y-82432438D01*
X161142383Y-82432438D02*
X161285240Y-82384819D01*
X161285240Y-82384819D02*
X161380478Y-82384819D01*
X161380478Y-82384819D02*
X161523335Y-82432438D01*
X161523335Y-82432438D02*
X161570954Y-82480057D01*
X162523335Y-83384819D02*
X161951907Y-83384819D01*
X162237621Y-83384819D02*
X162237621Y-82384819D01*
X162237621Y-82384819D02*
X162142383Y-82527676D01*
X162142383Y-82527676D02*
X162047145Y-82622914D01*
X162047145Y-82622914D02*
X161951907Y-82670533D01*
X165326192Y-83384819D02*
X164754764Y-83384819D01*
X165040478Y-83384819D02*
X165040478Y-82384819D01*
X165040478Y-82384819D02*
X164945240Y-82527676D01*
X164945240Y-82527676D02*
X164850002Y-82622914D01*
X164850002Y-82622914D02*
X164754764Y-82670533D01*
X165945240Y-82384819D02*
X166040478Y-82384819D01*
X166040478Y-82384819D02*
X166135716Y-82432438D01*
X166135716Y-82432438D02*
X166183335Y-82480057D01*
X166183335Y-82480057D02*
X166230954Y-82575295D01*
X166230954Y-82575295D02*
X166278573Y-82765771D01*
X166278573Y-82765771D02*
X166278573Y-83003866D01*
X166278573Y-83003866D02*
X166230954Y-83194342D01*
X166230954Y-83194342D02*
X166183335Y-83289580D01*
X166183335Y-83289580D02*
X166135716Y-83337200D01*
X166135716Y-83337200D02*
X166040478Y-83384819D01*
X166040478Y-83384819D02*
X165945240Y-83384819D01*
X165945240Y-83384819D02*
X165850002Y-83337200D01*
X165850002Y-83337200D02*
X165802383Y-83289580D01*
X165802383Y-83289580D02*
X165754764Y-83194342D01*
X165754764Y-83194342D02*
X165707145Y-83003866D01*
X165707145Y-83003866D02*
X165707145Y-82765771D01*
X165707145Y-82765771D02*
X165754764Y-82575295D01*
X165754764Y-82575295D02*
X165802383Y-82480057D01*
X165802383Y-82480057D02*
X165850002Y-82432438D01*
X165850002Y-82432438D02*
X165945240Y-82384819D01*
X167135716Y-82718152D02*
X167135716Y-83384819D01*
X166707145Y-82718152D02*
X166707145Y-83241961D01*
X166707145Y-83241961D02*
X166754764Y-83337200D01*
X166754764Y-83337200D02*
X166850002Y-83384819D01*
X166850002Y-83384819D02*
X166992859Y-83384819D01*
X166992859Y-83384819D02*
X167088097Y-83337200D01*
X167088097Y-83337200D02*
X167135716Y-83289580D01*
X167945240Y-82861009D02*
X167611907Y-82861009D01*
X167611907Y-83384819D02*
X167611907Y-82384819D01*
X167611907Y-82384819D02*
X168088097Y-82384819D01*
D14*
%TO.C,C2*%
X153270000Y-85650000D02*
X153270000Y-81110000D01*
X153326000Y-85650000D02*
X153270000Y-85650000D01*
X155354000Y-81110000D02*
X155410000Y-81110000D01*
X155410000Y-81110000D02*
X155410000Y-85650000D01*
%TO.C,JP1*%
X161870000Y-69240000D02*
X161870000Y-72000000D01*
X167060000Y-69240000D02*
X161870000Y-69240000D01*
X167060000Y-69240000D02*
X167060000Y-72000000D01*
X167060000Y-72000000D02*
X161870000Y-72000000D01*
X168330000Y-69240000D02*
X169710000Y-69240000D01*
X169710000Y-69240000D02*
X169710000Y-70620000D01*
%TO.C,C3*%
X200880000Y-84700000D02*
X200880000Y-80160000D01*
X200936000Y-84700000D02*
X200880000Y-84700000D01*
X202964000Y-80160000D02*
X203020000Y-80160000D01*
X203020000Y-80160000D02*
X203020000Y-84700000D01*
%TO.C,U1*%
X177210000Y-78440000D02*
X177210000Y-83740000D01*
X177210000Y-83740000D02*
X197650000Y-83740000D01*
X197650000Y-78440000D02*
X177210000Y-78440000D01*
X197650000Y-80090000D02*
X197650000Y-78440000D01*
X197650000Y-83740000D02*
X197650000Y-82090000D01*
X197650000Y-82090000D02*
G75*
G02*
X197650000Y-80090000I0J1000000D01*
G01*
%TO.C,U2*%
X114280000Y-71790000D02*
X114280000Y-84710000D01*
X114280000Y-84710000D02*
X149960000Y-84710000D01*
X149960000Y-71790000D02*
X114280000Y-71790000D01*
X149960000Y-77250000D02*
X149960000Y-71790000D01*
X149960000Y-84710000D02*
X149960000Y-79250000D01*
X149960000Y-79250000D02*
G75*
G02*
X149960000Y-77250000I0J1000000D01*
G01*
%TO.C,J1*%
X108800000Y-96577358D02*
X108800000Y-96890000D01*
X108800000Y-105650000D02*
X108800000Y-99650000D01*
X109660000Y-96577358D02*
X109660000Y-96890000D01*
X109660000Y-99650000D02*
X109660000Y-105650000D01*
X109660000Y-105650000D02*
X108800000Y-105650000D01*
X110500000Y-96890000D02*
X110500000Y-99650000D01*
X111340000Y-96577358D02*
X111340000Y-96890000D01*
X111340000Y-105650000D02*
X111340000Y-99650000D01*
X112200000Y-96577358D02*
X112200000Y-96890000D01*
X112200000Y-99650000D02*
X112200000Y-105650000D01*
X112200000Y-105650000D02*
X111340000Y-105650000D01*
X113040000Y-96890000D02*
X113040000Y-99650000D01*
X113880000Y-96577358D02*
X113880000Y-96890000D01*
X113880000Y-105650000D02*
X113880000Y-99650000D01*
X114740000Y-96577358D02*
X114740000Y-96890000D01*
X114740000Y-99650000D02*
X114740000Y-105650000D01*
X114740000Y-105650000D02*
X113880000Y-105650000D01*
X115580000Y-96890000D02*
X115580000Y-99650000D01*
X116420000Y-96577358D02*
X116420000Y-96890000D01*
X116420000Y-105650000D02*
X116420000Y-99650000D01*
X117280000Y-96577358D02*
X117280000Y-96890000D01*
X117280000Y-99650000D02*
X117280000Y-105650000D01*
X117280000Y-105650000D02*
X116420000Y-105650000D01*
X118120000Y-96890000D02*
X118120000Y-99650000D01*
X118960000Y-96577358D02*
X118960000Y-96890000D01*
X118960000Y-105650000D02*
X118960000Y-99650000D01*
X119820000Y-96577358D02*
X119820000Y-96890000D01*
X119820000Y-99650000D02*
X119820000Y-105650000D01*
X119820000Y-105650000D02*
X118960000Y-105650000D01*
X120660000Y-96890000D02*
X120660000Y-99650000D01*
X121500000Y-96577358D02*
X121500000Y-96890000D01*
X121500000Y-105650000D02*
X121500000Y-99650000D01*
X122360000Y-96577358D02*
X122360000Y-96890000D01*
X122360000Y-99650000D02*
X122360000Y-105650000D01*
X122360000Y-105650000D02*
X121500000Y-105650000D01*
X123200000Y-96890000D02*
X123200000Y-99650000D01*
X124040000Y-96577358D02*
X124040000Y-96890000D01*
X124040000Y-105650000D02*
X124040000Y-99650000D01*
X124900000Y-96577358D02*
X124900000Y-96890000D01*
X124900000Y-99650000D02*
X124900000Y-105650000D01*
X124900000Y-105650000D02*
X124040000Y-105650000D01*
X125740000Y-96890000D02*
X125740000Y-99650000D01*
X126580000Y-96577358D02*
X126580000Y-96890000D01*
X126580000Y-105650000D02*
X126580000Y-99650000D01*
X127440000Y-96577358D02*
X127440000Y-96890000D01*
X127440000Y-99650000D02*
X127440000Y-105650000D01*
X127440000Y-105650000D02*
X126580000Y-105650000D01*
X128280000Y-96890000D02*
X128280000Y-99650000D01*
X129120000Y-96577358D02*
X129120000Y-96890000D01*
X129120000Y-105650000D02*
X129120000Y-99650000D01*
X129980000Y-96577358D02*
X129980000Y-96890000D01*
X129980000Y-99650000D02*
X129980000Y-105650000D01*
X129980000Y-105650000D02*
X129120000Y-105650000D01*
X130820000Y-96890000D02*
X130820000Y-99650000D01*
X131660000Y-96577358D02*
X131660000Y-96890000D01*
X131660000Y-105650000D02*
X131660000Y-99650000D01*
X132520000Y-96577358D02*
X132520000Y-96890000D01*
X132520000Y-99650000D02*
X132520000Y-105650000D01*
X132520000Y-105650000D02*
X131660000Y-105650000D01*
X133360000Y-96890000D02*
X133360000Y-99650000D01*
X134200000Y-96577358D02*
X134200000Y-96890000D01*
X134200000Y-105650000D02*
X134200000Y-99650000D01*
X135060000Y-96577358D02*
X135060000Y-96890000D01*
X135060000Y-99650000D02*
X135060000Y-105650000D01*
X135060000Y-105650000D02*
X134200000Y-105650000D01*
X135900000Y-96890000D02*
X135900000Y-99650000D01*
X136740000Y-96577358D02*
X136740000Y-96890000D01*
X136740000Y-105650000D02*
X136740000Y-99650000D01*
X137600000Y-96577358D02*
X137600000Y-96890000D01*
X137600000Y-99650000D02*
X137600000Y-105650000D01*
X137600000Y-105650000D02*
X136740000Y-105650000D01*
X138440000Y-96890000D02*
X138440000Y-99650000D01*
X139280000Y-96577358D02*
X139280000Y-96890000D01*
X139280000Y-105650000D02*
X139280000Y-99650000D01*
X140140000Y-96577358D02*
X140140000Y-96890000D01*
X140140000Y-99650000D02*
X140140000Y-105650000D01*
X140140000Y-105650000D02*
X139280000Y-105650000D01*
X140980000Y-96890000D02*
X140980000Y-99650000D01*
X141820000Y-96577358D02*
X141820000Y-96890000D01*
X141820000Y-105650000D02*
X141820000Y-99650000D01*
X142680000Y-96577358D02*
X142680000Y-96890000D01*
X142680000Y-99650000D02*
X142680000Y-105650000D01*
X142680000Y-105650000D02*
X141820000Y-105650000D01*
X143520000Y-96890000D02*
X143520000Y-99650000D01*
X144360000Y-96577358D02*
X144360000Y-96890000D01*
X144360000Y-105650000D02*
X144360000Y-99650000D01*
X145220000Y-96577358D02*
X145220000Y-96890000D01*
X145220000Y-99650000D02*
X145220000Y-105650000D01*
X145220000Y-105650000D02*
X144360000Y-105650000D01*
X146060000Y-96890000D02*
X146060000Y-99650000D01*
X146900000Y-96577358D02*
X146900000Y-96890000D01*
X146900000Y-105650000D02*
X146900000Y-99650000D01*
X147760000Y-96577358D02*
X147760000Y-96890000D01*
X147760000Y-99650000D02*
X147760000Y-105650000D01*
X147760000Y-105650000D02*
X146900000Y-105650000D01*
X148600000Y-96890000D02*
X148600000Y-99650000D01*
X149440000Y-96577358D02*
X149440000Y-96890000D01*
X149440000Y-105650000D02*
X149440000Y-99650000D01*
X150300000Y-96577358D02*
X150300000Y-96890000D01*
X150300000Y-99650000D02*
X150300000Y-105650000D01*
X150300000Y-105650000D02*
X149440000Y-105650000D01*
X151140000Y-96890000D02*
X151140000Y-99650000D01*
X151980000Y-96577358D02*
X151980000Y-96890000D01*
X151980000Y-105650000D02*
X151980000Y-99650000D01*
X152840000Y-96577358D02*
X152840000Y-96890000D01*
X152840000Y-99650000D02*
X152840000Y-105650000D01*
X152840000Y-105650000D02*
X151980000Y-105650000D01*
X153680000Y-96890000D02*
X153680000Y-99650000D01*
X154520000Y-96577358D02*
X154520000Y-96890000D01*
X154520000Y-105650000D02*
X154520000Y-99650000D01*
X155380000Y-96577358D02*
X155380000Y-96890000D01*
X155380000Y-99650000D02*
X155380000Y-105650000D01*
X155380000Y-105650000D02*
X154520000Y-105650000D01*
X156220000Y-96890000D02*
X156220000Y-99650000D01*
X157060000Y-96577358D02*
X157060000Y-96890000D01*
X157060000Y-105650000D02*
X157060000Y-99650000D01*
X157920000Y-96577358D02*
X157920000Y-96890000D01*
X157920000Y-99650000D02*
X157920000Y-105650000D01*
X157920000Y-105650000D02*
X157060000Y-105650000D01*
X158760000Y-96890000D02*
X158760000Y-99650000D01*
X159600000Y-96577358D02*
X159600000Y-96890000D01*
X159600000Y-105650000D02*
X159600000Y-99650000D01*
X160460000Y-96577358D02*
X160460000Y-96890000D01*
X160460000Y-99650000D02*
X160460000Y-105650000D01*
X160460000Y-105650000D02*
X159600000Y-105650000D01*
X161300000Y-96890000D02*
X161300000Y-99650000D01*
X162140000Y-96577358D02*
X162140000Y-96890000D01*
X162140000Y-105650000D02*
X162140000Y-99650000D01*
X163000000Y-96577358D02*
X163000000Y-96890000D01*
X163000000Y-99650000D02*
X163000000Y-105650000D01*
X163000000Y-105650000D02*
X162140000Y-105650000D01*
X163840000Y-96890000D02*
X163840000Y-99650000D01*
X164680000Y-96577358D02*
X164680000Y-96890000D01*
X164680000Y-105650000D02*
X164680000Y-99650000D01*
X165540000Y-96577358D02*
X165540000Y-96890000D01*
X165540000Y-99650000D02*
X165540000Y-105650000D01*
X165540000Y-105650000D02*
X164680000Y-105650000D01*
X166380000Y-96890000D02*
X166380000Y-99650000D01*
X167220000Y-96577358D02*
X167220000Y-96890000D01*
X167220000Y-105650000D02*
X167220000Y-99650000D01*
X168080000Y-96577358D02*
X168080000Y-96890000D01*
X168080000Y-99650000D02*
X168080000Y-105650000D01*
X168080000Y-105650000D02*
X167220000Y-105650000D01*
X168920000Y-96890000D02*
X168920000Y-99650000D01*
X169760000Y-96577358D02*
X169760000Y-96890000D01*
X169760000Y-105650000D02*
X169760000Y-99650000D01*
X170620000Y-96577358D02*
X170620000Y-96890000D01*
X170620000Y-99650000D02*
X170620000Y-105650000D01*
X170620000Y-105650000D02*
X169760000Y-105650000D01*
X171460000Y-96890000D02*
X171460000Y-99650000D01*
X172300000Y-96577358D02*
X172300000Y-96890000D01*
X172300000Y-105650000D02*
X172300000Y-99650000D01*
X173160000Y-96577358D02*
X173160000Y-96890000D01*
X173160000Y-99650000D02*
X173160000Y-105650000D01*
X173160000Y-105650000D02*
X172300000Y-105650000D01*
X174000000Y-96890000D02*
X174000000Y-99650000D01*
X174840000Y-96577358D02*
X174840000Y-96890000D01*
X174840000Y-105650000D02*
X174840000Y-99650000D01*
X175700000Y-96577358D02*
X175700000Y-96890000D01*
X175700000Y-99650000D02*
X175700000Y-105650000D01*
X175700000Y-105650000D02*
X174840000Y-105650000D01*
X176540000Y-96890000D02*
X176540000Y-99650000D01*
X177380000Y-96577358D02*
X177380000Y-96890000D01*
X177380000Y-105650000D02*
X177380000Y-99650000D01*
X178240000Y-96577358D02*
X178240000Y-96890000D01*
X178240000Y-99650000D02*
X178240000Y-105650000D01*
X178240000Y-105650000D02*
X177380000Y-105650000D01*
X179080000Y-96890000D02*
X179080000Y-99650000D01*
X179920000Y-96577358D02*
X179920000Y-96890000D01*
X179920000Y-105650000D02*
X179920000Y-99650000D01*
X180780000Y-96577358D02*
X180780000Y-96890000D01*
X180780000Y-99650000D02*
X180780000Y-105650000D01*
X180780000Y-105650000D02*
X179920000Y-105650000D01*
X181620000Y-96890000D02*
X181620000Y-99650000D01*
X182460000Y-96577358D02*
X182460000Y-96890000D01*
X182460000Y-105650000D02*
X182460000Y-99650000D01*
X183320000Y-96577358D02*
X183320000Y-96890000D01*
X183320000Y-99650000D02*
X183320000Y-105650000D01*
X183320000Y-105650000D02*
X182460000Y-105650000D01*
X184160000Y-96890000D02*
X184160000Y-99650000D01*
X185000000Y-96577358D02*
X185000000Y-96890000D01*
X185000000Y-105650000D02*
X185000000Y-99650000D01*
X185860000Y-96577358D02*
X185860000Y-96890000D01*
X185860000Y-99650000D02*
X185860000Y-105650000D01*
X185860000Y-105650000D02*
X185000000Y-105650000D01*
X186700000Y-96890000D02*
X186700000Y-99650000D01*
X187540000Y-96577358D02*
X187540000Y-96890000D01*
X187540000Y-105650000D02*
X187540000Y-99650000D01*
X188400000Y-96577358D02*
X188400000Y-96890000D01*
X188400000Y-99650000D02*
X188400000Y-105650000D01*
X188400000Y-105650000D02*
X187540000Y-105650000D01*
X189240000Y-96890000D02*
X189240000Y-99650000D01*
X190080000Y-96577358D02*
X190080000Y-96890000D01*
X190080000Y-105650000D02*
X190080000Y-99650000D01*
X190940000Y-96577358D02*
X190940000Y-96890000D01*
X190940000Y-99650000D02*
X190940000Y-105650000D01*
X190940000Y-105650000D02*
X190080000Y-105650000D01*
X191780000Y-96890000D02*
X191780000Y-99650000D01*
X192620000Y-96577358D02*
X192620000Y-96890000D01*
X192620000Y-105650000D02*
X192620000Y-99650000D01*
X193480000Y-96577358D02*
X193480000Y-96890000D01*
X193480000Y-99650000D02*
X193480000Y-105650000D01*
X193480000Y-105650000D02*
X192620000Y-105650000D01*
X194320000Y-96890000D02*
X194320000Y-99650000D01*
X195160000Y-96577358D02*
X195160000Y-96890000D01*
X195160000Y-105650000D02*
X195160000Y-99650000D01*
X196020000Y-96577358D02*
X196020000Y-96890000D01*
X196020000Y-99650000D02*
X196020000Y-105650000D01*
X196020000Y-105650000D02*
X195160000Y-105650000D01*
X196860000Y-96890000D02*
X196860000Y-99650000D01*
X197700000Y-96577358D02*
X197700000Y-96890000D01*
X197700000Y-105650000D02*
X197700000Y-99650000D01*
X198560000Y-96577358D02*
X198560000Y-96890000D01*
X198560000Y-99650000D02*
X198560000Y-105650000D01*
X198560000Y-105650000D02*
X197700000Y-105650000D01*
X199400000Y-96890000D02*
X199400000Y-99650000D01*
X200240000Y-96577358D02*
X200240000Y-96890000D01*
X200240000Y-105650000D02*
X200240000Y-99650000D01*
X201100000Y-96577358D02*
X201100000Y-96890000D01*
X201100000Y-99650000D02*
X201100000Y-105650000D01*
X201100000Y-105650000D02*
X200240000Y-105650000D01*
X201940000Y-96890000D02*
X201940000Y-99650000D01*
X202780000Y-96577358D02*
X202780000Y-96890000D01*
X202780000Y-105650000D02*
X202780000Y-99650000D01*
X203640000Y-96577358D02*
X203640000Y-96890000D01*
X203640000Y-99650000D02*
X203640000Y-105650000D01*
X203640000Y-105650000D02*
X202780000Y-105650000D01*
X204480000Y-96890000D02*
X204480000Y-99650000D01*
X205320000Y-96660000D02*
X205320000Y-96890000D01*
X205750000Y-94230000D02*
X207020000Y-94230000D01*
X206180000Y-96660000D02*
X206180000Y-96890000D01*
X207020000Y-94230000D02*
X207020000Y-95500000D01*
X206180000Y-99650000D02*
X205320000Y-99650000D01*
X205320000Y-105650000D01*
X206180000Y-105650000D01*
X206180000Y-99650000D01*
G36*
X206180000Y-99650000D02*
G01*
X205320000Y-99650000D01*
X205320000Y-105650000D01*
X206180000Y-105650000D01*
X206180000Y-99650000D01*
G37*
X207130000Y-96890000D02*
X107850000Y-96890000D01*
X107850000Y-99650000D01*
X207130000Y-99650000D01*
X207130000Y-96890000D01*
%TO.C,C1*%
X160307380Y-85491000D02*
X160937380Y-85491000D01*
X160622380Y-85176000D02*
X160622380Y-85806000D01*
X163807621Y-84100000D02*
X163807621Y-90560000D01*
X163847621Y-84100000D02*
X163847621Y-90560000D01*
X163887621Y-84101000D02*
X163887621Y-90559000D01*
X163927621Y-84102000D02*
X163927621Y-90558000D01*
X163967621Y-84104000D02*
X163967621Y-90556000D01*
X164007621Y-84106000D02*
X164007621Y-90554000D01*
X164047621Y-84109000D02*
X164047621Y-86290000D01*
X164047621Y-88370000D02*
X164047621Y-90551000D01*
X164087621Y-84112000D02*
X164087621Y-86290000D01*
X164087621Y-88370000D02*
X164087621Y-90548000D01*
X164127621Y-84116000D02*
X164127621Y-86290000D01*
X164127621Y-88370000D02*
X164127621Y-90544000D01*
X164167621Y-84120000D02*
X164167621Y-86290000D01*
X164167621Y-88370000D02*
X164167621Y-90540000D01*
X164207621Y-84125000D02*
X164207621Y-86290000D01*
X164207621Y-88370000D02*
X164207621Y-90535000D01*
X164247621Y-84130000D02*
X164247621Y-86290000D01*
X164247621Y-88370000D02*
X164247621Y-90530000D01*
X164287621Y-84135000D02*
X164287621Y-86290000D01*
X164287621Y-88370000D02*
X164287621Y-90525000D01*
X164327621Y-84142000D02*
X164327621Y-86290000D01*
X164327621Y-88370000D02*
X164327621Y-90518000D01*
X164367621Y-84148000D02*
X164367621Y-86290000D01*
X164367621Y-88370000D02*
X164367621Y-90512000D01*
X164407621Y-84156000D02*
X164407621Y-86290000D01*
X164407621Y-88370000D02*
X164407621Y-90504000D01*
X164447621Y-84163000D02*
X164447621Y-86290000D01*
X164447621Y-88370000D02*
X164447621Y-90497000D01*
X164487621Y-84171000D02*
X164487621Y-86290000D01*
X164487621Y-88370000D02*
X164487621Y-90489000D01*
X164527621Y-84180000D02*
X164527621Y-86290000D01*
X164527621Y-88370000D02*
X164527621Y-90480000D01*
X164567621Y-84190000D02*
X164567621Y-86290000D01*
X164567621Y-88370000D02*
X164567621Y-90470000D01*
X164607621Y-84199000D02*
X164607621Y-86290000D01*
X164607621Y-88370000D02*
X164607621Y-90461000D01*
X164647621Y-84210000D02*
X164647621Y-86290000D01*
X164647621Y-88370000D02*
X164647621Y-90450000D01*
X164687621Y-84221000D02*
X164687621Y-86290000D01*
X164687621Y-88370000D02*
X164687621Y-90439000D01*
X164727621Y-84232000D02*
X164727621Y-86290000D01*
X164727621Y-88370000D02*
X164727621Y-90428000D01*
X164767621Y-84244000D02*
X164767621Y-86290000D01*
X164767621Y-88370000D02*
X164767621Y-90416000D01*
X164807621Y-84257000D02*
X164807621Y-86290000D01*
X164807621Y-88370000D02*
X164807621Y-90403000D01*
X164847621Y-84270000D02*
X164847621Y-86290000D01*
X164847621Y-88370000D02*
X164847621Y-90390000D01*
X164887621Y-84283000D02*
X164887621Y-86290000D01*
X164887621Y-88370000D02*
X164887621Y-90377000D01*
X164927621Y-84298000D02*
X164927621Y-86290000D01*
X164927621Y-88370000D02*
X164927621Y-90362000D01*
X164967621Y-84313000D02*
X164967621Y-86290000D01*
X164967621Y-88370000D02*
X164967621Y-90347000D01*
X165007621Y-84328000D02*
X165007621Y-86290000D01*
X165007621Y-88370000D02*
X165007621Y-90332000D01*
X165047621Y-84344000D02*
X165047621Y-86290000D01*
X165047621Y-88370000D02*
X165047621Y-90316000D01*
X165087621Y-84361000D02*
X165087621Y-86290000D01*
X165087621Y-88370000D02*
X165087621Y-90299000D01*
X165127621Y-84378000D02*
X165127621Y-86290000D01*
X165127621Y-88370000D02*
X165127621Y-90282000D01*
X165167621Y-84396000D02*
X165167621Y-86290000D01*
X165167621Y-88370000D02*
X165167621Y-90264000D01*
X165207621Y-84415000D02*
X165207621Y-86290000D01*
X165207621Y-88370000D02*
X165207621Y-90245000D01*
X165247621Y-84434000D02*
X165247621Y-86290000D01*
X165247621Y-88370000D02*
X165247621Y-90226000D01*
X165287621Y-84454000D02*
X165287621Y-86290000D01*
X165287621Y-88370000D02*
X165287621Y-90206000D01*
X165327621Y-84475000D02*
X165327621Y-86290000D01*
X165327621Y-88370000D02*
X165327621Y-90185000D01*
X165367621Y-84496000D02*
X165367621Y-86290000D01*
X165367621Y-88370000D02*
X165367621Y-90164000D01*
X165407621Y-84518000D02*
X165407621Y-86290000D01*
X165407621Y-88370000D02*
X165407621Y-90142000D01*
X165447621Y-84541000D02*
X165447621Y-86290000D01*
X165447621Y-88370000D02*
X165447621Y-90119000D01*
X165487621Y-84565000D02*
X165487621Y-86290000D01*
X165487621Y-88370000D02*
X165487621Y-90095000D01*
X165527621Y-84589000D02*
X165527621Y-86290000D01*
X165527621Y-88370000D02*
X165527621Y-90071000D01*
X165567621Y-84614000D02*
X165567621Y-86290000D01*
X165567621Y-88370000D02*
X165567621Y-90046000D01*
X165607621Y-84640000D02*
X165607621Y-86290000D01*
X165607621Y-88370000D02*
X165607621Y-90020000D01*
X165647621Y-84667000D02*
X165647621Y-86290000D01*
X165647621Y-88370000D02*
X165647621Y-89993000D01*
X165687621Y-84694000D02*
X165687621Y-86290000D01*
X165687621Y-88370000D02*
X165687621Y-89966000D01*
X165727621Y-84723000D02*
X165727621Y-86290000D01*
X165727621Y-88370000D02*
X165727621Y-89937000D01*
X165767621Y-84753000D02*
X165767621Y-86290000D01*
X165767621Y-88370000D02*
X165767621Y-89907000D01*
X165807621Y-84783000D02*
X165807621Y-86290000D01*
X165807621Y-88370000D02*
X165807621Y-89877000D01*
X165847621Y-84814000D02*
X165847621Y-86290000D01*
X165847621Y-88370000D02*
X165847621Y-89846000D01*
X165887621Y-84847000D02*
X165887621Y-86290000D01*
X165887621Y-88370000D02*
X165887621Y-89813000D01*
X165927621Y-84880000D02*
X165927621Y-86290000D01*
X165927621Y-88370000D02*
X165927621Y-89780000D01*
X165967621Y-84915000D02*
X165967621Y-86290000D01*
X165967621Y-88370000D02*
X165967621Y-89745000D01*
X166007621Y-84951000D02*
X166007621Y-86290000D01*
X166007621Y-88370000D02*
X166007621Y-89709000D01*
X166047621Y-84988000D02*
X166047621Y-86290000D01*
X166047621Y-88370000D02*
X166047621Y-89672000D01*
X166087621Y-85026000D02*
X166087621Y-86290000D01*
X166087621Y-88370000D02*
X166087621Y-89634000D01*
X166127621Y-85066000D02*
X166127621Y-89594000D01*
X166167621Y-85107000D02*
X166167621Y-89553000D01*
X166207621Y-85149000D02*
X166207621Y-89511000D01*
X166247621Y-85193000D02*
X166247621Y-89467000D01*
X166287621Y-85239000D02*
X166287621Y-89421000D01*
X166327621Y-85286000D02*
X166327621Y-89374000D01*
X166367621Y-85335000D02*
X166367621Y-89325000D01*
X166407621Y-85387000D02*
X166407621Y-89273000D01*
X166447621Y-85440000D02*
X166447621Y-89220000D01*
X166487621Y-85496000D02*
X166487621Y-89164000D01*
X166527621Y-85555000D02*
X166527621Y-89105000D01*
X166567621Y-85616000D02*
X166567621Y-89044000D01*
X166607621Y-85681000D02*
X166607621Y-88979000D01*
X166647621Y-85749000D02*
X166647621Y-88911000D01*
X166687621Y-85821000D02*
X166687621Y-88839000D01*
X166727621Y-85898000D02*
X166727621Y-88762000D01*
X166767621Y-85980000D02*
X166767621Y-88680000D01*
X166807621Y-86069000D02*
X166807621Y-88591000D01*
X166847621Y-86165000D02*
X166847621Y-88495000D01*
X166887621Y-86272000D02*
X166887621Y-88388000D01*
X166927621Y-86391000D02*
X166927621Y-88269000D01*
X166967621Y-86529000D02*
X166967621Y-88131000D01*
X167007621Y-86697000D02*
X167007621Y-87963000D01*
X167047621Y-86928000D02*
X167047621Y-87732000D01*
X167077621Y-87330000D02*
G75*
G02*
X160537621Y-87330000I-3270000J0D01*
G01*
X160537621Y-87330000D02*
G75*
G02*
X167077621Y-87330000I3270000J0D01*
G01*
%TD*%
M02*
