%TF.GenerationSoftware,KiCad,Pcbnew,9.0.7*%
%TF.CreationDate,2026-04-13T12:52:59+02:00*%
%TF.ProjectId,RC6502_EPROM_Card,52433635-3032-45f4-9550-524f4d5f4361,version 1.0*%
%TF.SameCoordinates,Original*%
%TF.FileFunction,Soldermask,Bot*%
%TF.FilePolarity,Negative*%
%FSLAX46Y46*%
G04 Gerber Fmt 4.6, Leading zero omitted, Abs format (unit mm)*
G04 Created by KiCad (PCBNEW 9.0.7) date 2026-04-13 12:52:59*
%MOMM*%
%LPD*%
G01*
G04 APERTURE LIST*
G04 Aperture macros list*
%AMRoundRect*
0 Rectangle with rounded corners*
0 $1 Rounding radius*
0 $2 $3 $4 $5 $6 $7 $8 $9 X,Y pos of 4 corners*
0 Add a 4 corners polygon primitive as box body*
4,1,4,$2,$3,$4,$5,$6,$7,$8,$9,$2,$3,0*
0 Add four circle primitives for the rounded corners*
1,1,$1+$1,$2,$3*
1,1,$1+$1,$4,$5*
1,1,$1+$1,$6,$7*
1,1,$1+$1,$8,$9*
0 Add four rect primitives between the rounded corners*
20,1,$1+$1,$2,$3,$4,$5,0*
20,1,$1+$1,$4,$5,$6,$7,0*
20,1,$1+$1,$6,$7,$8,$9,0*
20,1,$1+$1,$8,$9,$2,$3,0*%
%AMFreePoly0*
4,1,23,0.550000,-0.750000,0.000000,-0.750000,0.000000,-0.745722,-0.065263,-0.745722,-0.191342,-0.711940,-0.304381,-0.646677,-0.396677,-0.554381,-0.461940,-0.441342,-0.495722,-0.315263,-0.495722,-0.250000,-0.500000,-0.250000,-0.500000,0.250000,-0.495722,0.250000,-0.495722,0.315263,-0.461940,0.441342,-0.396677,0.554381,-0.304381,0.646677,-0.191342,0.711940,-0.065263,0.745722,0.000000,0.745722,
0.000000,0.750000,0.550000,0.750000,0.550000,-0.750000,0.550000,-0.750000,$1*%
%AMFreePoly1*
4,1,23,0.000000,0.745722,0.065263,0.745722,0.191342,0.711940,0.304381,0.646677,0.396677,0.554381,0.461940,0.441342,0.495722,0.315263,0.495722,0.250000,0.500000,0.250000,0.500000,-0.250000,0.495722,-0.250000,0.495722,-0.315263,0.461940,-0.441342,0.396677,-0.554381,0.304381,-0.646677,0.191342,-0.711940,0.065263,-0.745722,0.000000,-0.745722,0.000000,-0.750000,-0.550000,-0.750000,
-0.550000,0.750000,0.000000,0.750000,0.000000,0.745722,0.000000,0.745722,$1*%
G04 Aperture macros list end*
%ADD10C,1.600000*%
%ADD11R,1.700000X1.700000*%
%ADD12C,1.700000*%
%ADD13RoundRect,0.250000X-0.550000X0.550000X-0.550000X-0.550000X0.550000X-0.550000X0.550000X0.550000X0*%
%ADD14RoundRect,0.250000X-0.550000X-0.550000X0.550000X-0.550000X0.550000X0.550000X-0.550000X0.550000X0*%
%ADD15FreePoly0,180.000000*%
%ADD16R,1.000000X1.500000*%
%ADD17FreePoly1,180.000000*%
%ADD18FreePoly0,0.000000*%
%ADD19FreePoly1,0.000000*%
G04 APERTURE END LIST*
%TO.C,JP3*%
G36*
X149400000Y-73810000D02*
G01*
X147900000Y-73810000D01*
X147900000Y-75310000D01*
X149400000Y-75310000D01*
X149400000Y-73810000D01*
G37*
%TO.C,JP2*%
G36*
X145290000Y-90620000D02*
G01*
X146790000Y-90620000D01*
X146790000Y-89120000D01*
X145290000Y-89120000D01*
X145290000Y-90620000D01*
G37*
%TD*%
D10*
%TO.C,C2*%
X154340000Y-80880000D03*
X154340000Y-85880000D03*
%TD*%
D11*
%TO.C,JP1*%
X168330000Y-70620000D03*
D12*
X165790000Y-70620000D03*
X163250000Y-70620000D03*
%TD*%
D10*
%TO.C,C3*%
X201950000Y-84930000D03*
X201950000Y-79930000D03*
%TD*%
D13*
%TO.C,U1*%
X196320000Y-77280000D03*
D10*
X193780000Y-77280000D03*
X191240000Y-77280000D03*
X188700000Y-77280000D03*
X186160000Y-77280000D03*
X183620000Y-77280000D03*
X181080000Y-77280000D03*
X178540000Y-77280000D03*
X178540000Y-84900000D03*
X181080000Y-84900000D03*
X183620000Y-84900000D03*
X186160000Y-84900000D03*
X188700000Y-84900000D03*
X191240000Y-84900000D03*
X193780000Y-84900000D03*
X196320000Y-84900000D03*
%TD*%
D13*
%TO.C,U2*%
X148630000Y-70630000D03*
D10*
X146090000Y-70630000D03*
X143550000Y-70630000D03*
X141010000Y-70630000D03*
X138470000Y-70630000D03*
X135930000Y-70630000D03*
X133390000Y-70630000D03*
X130850000Y-70630000D03*
X128310000Y-70630000D03*
X125770000Y-70630000D03*
X123230000Y-70630000D03*
X120690000Y-70630000D03*
X118150000Y-70630000D03*
X115610000Y-70630000D03*
X115610000Y-85870000D03*
X118150000Y-85870000D03*
X120690000Y-85870000D03*
X123230000Y-85870000D03*
X125770000Y-85870000D03*
X128310000Y-85870000D03*
X130850000Y-85870000D03*
X133390000Y-85870000D03*
X135930000Y-85870000D03*
X138470000Y-85870000D03*
X141010000Y-85870000D03*
X143550000Y-85870000D03*
X146090000Y-85870000D03*
X148630000Y-85870000D03*
%TD*%
D11*
%TO.C,J1*%
X205750000Y-95500000D03*
D12*
X203210000Y-95500000D03*
X200670000Y-95500000D03*
X198130000Y-95500000D03*
X195590000Y-95500000D03*
X193050000Y-95500000D03*
X190510000Y-95500000D03*
X187970000Y-95500000D03*
X185430000Y-95500000D03*
X182890000Y-95500000D03*
X180350000Y-95500000D03*
X177810000Y-95500000D03*
X175270000Y-95500000D03*
X172730000Y-95500000D03*
X170190000Y-95500000D03*
X167650000Y-95500000D03*
X165110000Y-95500000D03*
X162570000Y-95500000D03*
X160030000Y-95500000D03*
X157490000Y-95500000D03*
X154950000Y-95500000D03*
X152410000Y-95500000D03*
X149870000Y-95500000D03*
X147330000Y-95500000D03*
X144790000Y-95500000D03*
X142250000Y-95500000D03*
X139710000Y-95500000D03*
X137170000Y-95500000D03*
X134630000Y-95500000D03*
X132090000Y-95500000D03*
X129550000Y-95500000D03*
X127010000Y-95500000D03*
X124470000Y-95500000D03*
X121930000Y-95500000D03*
X119390000Y-95500000D03*
X116850000Y-95500000D03*
X114310000Y-95500000D03*
X111770000Y-95500000D03*
X109230000Y-95500000D03*
%TD*%
D14*
%TO.C,C1*%
X162557621Y-87330000D03*
D10*
X165057621Y-87330000D03*
%TD*%
D15*
%TO.C,JP3*%
X149950000Y-74560000D03*
D16*
X148650000Y-74560000D03*
D17*
X147350000Y-74560000D03*
%TD*%
D18*
%TO.C,JP2*%
X144740000Y-89870000D03*
D16*
X146040000Y-89870000D03*
D19*
X147340000Y-89870000D03*
%TD*%
M02*
