%TF.GenerationSoftware,KiCad,Pcbnew,9.0.7*%
%TF.CreationDate,2026-04-13T12:52:59+02:00*%
%TF.ProjectId,RC6502_EPROM_Card,52433635-3032-45f4-9550-524f4d5f4361,version 1.0*%
%TF.SameCoordinates,Original*%
%TF.FileFunction,Copper,L2,Bot*%
%TF.FilePolarity,Positive*%
%FSLAX46Y46*%
G04 Gerber Fmt 4.6, Leading zero omitted, Abs format (unit mm)*
G04 Created by KiCad (PCBNEW 9.0.7) date 2026-04-13 12:52:59*
%MOMM*%
%LPD*%
G01*
G04 APERTURE LIST*
G04 Aperture macros list*
%AMRoundRect*
0 Rectangle with rounded corners*
0 $1 Rounding radius*
0 $2 $3 $4 $5 $6 $7 $8 $9 X,Y pos of 4 corners*
0 Add a 4 corners polygon primitive as box body*
4,1,4,$2,$3,$4,$5,$6,$7,$8,$9,$2,$3,0*
0 Add four circle primitives for the rounded corners*
1,1,$1+$1,$2,$3*
1,1,$1+$1,$4,$5*
1,1,$1+$1,$6,$7*
1,1,$1+$1,$8,$9*
0 Add four rect primitives between the rounded corners*
20,1,$1+$1,$2,$3,$4,$5,0*
20,1,$1+$1,$4,$5,$6,$7,0*
20,1,$1+$1,$6,$7,$8,$9,0*
20,1,$1+$1,$8,$9,$2,$3,0*%
%AMFreePoly0*
4,1,23,0.550000,-0.750000,0.000000,-0.750000,0.000000,-0.745722,-0.065263,-0.745722,-0.191342,-0.711940,-0.304381,-0.646677,-0.396677,-0.554381,-0.461940,-0.441342,-0.495722,-0.315263,-0.495722,-0.250000,-0.500000,-0.250000,-0.500000,0.250000,-0.495722,0.250000,-0.495722,0.315263,-0.461940,0.441342,-0.396677,0.554381,-0.304381,0.646677,-0.191342,0.711940,-0.065263,0.745722,0.000000,0.745722,
0.000000,0.750000,0.550000,0.750000,0.550000,-0.750000,0.550000,-0.750000,$1*%
%AMFreePoly1*
4,1,23,0.000000,0.745722,0.065263,0.745722,0.191342,0.711940,0.304381,0.646677,0.396677,0.554381,0.461940,0.441342,0.495722,0.315263,0.495722,0.250000,0.500000,0.250000,0.500000,-0.250000,0.495722,-0.250000,0.495722,-0.315263,0.461940,-0.441342,0.396677,-0.554381,0.304381,-0.646677,0.191342,-0.711940,0.065263,-0.745722,0.000000,-0.745722,0.000000,-0.750000,-0.550000,-0.750000,
-0.550000,0.750000,0.000000,0.750000,0.000000,0.745722,0.000000,0.745722,$1*%
G04 Aperture macros list end*
%TA.AperFunction,ComponentPad*%
%ADD10C,1.600000*%
%TD*%
%TA.AperFunction,ComponentPad*%
%ADD11R,1.700000X1.700000*%
%TD*%
%TA.AperFunction,ComponentPad*%
%ADD12C,1.700000*%
%TD*%
%TA.AperFunction,ComponentPad*%
%ADD13RoundRect,0.250000X-0.550000X0.550000X-0.550000X-0.550000X0.550000X-0.550000X0.550000X0.550000X0*%
%TD*%
%TA.AperFunction,ComponentPad*%
%ADD14RoundRect,0.250000X-0.550000X-0.550000X0.550000X-0.550000X0.550000X0.550000X-0.550000X0.550000X0*%
%TD*%
%TA.AperFunction,SMDPad,CuDef*%
%ADD15FreePoly0,180.000000*%
%TD*%
%TA.AperFunction,SMDPad,CuDef*%
%ADD16R,1.000000X1.500000*%
%TD*%
%TA.AperFunction,SMDPad,CuDef*%
%ADD17FreePoly1,180.000000*%
%TD*%
%TA.AperFunction,SMDPad,CuDef*%
%ADD18FreePoly0,0.000000*%
%TD*%
%TA.AperFunction,SMDPad,CuDef*%
%ADD19FreePoly1,0.000000*%
%TD*%
%TA.AperFunction,ViaPad*%
%ADD20C,0.600000*%
%TD*%
%TA.AperFunction,Conductor*%
%ADD21C,0.500000*%
%TD*%
%TA.AperFunction,Conductor*%
%ADD22C,0.400000*%
%TD*%
G04 APERTURE END LIST*
D10*
%TO.P,C2,1*%
%TO.N,VCC*%
X154340000Y-80880000D03*
%TO.P,C2,2*%
%TO.N,GND*%
X154340000Y-85880000D03*
%TD*%
D11*
%TO.P,JP1,1,A*%
%TO.N,GND*%
X168330000Y-70620000D03*
D12*
%TO.P,JP1,2,C*%
%TO.N,Net-(JP1-C)*%
X165790000Y-70620000D03*
%TO.P,JP1,3,B*%
%TO.N,VCC*%
X163250000Y-70620000D03*
%TD*%
D10*
%TO.P,C3,1*%
%TO.N,VCC*%
X201950000Y-84930000D03*
%TO.P,C3,2*%
%TO.N,GND*%
X201950000Y-79930000D03*
%TD*%
D13*
%TO.P,U1,1,A0*%
%TO.N,GND*%
X196320000Y-77280000D03*
D10*
%TO.P,U1,2,A1*%
%TO.N,A15*%
X193780000Y-77280000D03*
%TO.P,U1,3,A2*%
%TO.N,A14*%
X191240000Y-77280000D03*
%TO.P,U1,4,E1*%
%TO.N,GND*%
X188700000Y-77280000D03*
%TO.P,U1,5,E2*%
X186160000Y-77280000D03*
%TO.P,U1,6,E3*%
%TO.N,VCC*%
X183620000Y-77280000D03*
%TO.P,U1,7,O7*%
%TO.N,unconnected-(U1-O7-Pad7)*%
X181080000Y-77280000D03*
%TO.P,U1,8,GND*%
%TO.N,GND*%
X178540000Y-77280000D03*
%TO.P,U1,9,O6*%
%TO.N,unconnected-(U1-O6-Pad9)*%
X178540000Y-84900000D03*
%TO.P,U1,10,O5*%
%TO.N,unconnected-(U1-O5-Pad10)*%
X181080000Y-84900000D03*
%TO.P,U1,11,O4*%
%TO.N,unconnected-(U1-O4-Pad11)*%
X183620000Y-84900000D03*
%TO.P,U1,12,O3*%
%TO.N,unconnected-(U1-O3-Pad12)*%
X186160000Y-84900000D03*
%TO.P,U1,13,O2*%
%TO.N,Net-(U1-O2)*%
X188700000Y-84900000D03*
%TO.P,U1,14,O1*%
%TO.N,unconnected-(U1-O1-Pad14)*%
X191240000Y-84900000D03*
%TO.P,U1,15,O0*%
%TO.N,unconnected-(U1-O0-Pad15)*%
X193780000Y-84900000D03*
%TO.P,U1,16,VCC*%
%TO.N,VCC*%
X196320000Y-84900000D03*
%TD*%
D13*
%TO.P,U2,1,VPP*%
%TO.N,Net-(JP3-C)*%
X148630000Y-70630000D03*
D10*
%TO.P,U2,2,A12*%
%TO.N,A12*%
X146090000Y-70630000D03*
%TO.P,U2,3,A7*%
%TO.N,A7*%
X143550000Y-70630000D03*
%TO.P,U2,4,A6*%
%TO.N,A6*%
X141010000Y-70630000D03*
%TO.P,U2,5,A5*%
%TO.N,A5*%
X138470000Y-70630000D03*
%TO.P,U2,6,A4*%
%TO.N,A4*%
X135930000Y-70630000D03*
%TO.P,U2,7,A3*%
%TO.N,A3*%
X133390000Y-70630000D03*
%TO.P,U2,8,A2*%
%TO.N,A2*%
X130850000Y-70630000D03*
%TO.P,U2,9,A1*%
%TO.N,A1*%
X128310000Y-70630000D03*
%TO.P,U2,10,A0*%
%TO.N,A0*%
X125770000Y-70630000D03*
%TO.P,U2,11,D0*%
%TO.N,D0*%
X123230000Y-70630000D03*
%TO.P,U2,12,D1*%
%TO.N,D1*%
X120690000Y-70630000D03*
%TO.P,U2,13,D2*%
%TO.N,D2*%
X118150000Y-70630000D03*
%TO.P,U2,14,GND*%
%TO.N,GND*%
X115610000Y-70630000D03*
%TO.P,U2,15,D3*%
%TO.N,D3*%
X115610000Y-85870000D03*
%TO.P,U2,16,D4*%
%TO.N,D4*%
X118150000Y-85870000D03*
%TO.P,U2,17,D5*%
%TO.N,D5*%
X120690000Y-85870000D03*
%TO.P,U2,18,D6*%
%TO.N,D6*%
X123230000Y-85870000D03*
%TO.P,U2,19,D7*%
%TO.N,D7*%
X125770000Y-85870000D03*
%TO.P,U2,20,~{CE}*%
%TO.N,Net-(U1-O2)*%
X128310000Y-85870000D03*
%TO.P,U2,21,A10*%
%TO.N,A10*%
X130850000Y-85870000D03*
%TO.P,U2,22,~{OE}*%
%TO.N,GND*%
X133390000Y-85870000D03*
%TO.P,U2,23,A11*%
%TO.N,A11*%
X135930000Y-85870000D03*
%TO.P,U2,24,A9*%
%TO.N,A9*%
X138470000Y-85870000D03*
%TO.P,U2,25,A8*%
%TO.N,A8*%
X141010000Y-85870000D03*
%TO.P,U2,26,A13*%
%TO.N,A13*%
X143550000Y-85870000D03*
%TO.P,U2,27,A14*%
%TO.N,Net-(JP2-C)*%
X146090000Y-85870000D03*
%TO.P,U2,28,VCC*%
%TO.N,VCC*%
X148630000Y-85870000D03*
%TD*%
D11*
%TO.P,J1,1,Pin_1*%
%TO.N,A15*%
X205750000Y-95500000D03*
D12*
%TO.P,J1,2,Pin_2*%
%TO.N,A14*%
X203210000Y-95500000D03*
%TO.P,J1,3,Pin_3*%
%TO.N,A13*%
X200670000Y-95500000D03*
%TO.P,J1,4,Pin_4*%
%TO.N,A12*%
X198130000Y-95500000D03*
%TO.P,J1,5,Pin_5*%
%TO.N,A11*%
X195590000Y-95500000D03*
%TO.P,J1,6,Pin_6*%
%TO.N,A10*%
X193050000Y-95500000D03*
%TO.P,J1,7,Pin_7*%
%TO.N,A9*%
X190510000Y-95500000D03*
%TO.P,J1,8,Pin_8*%
%TO.N,A8*%
X187970000Y-95500000D03*
%TO.P,J1,9,Pin_9*%
%TO.N,A7*%
X185430000Y-95500000D03*
%TO.P,J1,10,Pin_10*%
%TO.N,A6*%
X182890000Y-95500000D03*
%TO.P,J1,11,Pin_11*%
%TO.N,A5*%
X180350000Y-95500000D03*
%TO.P,J1,12,Pin_12*%
%TO.N,A4*%
X177810000Y-95500000D03*
%TO.P,J1,13,Pin_13*%
%TO.N,A3*%
X175270000Y-95500000D03*
%TO.P,J1,14,Pin_14*%
%TO.N,A2*%
X172730000Y-95500000D03*
%TO.P,J1,15,Pin_15*%
%TO.N,A1*%
X170190000Y-95500000D03*
%TO.P,J1,16,Pin_16*%
%TO.N,A0*%
X167650000Y-95500000D03*
%TO.P,J1,17,Pin_17*%
%TO.N,GND*%
X165110000Y-95500000D03*
%TO.P,J1,18,Pin_18*%
%TO.N,VCC*%
X162570000Y-95500000D03*
%TO.P,J1,19,Pin_19*%
%TO.N,unconnected-(J1-Pin_19-Pad19)*%
X160030000Y-95500000D03*
%TO.P,J1,20,Pin_20*%
%TO.N,unconnected-(J1-Pin_20-Pad20)*%
X157490000Y-95500000D03*
%TO.P,J1,21,Pin_21*%
%TO.N,unconnected-(J1-Pin_21-Pad21)*%
X154950000Y-95500000D03*
%TO.P,J1,22,Pin_22*%
%TO.N,unconnected-(J1-Pin_22-Pad22)*%
X152410000Y-95500000D03*
%TO.P,J1,23,Pin_23*%
%TO.N,unconnected-(J1-Pin_23-Pad23)*%
X149870000Y-95500000D03*
%TO.P,J1,24,Pin_24*%
%TO.N,unconnected-(J1-Pin_24-Pad24)*%
X147330000Y-95500000D03*
%TO.P,J1,25,Pin_25*%
%TO.N,unconnected-(J1-Pin_25-Pad25)*%
X144790000Y-95500000D03*
%TO.P,J1,26,Pin_26*%
%TO.N,unconnected-(J1-Pin_26-Pad26)*%
X142250000Y-95500000D03*
%TO.P,J1,27,Pin_27*%
%TO.N,D0*%
X139710000Y-95500000D03*
%TO.P,J1,28,Pin_28*%
%TO.N,D1*%
X137170000Y-95500000D03*
%TO.P,J1,29,Pin_29*%
%TO.N,D2*%
X134630000Y-95500000D03*
%TO.P,J1,30,Pin_30*%
%TO.N,D3*%
X132090000Y-95500000D03*
%TO.P,J1,31,Pin_31*%
%TO.N,D4*%
X129550000Y-95500000D03*
%TO.P,J1,32,Pin_32*%
%TO.N,D5*%
X127010000Y-95500000D03*
%TO.P,J1,33,Pin_33*%
%TO.N,D6*%
X124470000Y-95500000D03*
%TO.P,J1,34,Pin_34*%
%TO.N,D7*%
X121930000Y-95500000D03*
%TO.P,J1,35,Pin_35*%
%TO.N,unconnected-(J1-Pin_35-Pad35)*%
X119390000Y-95500000D03*
%TO.P,J1,36,Pin_36*%
%TO.N,unconnected-(J1-Pin_36-Pad36)*%
X116850000Y-95500000D03*
%TO.P,J1,37,Pin_37*%
%TO.N,unconnected-(J1-Pin_37-Pad37)*%
X114310000Y-95500000D03*
%TO.P,J1,38,Pin_38*%
%TO.N,unconnected-(J1-Pin_38-Pad38)*%
X111770000Y-95500000D03*
%TO.P,J1,39,Pin_39*%
%TO.N,unconnected-(J1-Pin_39-Pad39)*%
X109230000Y-95500000D03*
%TD*%
D14*
%TO.P,C1,1*%
%TO.N,VCC*%
X162557621Y-87330000D03*
D10*
%TO.P,C1,2*%
%TO.N,GND*%
X165057621Y-87330000D03*
%TD*%
D15*
%TO.P,JP3,1,A*%
%TO.N,VCC*%
X149950000Y-74560000D03*
D16*
%TO.P,JP3,2,C*%
%TO.N,Net-(JP3-C)*%
X148650000Y-74560000D03*
D17*
%TO.P,JP3,3,B*%
%TO.N,Net-(JP1-C)*%
X147350000Y-74560000D03*
%TD*%
D18*
%TO.P,JP2,1,A*%
%TO.N,Net-(JP1-C)*%
X144740000Y-89870000D03*
D16*
%TO.P,JP2,2,C*%
%TO.N,Net-(JP2-C)*%
X146040000Y-89870000D03*
D19*
%TO.P,JP2,3,B*%
%TO.N,GND*%
X147340000Y-89870000D03*
%TD*%
D20*
%TO.N,GND*%
X146805000Y-82395000D03*
X141860000Y-82390000D03*
%TO.N,A13*%
X166310000Y-89950000D03*
X160620000Y-89950000D03*
%TO.N,A8*%
X166310000Y-91250000D03*
X186770000Y-91290000D03*
%TO.N,A4*%
X160540000Y-76660000D03*
X172050000Y-84350000D03*
%TO.N,A7*%
X175350000Y-84350000D03*
X160540000Y-74130000D03*
%TO.N,A2*%
X169850000Y-84350000D03*
X160540000Y-78350000D03*
%TO.N,A6*%
X174250000Y-84350000D03*
X160540000Y-74970000D03*
%TO.N,A3*%
X170950000Y-84350000D03*
X160540000Y-77500000D03*
%TO.N,A9*%
X161310000Y-92230000D03*
%TO.N,A5*%
X160540000Y-75810000D03*
X173150000Y-84350000D03*
%TO.N,A11*%
X166310000Y-93280000D03*
%TO.N,A1*%
X160540000Y-79190000D03*
X168750000Y-84350000D03*
%TO.N,A0*%
X167650000Y-84350000D03*
X160540000Y-80040000D03*
%TO.N,Net-(U1-O2)*%
X164930000Y-81930000D03*
X155740000Y-79100000D03*
X128320000Y-79310000D03*
%TD*%
D21*
%TO.N,GND*%
X116520000Y-66570000D02*
X115580000Y-67510000D01*
X150170000Y-82380000D02*
X151660000Y-83870000D01*
X151660000Y-85300000D02*
X152200000Y-85840000D01*
X152970000Y-89990000D02*
X154270000Y-88690000D01*
X189530000Y-74320000D02*
X195730000Y-74320000D01*
X165150000Y-87740000D02*
X165150000Y-86340000D01*
X196320000Y-77280000D02*
X201230000Y-77280000D01*
X196290000Y-74880000D02*
X196290000Y-77250000D01*
X146820000Y-82380000D02*
X150170000Y-82380000D01*
X165057621Y-87647621D02*
X165057621Y-87330000D01*
X152200000Y-85840000D02*
X154300000Y-85840000D01*
X168330000Y-70620000D02*
X176620000Y-70620000D01*
X178540000Y-74830000D02*
X178540000Y-72500000D01*
X151660000Y-83870000D02*
X151660000Y-85300000D01*
X167030000Y-66570000D02*
X116520000Y-66570000D01*
X168330000Y-70620000D02*
X168330000Y-67870000D01*
X133390000Y-85870000D02*
X133390000Y-83200000D01*
X165110000Y-87382379D02*
X165110000Y-95500000D01*
X154270000Y-88690000D02*
X154270000Y-85950000D01*
X178540000Y-72500000D02*
X176640000Y-70600000D01*
X179050000Y-74320000D02*
X178540000Y-74830000D01*
X165057621Y-87330000D02*
X165110000Y-87382379D01*
X146805000Y-82395000D02*
X146820000Y-82380000D01*
X188700000Y-75150000D02*
X189530000Y-74320000D01*
X175320000Y-87330000D02*
X176550000Y-86100000D01*
X195730000Y-74320000D02*
X196290000Y-74880000D01*
X176550000Y-77830000D02*
X177100000Y-77280000D01*
X201230000Y-77280000D02*
X201840000Y-77890000D01*
X189530000Y-74320000D02*
X179050000Y-74320000D01*
X201840000Y-79820000D02*
X201950000Y-79930000D01*
X165150000Y-87740000D02*
X165057621Y-87647621D01*
X147340000Y-89650000D02*
X147680000Y-89990000D01*
X177100000Y-77280000D02*
X178540000Y-77280000D01*
X176620000Y-70620000D02*
X176640000Y-70600000D01*
X154270000Y-85950000D02*
X154340000Y-85880000D01*
X165057621Y-87330000D02*
X175320000Y-87330000D01*
X178540000Y-77280000D02*
X178540000Y-74830000D01*
X201840000Y-77890000D02*
X201840000Y-79820000D01*
X186160000Y-77280000D02*
X188700000Y-77280000D01*
X176550000Y-86100000D02*
X176550000Y-77830000D01*
X133390000Y-83200000D02*
X134200000Y-82390000D01*
X165150000Y-86340000D02*
X164690000Y-85880000D01*
X134200000Y-82390000D02*
X141860000Y-82390000D01*
X168330000Y-67870000D02*
X167030000Y-66570000D01*
X164690000Y-85880000D02*
X154340000Y-85880000D01*
X115580000Y-67510000D02*
X115580000Y-70600000D01*
X196290000Y-77250000D02*
X196320000Y-77280000D01*
X154300000Y-85840000D02*
X154340000Y-85880000D01*
X115580000Y-70600000D02*
X115610000Y-70630000D01*
X188700000Y-77280000D02*
X188700000Y-75150000D01*
X147680000Y-89990000D02*
X152970000Y-89990000D01*
%TO.N,VCC*%
X162557621Y-87330000D02*
X162557621Y-87647621D01*
X162570000Y-95500000D02*
X162570000Y-87342379D01*
X162557621Y-87647621D02*
X162650000Y-87740000D01*
X162570000Y-87342379D02*
X162557621Y-87330000D01*
X149940000Y-74530000D02*
X152770000Y-74530000D01*
X154360000Y-80860000D02*
X154340000Y-80880000D01*
X152770000Y-74530000D02*
X154360000Y-76120000D01*
X154360000Y-76120000D02*
X154360000Y-80860000D01*
D22*
%TO.N,A13*%
X197470000Y-89950000D02*
X200680000Y-93160000D01*
X143550000Y-87320000D02*
X143550000Y-85870000D01*
X200680000Y-95490000D02*
X200670000Y-95500000D01*
X159170000Y-92520000D02*
X143640000Y-92520000D01*
X160620000Y-91070000D02*
X159170000Y-92520000D01*
X142060000Y-88810000D02*
X143550000Y-87320000D01*
X143640000Y-92520000D02*
X142060000Y-90940000D01*
X142060000Y-90940000D02*
X142060000Y-88810000D01*
X166060000Y-89950000D02*
X197470000Y-89950000D01*
X160620000Y-89950000D02*
X160620000Y-91070000D01*
X200680000Y-93160000D02*
X200680000Y-95490000D01*
%TO.N,A8*%
X166310000Y-91250000D02*
X166350000Y-91290000D01*
X166350000Y-91290000D02*
X186770000Y-91290000D01*
D21*
%TO.N,D1*%
X132050000Y-90900000D02*
X134580000Y-90900000D01*
X129560000Y-78500000D02*
X129560000Y-88410000D01*
X134580000Y-90900000D02*
X137170000Y-93490000D01*
X123430000Y-76320000D02*
X127380000Y-76320000D01*
X127380000Y-76320000D02*
X129560000Y-78500000D01*
X120690000Y-73580000D02*
X123430000Y-76320000D01*
X120690000Y-70630000D02*
X120690000Y-73580000D01*
X137170000Y-93490000D02*
X137170000Y-95500000D01*
X129560000Y-88410000D02*
X132050000Y-90900000D01*
D22*
%TO.N,A4*%
X170680000Y-76660000D02*
X172080000Y-78060000D01*
X160540000Y-76660000D02*
X170680000Y-76660000D01*
X172080000Y-84320000D02*
X172050000Y-84350000D01*
X172080000Y-78060000D02*
X172080000Y-84320000D01*
%TO.N,A7*%
X175330000Y-75130000D02*
X175330000Y-84330000D01*
X174330000Y-74130000D02*
X175330000Y-75130000D01*
X175330000Y-84330000D02*
X175350000Y-84350000D01*
X160540000Y-74130000D02*
X174330000Y-74130000D01*
D21*
%TO.N,D3*%
X132090000Y-95500000D02*
X132090000Y-94890000D01*
%TO.N,A15*%
X193780000Y-78290000D02*
X197040000Y-81550000D01*
X204340000Y-82190000D02*
X205750000Y-83600000D01*
X193780000Y-77280000D02*
X193780000Y-78290000D01*
X201440000Y-82190000D02*
X204340000Y-82190000D01*
X200800000Y-81550000D02*
X201440000Y-82190000D01*
X205750000Y-83600000D02*
X205750000Y-95500000D01*
X197040000Y-81550000D02*
X200800000Y-81550000D01*
%TO.N,D7*%
X121930000Y-91210000D02*
X125770000Y-87370000D01*
X125770000Y-87370000D02*
X125770000Y-85870000D01*
X121930000Y-95500000D02*
X121930000Y-91210000D01*
%TO.N,D2*%
X127040000Y-88070000D02*
X127040000Y-78520000D01*
X134630000Y-95500000D02*
X134630000Y-93110000D01*
X119760000Y-77940000D02*
X118150000Y-76330000D01*
X133650000Y-92130000D02*
X131100000Y-92130000D01*
X134630000Y-93110000D02*
X133650000Y-92130000D01*
X127040000Y-78520000D02*
X126460000Y-77940000D01*
X126460000Y-77940000D02*
X119760000Y-77940000D01*
X118150000Y-76330000D02*
X118150000Y-70630000D01*
X131100000Y-92130000D02*
X127040000Y-88070000D01*
D22*
%TO.N,A2*%
X169790000Y-84290000D02*
X169850000Y-84350000D01*
X168860000Y-78350000D02*
X169790000Y-79280000D01*
X160540000Y-78350000D02*
X168860000Y-78350000D01*
X169790000Y-79280000D02*
X169790000Y-84290000D01*
%TO.N,A6*%
X174250000Y-76070000D02*
X173150000Y-74970000D01*
X173150000Y-74970000D02*
X160540000Y-74970000D01*
X174250000Y-84350000D02*
X174250000Y-76070000D01*
D21*
%TO.N,A14*%
X191240000Y-79250000D02*
X194780000Y-82790000D01*
X203210000Y-92540000D02*
X203210000Y-95500000D01*
X191240000Y-77280000D02*
X191240000Y-79250000D01*
X199560000Y-88890000D02*
X203210000Y-92540000D01*
X194780000Y-82790000D02*
X198240000Y-82790000D01*
X198240000Y-82790000D02*
X199560000Y-84110000D01*
X199560000Y-84110000D02*
X199560000Y-88890000D01*
D22*
%TO.N,A3*%
X169840000Y-77500000D02*
X170930000Y-78590000D01*
X160540000Y-77500000D02*
X169840000Y-77500000D01*
X170930000Y-84330000D02*
X170950000Y-84350000D01*
X170930000Y-78590000D02*
X170930000Y-84330000D01*
%TO.N,A9*%
X161310000Y-96740000D02*
X162500000Y-97930000D01*
X190550000Y-95540000D02*
X190510000Y-95500000D01*
X190550000Y-96720000D02*
X190550000Y-95540000D01*
X189340000Y-97930000D02*
X190550000Y-96720000D01*
X162500000Y-97930000D02*
X189340000Y-97930000D01*
X161310000Y-92230000D02*
X161310000Y-96740000D01*
%TO.N,A5*%
X171520000Y-75810000D02*
X173150000Y-77440000D01*
X173150000Y-77440000D02*
X173150000Y-84350000D01*
X160540000Y-75810000D02*
X171520000Y-75810000D01*
%TO.N,A11*%
X166310000Y-93280000D02*
X195060000Y-93280000D01*
X195060000Y-93280000D02*
X195630000Y-93850000D01*
X195630000Y-93850000D02*
X195630000Y-95460000D01*
X195630000Y-95460000D02*
X195590000Y-95500000D01*
D21*
%TO.N,D0*%
X139710000Y-94300000D02*
X134920000Y-89510000D01*
X123230000Y-74060000D02*
X123230000Y-70630000D01*
X139710000Y-95500000D02*
X139710000Y-94300000D01*
X132140000Y-75810000D02*
X131220000Y-74890000D01*
X134920000Y-89510000D02*
X133500000Y-89510000D01*
X131220000Y-74890000D02*
X124060000Y-74890000D01*
X132140000Y-88150000D02*
X132140000Y-75810000D01*
X124060000Y-74890000D02*
X123230000Y-74060000D01*
X133500000Y-89510000D02*
X132140000Y-88150000D01*
D22*
%TO.N,A1*%
X168750000Y-80460000D02*
X168750000Y-84350000D01*
X160540000Y-79240000D02*
X167530000Y-79240000D01*
X167530000Y-79240000D02*
X168750000Y-80460000D01*
%TO.N,A0*%
X167670000Y-81460000D02*
X167670000Y-84350000D01*
X160540000Y-80070000D02*
X166280000Y-80070000D01*
X166280000Y-80070000D02*
X167670000Y-81460000D01*
%TO.N,A10*%
X193160000Y-95610000D02*
X193050000Y-95500000D01*
D21*
%TO.N,Net-(JP1-C)*%
X147920000Y-67790000D02*
X147340000Y-68370000D01*
X165130000Y-67790000D02*
X147920000Y-67790000D01*
X165790000Y-68450000D02*
X165130000Y-67790000D01*
X144830000Y-75220000D02*
X145530000Y-74520000D01*
X165790000Y-70620000D02*
X165790000Y-68450000D01*
X144830000Y-89630000D02*
X144830000Y-75220000D01*
X145540000Y-74530000D02*
X147330000Y-74530000D01*
X145530000Y-74520000D02*
X145540000Y-74530000D01*
X144850000Y-89650000D02*
X144830000Y-89630000D01*
X147340000Y-68370000D02*
X147340000Y-74530000D01*
%TO.N,Net-(JP2-C)*%
X146090000Y-89590000D02*
X146150000Y-89650000D01*
X146090000Y-85870000D02*
X146090000Y-89590000D01*
X146630000Y-85910000D02*
X146590000Y-85870000D01*
%TO.N,Net-(JP3-C)*%
X149190000Y-70690000D02*
X149130000Y-70630000D01*
X148630000Y-74530000D02*
X148630000Y-70630000D01*
%TO.N,Net-(U1-O2)*%
X128310000Y-79320000D02*
X128320000Y-79310000D01*
X155740000Y-79100000D02*
X156700000Y-80060000D01*
X159630000Y-81930000D02*
X164930000Y-81930000D01*
X157760000Y-80060000D02*
X159630000Y-81930000D01*
X128310000Y-85870000D02*
X128310000Y-79320000D01*
X156700000Y-80060000D02*
X157760000Y-80060000D01*
%TD*%
%TA.AperFunction,Conductor*%
%TO.N,GND*%
G36*
X166225270Y-96261717D02*
G01*
X166225270Y-96261716D01*
X166264622Y-96207555D01*
X166269232Y-96198507D01*
X166317205Y-96147709D01*
X166385025Y-96130912D01*
X166451161Y-96153447D01*
X166490204Y-96198504D01*
X166494949Y-96207817D01*
X166619890Y-96379786D01*
X166770213Y-96530109D01*
X166942179Y-96655048D01*
X166942181Y-96655049D01*
X166942184Y-96655051D01*
X167131588Y-96751557D01*
X167333757Y-96817246D01*
X167543713Y-96850500D01*
X167543714Y-96850500D01*
X167756286Y-96850500D01*
X167756287Y-96850500D01*
X167966243Y-96817246D01*
X168168412Y-96751557D01*
X168357816Y-96655051D01*
X168444138Y-96592335D01*
X168529786Y-96530109D01*
X168529788Y-96530106D01*
X168529792Y-96530104D01*
X168680104Y-96379792D01*
X168680106Y-96379788D01*
X168680109Y-96379786D01*
X168805048Y-96207820D01*
X168805047Y-96207820D01*
X168805051Y-96207816D01*
X168809514Y-96199054D01*
X168857488Y-96148259D01*
X168925308Y-96131463D01*
X168991444Y-96153999D01*
X169030486Y-96199056D01*
X169034951Y-96207820D01*
X169159890Y-96379786D01*
X169310213Y-96530109D01*
X169482179Y-96655048D01*
X169482181Y-96655049D01*
X169482184Y-96655051D01*
X169671588Y-96751557D01*
X169873757Y-96817246D01*
X170083713Y-96850500D01*
X170083714Y-96850500D01*
X170296286Y-96850500D01*
X170296287Y-96850500D01*
X170506243Y-96817246D01*
X170708412Y-96751557D01*
X170897816Y-96655051D01*
X170984138Y-96592335D01*
X171069786Y-96530109D01*
X171069788Y-96530106D01*
X171069792Y-96530104D01*
X171220104Y-96379792D01*
X171220106Y-96379788D01*
X171220109Y-96379786D01*
X171345048Y-96207820D01*
X171345047Y-96207820D01*
X171345051Y-96207816D01*
X171349514Y-96199054D01*
X171397488Y-96148259D01*
X171465308Y-96131463D01*
X171531444Y-96153999D01*
X171570486Y-96199056D01*
X171574951Y-96207820D01*
X171699890Y-96379786D01*
X171850213Y-96530109D01*
X172022179Y-96655048D01*
X172022181Y-96655049D01*
X172022184Y-96655051D01*
X172211588Y-96751557D01*
X172413757Y-96817246D01*
X172623713Y-96850500D01*
X172623714Y-96850500D01*
X172836286Y-96850500D01*
X172836287Y-96850500D01*
X173046243Y-96817246D01*
X173248412Y-96751557D01*
X173437816Y-96655051D01*
X173524138Y-96592335D01*
X173609786Y-96530109D01*
X173609788Y-96530106D01*
X173609792Y-96530104D01*
X173760104Y-96379792D01*
X173760106Y-96379788D01*
X173760109Y-96379786D01*
X173885048Y-96207820D01*
X173885047Y-96207820D01*
X173885051Y-96207816D01*
X173889514Y-96199054D01*
X173937488Y-96148259D01*
X174005308Y-96131463D01*
X174071444Y-96153999D01*
X174110486Y-96199056D01*
X174114951Y-96207820D01*
X174239890Y-96379786D01*
X174390213Y-96530109D01*
X174562179Y-96655048D01*
X174562181Y-96655049D01*
X174562184Y-96655051D01*
X174751588Y-96751557D01*
X174953757Y-96817246D01*
X175163713Y-96850500D01*
X175163714Y-96850500D01*
X175376286Y-96850500D01*
X175376287Y-96850500D01*
X175586243Y-96817246D01*
X175788412Y-96751557D01*
X175977816Y-96655051D01*
X176064138Y-96592335D01*
X176149786Y-96530109D01*
X176149788Y-96530106D01*
X176149792Y-96530104D01*
X176300104Y-96379792D01*
X176300106Y-96379788D01*
X176300109Y-96379786D01*
X176425048Y-96207820D01*
X176425047Y-96207820D01*
X176425051Y-96207816D01*
X176429514Y-96199054D01*
X176477488Y-96148259D01*
X176545308Y-96131463D01*
X176611444Y-96153999D01*
X176650486Y-96199056D01*
X176654951Y-96207820D01*
X176779890Y-96379786D01*
X176930213Y-96530109D01*
X177102179Y-96655048D01*
X177102181Y-96655049D01*
X177102184Y-96655051D01*
X177291588Y-96751557D01*
X177493757Y-96817246D01*
X177703713Y-96850500D01*
X177703714Y-96850500D01*
X177916286Y-96850500D01*
X177916287Y-96850500D01*
X178126243Y-96817246D01*
X178328412Y-96751557D01*
X178517816Y-96655051D01*
X178604138Y-96592335D01*
X178689786Y-96530109D01*
X178689788Y-96530106D01*
X178689792Y-96530104D01*
X178840104Y-96379792D01*
X178840106Y-96379788D01*
X178840109Y-96379786D01*
X178965048Y-96207820D01*
X178965047Y-96207820D01*
X178965051Y-96207816D01*
X178969514Y-96199054D01*
X179017488Y-96148259D01*
X179085308Y-96131463D01*
X179151444Y-96153999D01*
X179190486Y-96199056D01*
X179194951Y-96207820D01*
X179319890Y-96379786D01*
X179470213Y-96530109D01*
X179642179Y-96655048D01*
X179642181Y-96655049D01*
X179642184Y-96655051D01*
X179831588Y-96751557D01*
X180033757Y-96817246D01*
X180243713Y-96850500D01*
X180243714Y-96850500D01*
X180456286Y-96850500D01*
X180456287Y-96850500D01*
X180666243Y-96817246D01*
X180868412Y-96751557D01*
X181057816Y-96655051D01*
X181144138Y-96592335D01*
X181229786Y-96530109D01*
X181229788Y-96530106D01*
X181229792Y-96530104D01*
X181380104Y-96379792D01*
X181380106Y-96379788D01*
X181380109Y-96379786D01*
X181505048Y-96207820D01*
X181505047Y-96207820D01*
X181505051Y-96207816D01*
X181509514Y-96199054D01*
X181557488Y-96148259D01*
X181625308Y-96131463D01*
X181691444Y-96153999D01*
X181730486Y-96199056D01*
X181734951Y-96207820D01*
X181859890Y-96379786D01*
X182010213Y-96530109D01*
X182182179Y-96655048D01*
X182182181Y-96655049D01*
X182182184Y-96655051D01*
X182371588Y-96751557D01*
X182573757Y-96817246D01*
X182783713Y-96850500D01*
X182783714Y-96850500D01*
X182996286Y-96850500D01*
X182996287Y-96850500D01*
X183206243Y-96817246D01*
X183408412Y-96751557D01*
X183597816Y-96655051D01*
X183684138Y-96592335D01*
X183769786Y-96530109D01*
X183769788Y-96530106D01*
X183769792Y-96530104D01*
X183920104Y-96379792D01*
X183920106Y-96379788D01*
X183920109Y-96379786D01*
X184045048Y-96207820D01*
X184045047Y-96207820D01*
X184045051Y-96207816D01*
X184049514Y-96199054D01*
X184097488Y-96148259D01*
X184165308Y-96131463D01*
X184231444Y-96153999D01*
X184270486Y-96199056D01*
X184274951Y-96207820D01*
X184399890Y-96379786D01*
X184550213Y-96530109D01*
X184722179Y-96655048D01*
X184722181Y-96655049D01*
X184722184Y-96655051D01*
X184911588Y-96751557D01*
X185113757Y-96817246D01*
X185323713Y-96850500D01*
X185323714Y-96850500D01*
X185536286Y-96850500D01*
X185536287Y-96850500D01*
X185746243Y-96817246D01*
X185948412Y-96751557D01*
X186137816Y-96655051D01*
X186224138Y-96592335D01*
X186309786Y-96530109D01*
X186309788Y-96530106D01*
X186309792Y-96530104D01*
X186460104Y-96379792D01*
X186460106Y-96379788D01*
X186460109Y-96379786D01*
X186585048Y-96207820D01*
X186585047Y-96207820D01*
X186585051Y-96207816D01*
X186589514Y-96199054D01*
X186637488Y-96148259D01*
X186705308Y-96131463D01*
X186771444Y-96153999D01*
X186810486Y-96199056D01*
X186814951Y-96207820D01*
X186939890Y-96379786D01*
X187090213Y-96530109D01*
X187262179Y-96655048D01*
X187262181Y-96655049D01*
X187262184Y-96655051D01*
X187451588Y-96751557D01*
X187653757Y-96817246D01*
X187863713Y-96850500D01*
X187863714Y-96850500D01*
X188076286Y-96850500D01*
X188076287Y-96850500D01*
X188286243Y-96817246D01*
X188488412Y-96751557D01*
X188677816Y-96655051D01*
X188764138Y-96592335D01*
X188849786Y-96530109D01*
X188849788Y-96530106D01*
X188849792Y-96530104D01*
X189000104Y-96379792D01*
X189000106Y-96379788D01*
X189000109Y-96379786D01*
X189125048Y-96207820D01*
X189125047Y-96207820D01*
X189125051Y-96207816D01*
X189129514Y-96199054D01*
X189177488Y-96148259D01*
X189245308Y-96131463D01*
X189311444Y-96153999D01*
X189350486Y-96199056D01*
X189354951Y-96207820D01*
X189479890Y-96379786D01*
X189602042Y-96501938D01*
X189635527Y-96563261D01*
X189630543Y-96632953D01*
X189602042Y-96677300D01*
X189086162Y-97193181D01*
X189024839Y-97226666D01*
X188998481Y-97229500D01*
X162841519Y-97229500D01*
X162812078Y-97220855D01*
X162782092Y-97214332D01*
X162777076Y-97210577D01*
X162774480Y-97209815D01*
X162753838Y-97193181D01*
X162619491Y-97058834D01*
X162586006Y-96997511D01*
X162590990Y-96927819D01*
X162632862Y-96871886D01*
X162687771Y-96848680D01*
X162886243Y-96817246D01*
X163088412Y-96751557D01*
X163277816Y-96655051D01*
X163364138Y-96592335D01*
X163449786Y-96530109D01*
X163449788Y-96530106D01*
X163449792Y-96530104D01*
X163600104Y-96379792D01*
X163600106Y-96379788D01*
X163600109Y-96379786D01*
X163685890Y-96261717D01*
X163725051Y-96207816D01*
X163729793Y-96198508D01*
X163777763Y-96147711D01*
X163845583Y-96130911D01*
X163911719Y-96153445D01*
X163950763Y-96198500D01*
X163955373Y-96207547D01*
X163994728Y-96261716D01*
X164627037Y-95629408D01*
X164644075Y-95692993D01*
X164709901Y-95807007D01*
X164802993Y-95900099D01*
X164917007Y-95965925D01*
X164980590Y-95982962D01*
X164348282Y-96615269D01*
X164348282Y-96615270D01*
X164402449Y-96654624D01*
X164591782Y-96751095D01*
X164793870Y-96816757D01*
X165003754Y-96850000D01*
X165216246Y-96850000D01*
X165426127Y-96816757D01*
X165426130Y-96816757D01*
X165628217Y-96751095D01*
X165817554Y-96654622D01*
X165871716Y-96615270D01*
X165871717Y-96615270D01*
X165239408Y-95982962D01*
X165302993Y-95965925D01*
X165417007Y-95900099D01*
X165510099Y-95807007D01*
X165575925Y-95692993D01*
X165592962Y-95629408D01*
X166225270Y-96261717D01*
G37*
%TD.AperFunction*%
%TA.AperFunction,Conductor*%
G36*
X206932539Y-65110185D02*
G01*
X206978294Y-65162989D01*
X206989500Y-65214500D01*
X206989500Y-94082500D01*
X206982955Y-94104786D01*
X206980881Y-94127923D01*
X206973296Y-94137682D01*
X206969815Y-94149539D01*
X206952262Y-94164748D01*
X206938007Y-94183092D01*
X206926349Y-94187201D01*
X206917011Y-94195294D01*
X206894022Y-94198599D01*
X206872113Y-94206324D01*
X206856700Y-94203965D01*
X206847853Y-94205238D01*
X206836960Y-94203171D01*
X206829413Y-94201386D01*
X206707483Y-94155909D01*
X206647873Y-94149500D01*
X206610035Y-94149500D01*
X206595960Y-94146171D01*
X206577662Y-94135746D01*
X206557461Y-94129815D01*
X206547917Y-94118801D01*
X206535251Y-94111585D01*
X206525493Y-94092922D01*
X206511706Y-94077011D01*
X206507809Y-94059098D01*
X206502878Y-94049667D01*
X206503718Y-94040294D01*
X206500500Y-94025500D01*
X206500500Y-83526079D01*
X206471659Y-83381092D01*
X206471658Y-83381091D01*
X206471658Y-83381087D01*
X206468288Y-83372952D01*
X206415087Y-83244511D01*
X206415080Y-83244498D01*
X206332952Y-83121585D01*
X206332951Y-83121584D01*
X206228416Y-83017049D01*
X205879783Y-82668416D01*
X204818421Y-81607052D01*
X204818414Y-81607046D01*
X204744729Y-81557812D01*
X204744729Y-81557813D01*
X204695491Y-81524913D01*
X204558917Y-81468343D01*
X204558907Y-81468340D01*
X204413920Y-81439500D01*
X204413918Y-81439500D01*
X202294033Y-81439500D01*
X202226994Y-81419815D01*
X202181239Y-81367011D01*
X202171295Y-81297853D01*
X202200320Y-81234297D01*
X202255714Y-81197569D01*
X202449031Y-81134755D01*
X202631349Y-81041859D01*
X202675921Y-81009474D01*
X201996446Y-80330000D01*
X202002661Y-80330000D01*
X202104394Y-80302741D01*
X202195606Y-80250080D01*
X202270080Y-80175606D01*
X202322741Y-80084394D01*
X202350000Y-79982661D01*
X202350000Y-79976447D01*
X203029474Y-80655921D01*
X203061859Y-80611349D01*
X203154755Y-80429031D01*
X203217990Y-80234417D01*
X203250000Y-80032317D01*
X203250000Y-79827682D01*
X203217990Y-79625582D01*
X203154755Y-79430968D01*
X203061859Y-79248650D01*
X203029474Y-79204077D01*
X203029474Y-79204076D01*
X202350000Y-79883551D01*
X202350000Y-79877339D01*
X202322741Y-79775606D01*
X202270080Y-79684394D01*
X202195606Y-79609920D01*
X202104394Y-79557259D01*
X202002661Y-79530000D01*
X201996446Y-79530000D01*
X202675922Y-78850524D01*
X202675921Y-78850523D01*
X202631359Y-78818147D01*
X202631350Y-78818141D01*
X202449031Y-78725244D01*
X202254417Y-78662009D01*
X202052317Y-78630000D01*
X201847683Y-78630000D01*
X201645582Y-78662009D01*
X201450968Y-78725244D01*
X201268644Y-78818143D01*
X201224077Y-78850523D01*
X201224077Y-78850524D01*
X201903554Y-79530000D01*
X201897339Y-79530000D01*
X201795606Y-79557259D01*
X201704394Y-79609920D01*
X201629920Y-79684394D01*
X201577259Y-79775606D01*
X201550000Y-79877339D01*
X201550000Y-79883553D01*
X200870524Y-79204077D01*
X200870523Y-79204077D01*
X200838143Y-79248644D01*
X200745244Y-79430968D01*
X200682009Y-79625582D01*
X200650000Y-79827682D01*
X200650000Y-80032317D01*
X200682009Y-80234417D01*
X200745244Y-80429031D01*
X200840352Y-80615690D01*
X200839247Y-80616252D01*
X200855993Y-80678156D01*
X200834877Y-80744758D01*
X200781105Y-80789372D01*
X200732021Y-80799500D01*
X197402229Y-80799500D01*
X197335190Y-80779815D01*
X197314548Y-80763181D01*
X195536832Y-78985464D01*
X195195920Y-78644552D01*
X195162435Y-78583229D01*
X195167419Y-78513537D01*
X195209291Y-78457604D01*
X195274755Y-78433187D01*
X195343028Y-78448039D01*
X195348698Y-78451332D01*
X195450875Y-78514356D01*
X195450880Y-78514358D01*
X195617302Y-78569505D01*
X195617309Y-78569506D01*
X195720019Y-78579999D01*
X196069999Y-78579999D01*
X196070000Y-78579998D01*
X196070000Y-77595686D01*
X196074394Y-77600080D01*
X196165606Y-77652741D01*
X196267339Y-77680000D01*
X196372661Y-77680000D01*
X196474394Y-77652741D01*
X196565606Y-77600080D01*
X196570000Y-77595686D01*
X196570000Y-78579999D01*
X196919972Y-78579999D01*
X196919986Y-78579998D01*
X197022697Y-78569505D01*
X197189119Y-78514358D01*
X197189124Y-78514356D01*
X197338345Y-78422315D01*
X197462315Y-78298345D01*
X197554356Y-78149124D01*
X197554358Y-78149119D01*
X197609505Y-77982697D01*
X197609506Y-77982690D01*
X197619999Y-77879986D01*
X197620000Y-77879973D01*
X197620000Y-77530000D01*
X196635686Y-77530000D01*
X196640080Y-77525606D01*
X196692741Y-77434394D01*
X196720000Y-77332661D01*
X196720000Y-77227339D01*
X196692741Y-77125606D01*
X196640080Y-77034394D01*
X196635686Y-77030000D01*
X197619999Y-77030000D01*
X197619999Y-76680028D01*
X197619998Y-76680013D01*
X197609505Y-76577302D01*
X197554358Y-76410880D01*
X197554356Y-76410875D01*
X197462315Y-76261654D01*
X197338345Y-76137684D01*
X197189124Y-76045643D01*
X197189119Y-76045641D01*
X197022697Y-75990494D01*
X197022690Y-75990493D01*
X196919986Y-75980000D01*
X196570000Y-75980000D01*
X196570000Y-76964314D01*
X196565606Y-76959920D01*
X196474394Y-76907259D01*
X196372661Y-76880000D01*
X196267339Y-76880000D01*
X196165606Y-76907259D01*
X196074394Y-76959920D01*
X196070000Y-76964314D01*
X196070000Y-75980000D01*
X195720028Y-75980000D01*
X195720012Y-75980001D01*
X195617302Y-75990494D01*
X195450880Y-76045641D01*
X195450875Y-76045643D01*
X195301654Y-76137684D01*
X195177684Y-76261654D01*
X195085643Y-76410875D01*
X195085641Y-76410880D01*
X195058407Y-76493068D01*
X195018634Y-76550513D01*
X194954118Y-76577336D01*
X194885342Y-76565021D01*
X194840382Y-76526949D01*
X194815766Y-76493068D01*
X194771966Y-76432781D01*
X194627219Y-76288034D01*
X194627213Y-76288028D01*
X194461613Y-76167715D01*
X194461612Y-76167714D01*
X194461610Y-76167713D01*
X194369670Y-76120867D01*
X194279223Y-76074781D01*
X194084534Y-76011522D01*
X193909995Y-75983878D01*
X193882352Y-75979500D01*
X193677648Y-75979500D01*
X193653329Y-75983351D01*
X193475465Y-76011522D01*
X193280776Y-76074781D01*
X193098386Y-76167715D01*
X192932786Y-76288028D01*
X192788028Y-76432786D01*
X192667715Y-76598386D01*
X192620485Y-76691080D01*
X192572510Y-76741876D01*
X192504689Y-76758671D01*
X192438554Y-76736134D01*
X192399515Y-76691080D01*
X192384838Y-76662275D01*
X192352287Y-76598390D01*
X192339764Y-76581153D01*
X192231971Y-76432786D01*
X192087213Y-76288028D01*
X191921613Y-76167715D01*
X191921612Y-76167714D01*
X191921610Y-76167713D01*
X191829670Y-76120867D01*
X191739223Y-76074781D01*
X191544534Y-76011522D01*
X191369995Y-75983878D01*
X191342352Y-75979500D01*
X191137648Y-75979500D01*
X191113329Y-75983351D01*
X190935465Y-76011522D01*
X190740776Y-76074781D01*
X190558386Y-76167715D01*
X190392786Y-76288028D01*
X190248028Y-76432786D01*
X190127713Y-76598388D01*
X190080203Y-76691630D01*
X190032228Y-76742426D01*
X189964407Y-76759220D01*
X189898272Y-76736682D01*
X189859234Y-76691628D01*
X189811861Y-76598652D01*
X189779474Y-76554077D01*
X189779474Y-76554076D01*
X189100000Y-77233551D01*
X189100000Y-77227339D01*
X189072741Y-77125606D01*
X189020080Y-77034394D01*
X188945606Y-76959920D01*
X188854394Y-76907259D01*
X188752661Y-76880000D01*
X188746446Y-76880000D01*
X189425922Y-76200524D01*
X189425921Y-76200523D01*
X189381359Y-76168147D01*
X189381350Y-76168141D01*
X189199031Y-76075244D01*
X189004417Y-76012009D01*
X188802317Y-75980000D01*
X188597683Y-75980000D01*
X188395582Y-76012009D01*
X188200968Y-76075244D01*
X188018644Y-76168143D01*
X187974077Y-76200523D01*
X187974077Y-76200524D01*
X188653554Y-76880000D01*
X188647339Y-76880000D01*
X188545606Y-76907259D01*
X188454394Y-76959920D01*
X188379920Y-77034394D01*
X188327259Y-77125606D01*
X188300000Y-77227339D01*
X188300000Y-77233553D01*
X187620524Y-76554077D01*
X187620523Y-76554077D01*
X187588143Y-76598644D01*
X187540485Y-76692180D01*
X187492510Y-76742976D01*
X187424689Y-76759771D01*
X187358554Y-76737233D01*
X187319515Y-76692180D01*
X187271859Y-76598650D01*
X187239474Y-76554077D01*
X187239474Y-76554076D01*
X186560000Y-77233551D01*
X186560000Y-77227339D01*
X186532741Y-77125606D01*
X186480080Y-77034394D01*
X186405606Y-76959920D01*
X186314394Y-76907259D01*
X186212661Y-76880000D01*
X186206446Y-76880000D01*
X186885922Y-76200524D01*
X186885921Y-76200523D01*
X186841359Y-76168147D01*
X186841350Y-76168141D01*
X186659031Y-76075244D01*
X186464417Y-76012009D01*
X186262317Y-75980000D01*
X186057683Y-75980000D01*
X185855582Y-76012009D01*
X185660968Y-76075244D01*
X185478644Y-76168143D01*
X185434077Y-76200523D01*
X185434077Y-76200524D01*
X186113554Y-76880000D01*
X186107339Y-76880000D01*
X186005606Y-76907259D01*
X185914394Y-76959920D01*
X185839920Y-77034394D01*
X185787259Y-77125606D01*
X185760000Y-77227339D01*
X185760000Y-77233553D01*
X185080524Y-76554077D01*
X185080523Y-76554077D01*
X185048143Y-76598644D01*
X185000765Y-76691630D01*
X184952790Y-76742426D01*
X184884969Y-76759221D01*
X184818834Y-76736683D01*
X184779795Y-76691630D01*
X184776669Y-76685495D01*
X184732287Y-76598390D01*
X184732285Y-76598387D01*
X184732284Y-76598385D01*
X184611971Y-76432786D01*
X184467213Y-76288028D01*
X184301613Y-76167715D01*
X184301612Y-76167714D01*
X184301610Y-76167713D01*
X184209670Y-76120867D01*
X184119223Y-76074781D01*
X183924534Y-76011522D01*
X183749995Y-75983878D01*
X183722352Y-75979500D01*
X183517648Y-75979500D01*
X183493329Y-75983351D01*
X183315465Y-76011522D01*
X183120776Y-76074781D01*
X182938386Y-76167715D01*
X182772786Y-76288028D01*
X182628028Y-76432786D01*
X182507715Y-76598386D01*
X182460485Y-76691080D01*
X182412510Y-76741876D01*
X182344689Y-76758671D01*
X182278554Y-76736134D01*
X182239515Y-76691080D01*
X182224838Y-76662275D01*
X182192287Y-76598390D01*
X182179764Y-76581153D01*
X182071971Y-76432786D01*
X181927213Y-76288028D01*
X181761613Y-76167715D01*
X181761612Y-76167714D01*
X181761610Y-76167713D01*
X181669670Y-76120867D01*
X181579223Y-76074781D01*
X181384534Y-76011522D01*
X181209995Y-75983878D01*
X181182352Y-75979500D01*
X180977648Y-75979500D01*
X180953329Y-75983351D01*
X180775465Y-76011522D01*
X180580776Y-76074781D01*
X180398386Y-76167715D01*
X180232786Y-76288028D01*
X180088028Y-76432786D01*
X179967713Y-76598388D01*
X179920203Y-76691630D01*
X179872228Y-76742426D01*
X179804407Y-76759220D01*
X179738272Y-76736682D01*
X179699234Y-76691628D01*
X179651861Y-76598652D01*
X179619474Y-76554077D01*
X179619474Y-76554076D01*
X178940000Y-77233551D01*
X178940000Y-77227339D01*
X178912741Y-77125606D01*
X178860080Y-77034394D01*
X178785606Y-76959920D01*
X178694394Y-76907259D01*
X178592661Y-76880000D01*
X178586446Y-76880000D01*
X179265922Y-76200524D01*
X179265921Y-76200523D01*
X179221359Y-76168147D01*
X179221350Y-76168141D01*
X179039031Y-76075244D01*
X178844417Y-76012009D01*
X178642317Y-75980000D01*
X178437683Y-75980000D01*
X178235582Y-76012009D01*
X178040968Y-76075244D01*
X177858644Y-76168143D01*
X177814077Y-76200523D01*
X177814077Y-76200524D01*
X178493554Y-76880000D01*
X178487339Y-76880000D01*
X178385606Y-76907259D01*
X178294394Y-76959920D01*
X178219920Y-77034394D01*
X178167259Y-77125606D01*
X178140000Y-77227339D01*
X178140000Y-77233553D01*
X177460524Y-76554077D01*
X177460523Y-76554077D01*
X177428143Y-76598644D01*
X177335244Y-76780968D01*
X177272009Y-76975582D01*
X177240000Y-77177682D01*
X177240000Y-77382317D01*
X177272009Y-77584417D01*
X177335244Y-77779031D01*
X177428141Y-77961350D01*
X177428147Y-77961359D01*
X177460523Y-78005921D01*
X177460524Y-78005922D01*
X178140000Y-77326446D01*
X178140000Y-77332661D01*
X178167259Y-77434394D01*
X178219920Y-77525606D01*
X178294394Y-77600080D01*
X178385606Y-77652741D01*
X178487339Y-77680000D01*
X178493553Y-77680000D01*
X177814076Y-78359474D01*
X177858650Y-78391859D01*
X178040968Y-78484755D01*
X178235582Y-78547990D01*
X178437683Y-78580000D01*
X178642317Y-78580000D01*
X178844417Y-78547990D01*
X179039031Y-78484755D01*
X179221349Y-78391859D01*
X179265921Y-78359474D01*
X178586447Y-77680000D01*
X178592661Y-77680000D01*
X178694394Y-77652741D01*
X178785606Y-77600080D01*
X178860080Y-77525606D01*
X178912741Y-77434394D01*
X178940000Y-77332661D01*
X178940000Y-77326448D01*
X179619474Y-78005922D01*
X179619474Y-78005921D01*
X179651861Y-77961347D01*
X179651861Y-77961346D01*
X179699234Y-77868371D01*
X179747208Y-77817575D01*
X179815028Y-77800779D01*
X179881164Y-77823316D01*
X179920203Y-77868369D01*
X179967713Y-77961611D01*
X180088028Y-78127213D01*
X180232786Y-78271971D01*
X180367684Y-78369978D01*
X180398390Y-78392287D01*
X180507809Y-78448039D01*
X180580776Y-78485218D01*
X180580778Y-78485218D01*
X180580781Y-78485220D01*
X180670459Y-78514358D01*
X180775465Y-78548477D01*
X180876557Y-78564488D01*
X180977648Y-78580500D01*
X180977649Y-78580500D01*
X181182351Y-78580500D01*
X181182352Y-78580500D01*
X181384534Y-78548477D01*
X181579219Y-78485220D01*
X181761610Y-78392287D01*
X181887030Y-78301165D01*
X181927213Y-78271971D01*
X181927215Y-78271968D01*
X181927219Y-78271966D01*
X182071966Y-78127219D01*
X182071968Y-78127215D01*
X182071971Y-78127213D01*
X182192284Y-77961614D01*
X182192286Y-77961611D01*
X182192287Y-77961610D01*
X182239516Y-77868917D01*
X182287489Y-77818123D01*
X182355310Y-77801328D01*
X182421445Y-77823865D01*
X182460483Y-77868917D01*
X182504348Y-77955006D01*
X182507715Y-77961614D01*
X182628028Y-78127213D01*
X182772786Y-78271971D01*
X182907684Y-78369978D01*
X182938390Y-78392287D01*
X183047809Y-78448039D01*
X183120776Y-78485218D01*
X183120778Y-78485218D01*
X183120781Y-78485220D01*
X183210459Y-78514358D01*
X183315465Y-78548477D01*
X183416557Y-78564488D01*
X183517648Y-78580500D01*
X183517649Y-78580500D01*
X183722351Y-78580500D01*
X183722352Y-78580500D01*
X183924534Y-78548477D01*
X184119219Y-78485220D01*
X184301610Y-78392287D01*
X184427030Y-78301165D01*
X184467213Y-78271971D01*
X184467215Y-78271968D01*
X184467219Y-78271966D01*
X184611966Y-78127219D01*
X184611968Y-78127215D01*
X184611971Y-78127213D01*
X184700093Y-78005921D01*
X184732287Y-77961610D01*
X184779795Y-77868369D01*
X184827769Y-77817573D01*
X184895590Y-77800778D01*
X184961725Y-77823315D01*
X185000765Y-77868369D01*
X185048141Y-77961350D01*
X185048147Y-77961359D01*
X185080523Y-78005921D01*
X185080524Y-78005922D01*
X185760000Y-77326446D01*
X185760000Y-77332661D01*
X185787259Y-77434394D01*
X185839920Y-77525606D01*
X185914394Y-77600080D01*
X186005606Y-77652741D01*
X186107339Y-77680000D01*
X186113553Y-77680000D01*
X185434076Y-78359474D01*
X185478650Y-78391859D01*
X185660968Y-78484755D01*
X185855582Y-78547990D01*
X186057683Y-78580000D01*
X186262317Y-78580000D01*
X186464417Y-78547990D01*
X186659031Y-78484755D01*
X186841349Y-78391859D01*
X186885921Y-78359474D01*
X186206447Y-77680000D01*
X186212661Y-77680000D01*
X186314394Y-77652741D01*
X186405606Y-77600080D01*
X186480080Y-77525606D01*
X186532741Y-77434394D01*
X186560000Y-77332661D01*
X186560000Y-77326447D01*
X187239474Y-78005921D01*
X187271861Y-77961347D01*
X187271861Y-77961346D01*
X187319515Y-77867820D01*
X187367489Y-77817024D01*
X187435310Y-77800228D01*
X187501445Y-77822765D01*
X187540485Y-77867819D01*
X187588141Y-77961350D01*
X187588147Y-77961359D01*
X187620523Y-78005921D01*
X187620524Y-78005922D01*
X188300000Y-77326446D01*
X188300000Y-77332661D01*
X188327259Y-77434394D01*
X188379920Y-77525606D01*
X188454394Y-77600080D01*
X188545606Y-77652741D01*
X188647339Y-77680000D01*
X188653553Y-77680000D01*
X187974076Y-78359474D01*
X188018650Y-78391859D01*
X188200968Y-78484755D01*
X188395582Y-78547990D01*
X188597683Y-78580000D01*
X188802317Y-78580000D01*
X189004417Y-78547990D01*
X189199031Y-78484755D01*
X189381349Y-78391859D01*
X189425921Y-78359474D01*
X188746447Y-77680000D01*
X188752661Y-77680000D01*
X188854394Y-77652741D01*
X188945606Y-77600080D01*
X189020080Y-77525606D01*
X189072741Y-77434394D01*
X189100000Y-77332661D01*
X189100000Y-77326447D01*
X189779474Y-78005921D01*
X189811861Y-77961347D01*
X189811861Y-77961346D01*
X189859234Y-77868371D01*
X189907208Y-77817575D01*
X189975028Y-77800779D01*
X190041164Y-77823316D01*
X190080203Y-77868369D01*
X190127713Y-77961611D01*
X190248028Y-78127213D01*
X190248034Y-78127219D01*
X190392781Y-78271966D01*
X190438384Y-78305098D01*
X190481050Y-78360425D01*
X190489500Y-78405416D01*
X190489500Y-79323918D01*
X190489500Y-79323920D01*
X190489499Y-79323920D01*
X190518340Y-79468907D01*
X190518343Y-79468917D01*
X190574912Y-79605488D01*
X190574918Y-79605499D01*
X190588167Y-79625326D01*
X190588169Y-79625331D01*
X190657046Y-79728414D01*
X190657052Y-79728421D01*
X194301584Y-83372952D01*
X194301586Y-83372954D01*
X194331058Y-83392645D01*
X194375270Y-83422186D01*
X194424505Y-83455084D01*
X194424506Y-83455084D01*
X194424507Y-83455085D01*
X194424509Y-83455086D01*
X194561082Y-83511656D01*
X194561087Y-83511658D01*
X194561091Y-83511658D01*
X194561092Y-83511659D01*
X194706079Y-83540500D01*
X194706082Y-83540500D01*
X194706083Y-83540500D01*
X194853917Y-83540500D01*
X195607075Y-83540500D01*
X195674114Y-83560185D01*
X195719869Y-83612989D01*
X195729813Y-83682147D01*
X195700788Y-83745703D01*
X195663370Y-83774984D01*
X195638391Y-83787711D01*
X195638389Y-83787712D01*
X195472786Y-83908028D01*
X195328028Y-84052786D01*
X195207715Y-84218386D01*
X195160485Y-84311080D01*
X195112510Y-84361876D01*
X195044689Y-84378671D01*
X194978554Y-84356134D01*
X194939515Y-84311080D01*
X194938883Y-84309840D01*
X194892287Y-84218390D01*
X194884556Y-84207749D01*
X194771971Y-84052786D01*
X194627213Y-83908028D01*
X194461613Y-83787715D01*
X194461612Y-83787714D01*
X194461610Y-83787713D01*
X194379161Y-83745703D01*
X194279223Y-83694781D01*
X194084534Y-83631522D01*
X193909995Y-83603878D01*
X193882352Y-83599500D01*
X193677648Y-83599500D01*
X193653329Y-83603351D01*
X193475465Y-83631522D01*
X193280776Y-83694781D01*
X193098386Y-83787715D01*
X192932786Y-83908028D01*
X192788028Y-84052786D01*
X192667715Y-84218386D01*
X192620485Y-84311080D01*
X192572510Y-84361876D01*
X192504689Y-84378671D01*
X192438554Y-84356134D01*
X192399515Y-84311080D01*
X192398883Y-84309840D01*
X192352287Y-84218390D01*
X192344556Y-84207749D01*
X192231971Y-84052786D01*
X192087213Y-83908028D01*
X191921613Y-83787715D01*
X191921612Y-83787714D01*
X191921610Y-83787713D01*
X191839161Y-83745703D01*
X191739223Y-83694781D01*
X191544534Y-83631522D01*
X191369995Y-83603878D01*
X191342352Y-83599500D01*
X191137648Y-83599500D01*
X191113329Y-83603351D01*
X190935465Y-83631522D01*
X190740776Y-83694781D01*
X190558386Y-83787715D01*
X190392786Y-83908028D01*
X190248028Y-84052786D01*
X190127715Y-84218386D01*
X190080485Y-84311080D01*
X190032510Y-84361876D01*
X189964689Y-84378671D01*
X189898554Y-84356134D01*
X189859515Y-84311080D01*
X189858883Y-84309840D01*
X189812287Y-84218390D01*
X189804556Y-84207749D01*
X189691971Y-84052786D01*
X189547213Y-83908028D01*
X189381613Y-83787715D01*
X189381612Y-83787714D01*
X189381610Y-83787713D01*
X189299161Y-83745703D01*
X189199223Y-83694781D01*
X189004534Y-83631522D01*
X188829995Y-83603878D01*
X188802352Y-83599500D01*
X188597648Y-83599500D01*
X188573329Y-83603351D01*
X188395465Y-83631522D01*
X188200776Y-83694781D01*
X188018386Y-83787715D01*
X187852786Y-83908028D01*
X187708028Y-84052786D01*
X187587715Y-84218386D01*
X187540485Y-84311080D01*
X187492510Y-84361876D01*
X187424689Y-84378671D01*
X187358554Y-84356134D01*
X187319515Y-84311080D01*
X187318883Y-84309840D01*
X187272287Y-84218390D01*
X187264556Y-84207749D01*
X187151971Y-84052786D01*
X187007213Y-83908028D01*
X186841613Y-83787715D01*
X186841612Y-83787714D01*
X186841610Y-83787713D01*
X186759161Y-83745703D01*
X186659223Y-83694781D01*
X186464534Y-83631522D01*
X186289995Y-83603878D01*
X186262352Y-83599500D01*
X186057648Y-83599500D01*
X186033329Y-83603351D01*
X185855465Y-83631522D01*
X185660776Y-83694781D01*
X185478386Y-83787715D01*
X185312786Y-83908028D01*
X185168028Y-84052786D01*
X185047715Y-84218386D01*
X185000485Y-84311080D01*
X184952510Y-84361876D01*
X184884689Y-84378671D01*
X184818554Y-84356134D01*
X184779515Y-84311080D01*
X184778883Y-84309840D01*
X184732287Y-84218390D01*
X184724556Y-84207749D01*
X184611971Y-84052786D01*
X184467213Y-83908028D01*
X184301613Y-83787715D01*
X184301612Y-83787714D01*
X184301610Y-83787713D01*
X184219161Y-83745703D01*
X184119223Y-83694781D01*
X183924534Y-83631522D01*
X183749995Y-83603878D01*
X183722352Y-83599500D01*
X183517648Y-83599500D01*
X183493329Y-83603351D01*
X183315465Y-83631522D01*
X183120776Y-83694781D01*
X182938386Y-83787715D01*
X182772786Y-83908028D01*
X182628028Y-84052786D01*
X182507715Y-84218386D01*
X182460485Y-84311080D01*
X182412510Y-84361876D01*
X182344689Y-84378671D01*
X182278554Y-84356134D01*
X182239515Y-84311080D01*
X182238883Y-84309840D01*
X182192287Y-84218390D01*
X182184556Y-84207749D01*
X182071971Y-84052786D01*
X181927213Y-83908028D01*
X181761613Y-83787715D01*
X181761612Y-83787714D01*
X181761610Y-83787713D01*
X181679161Y-83745703D01*
X181579223Y-83694781D01*
X181384534Y-83631522D01*
X181209995Y-83603878D01*
X181182352Y-83599500D01*
X180977648Y-83599500D01*
X180953329Y-83603351D01*
X180775465Y-83631522D01*
X180580776Y-83694781D01*
X180398386Y-83787715D01*
X180232786Y-83908028D01*
X180088028Y-84052786D01*
X179967715Y-84218386D01*
X179920485Y-84311080D01*
X179872510Y-84361876D01*
X179804689Y-84378671D01*
X179738554Y-84356134D01*
X179699515Y-84311080D01*
X179698883Y-84309840D01*
X179652287Y-84218390D01*
X179644556Y-84207749D01*
X179531971Y-84052786D01*
X179387213Y-83908028D01*
X179221613Y-83787715D01*
X179221612Y-83787714D01*
X179221610Y-83787713D01*
X179139161Y-83745703D01*
X179039223Y-83694781D01*
X178844534Y-83631522D01*
X178669995Y-83603878D01*
X178642352Y-83599500D01*
X178437648Y-83599500D01*
X178413329Y-83603351D01*
X178235465Y-83631522D01*
X178040776Y-83694781D01*
X177858386Y-83787715D01*
X177692786Y-83908028D01*
X177548028Y-84052786D01*
X177427715Y-84218386D01*
X177334781Y-84400776D01*
X177271522Y-84595465D01*
X177240628Y-84790524D01*
X177239500Y-84797648D01*
X177239500Y-85002352D01*
X177243878Y-85029995D01*
X177271522Y-85204534D01*
X177334781Y-85399223D01*
X177384734Y-85497259D01*
X177424386Y-85575081D01*
X177427715Y-85581613D01*
X177548028Y-85747213D01*
X177692786Y-85891971D01*
X177817139Y-85982317D01*
X177858390Y-86012287D01*
X177955975Y-86062009D01*
X178040776Y-86105218D01*
X178040778Y-86105218D01*
X178040781Y-86105220D01*
X178145137Y-86139127D01*
X178235465Y-86168477D01*
X178336106Y-86184417D01*
X178437648Y-86200500D01*
X178437649Y-86200500D01*
X178642351Y-86200500D01*
X178642352Y-86200500D01*
X178844534Y-86168477D01*
X179039219Y-86105220D01*
X179221610Y-86012287D01*
X179344971Y-85922661D01*
X179387213Y-85891971D01*
X179387215Y-85891968D01*
X179387219Y-85891966D01*
X179531966Y-85747219D01*
X179531968Y-85747215D01*
X179531971Y-85747213D01*
X179652284Y-85581614D01*
X179652285Y-85581613D01*
X179652287Y-85581610D01*
X179699516Y-85488917D01*
X179747489Y-85438123D01*
X179815310Y-85421328D01*
X179881445Y-85443865D01*
X179920483Y-85488917D01*
X179951566Y-85549920D01*
X179967715Y-85581614D01*
X180088028Y-85747213D01*
X180232786Y-85891971D01*
X180357139Y-85982317D01*
X180398390Y-86012287D01*
X180495975Y-86062009D01*
X180580776Y-86105218D01*
X180580778Y-86105218D01*
X180580781Y-86105220D01*
X180685137Y-86139127D01*
X180775465Y-86168477D01*
X180876106Y-86184417D01*
X180977648Y-86200500D01*
X180977649Y-86200500D01*
X181182351Y-86200500D01*
X181182352Y-86200500D01*
X181384534Y-86168477D01*
X181579219Y-86105220D01*
X181761610Y-86012287D01*
X181884971Y-85922661D01*
X181927213Y-85891971D01*
X181927215Y-85891968D01*
X181927219Y-85891966D01*
X182071966Y-85747219D01*
X182071968Y-85747215D01*
X182071971Y-85747213D01*
X182192284Y-85581614D01*
X182192285Y-85581613D01*
X182192287Y-85581610D01*
X182239516Y-85488917D01*
X182287489Y-85438123D01*
X182355310Y-85421328D01*
X182421445Y-85443865D01*
X182460483Y-85488917D01*
X182491566Y-85549920D01*
X182507715Y-85581614D01*
X182628028Y-85747213D01*
X182772786Y-85891971D01*
X182897139Y-85982317D01*
X182938390Y-86012287D01*
X183035975Y-86062009D01*
X183120776Y-86105218D01*
X183120778Y-86105218D01*
X183120781Y-86105220D01*
X183225137Y-86139127D01*
X183315465Y-86168477D01*
X183416106Y-86184417D01*
X183517648Y-86200500D01*
X183517649Y-86200500D01*
X183722351Y-86200500D01*
X183722352Y-86200500D01*
X183924534Y-86168477D01*
X184119219Y-86105220D01*
X184301610Y-86012287D01*
X184424971Y-85922661D01*
X184467213Y-85891971D01*
X184467215Y-85891968D01*
X184467219Y-85891966D01*
X184611966Y-85747219D01*
X184611968Y-85747215D01*
X184611971Y-85747213D01*
X184732284Y-85581614D01*
X184732285Y-85581613D01*
X184732287Y-85581610D01*
X184779516Y-85488917D01*
X184827489Y-85438123D01*
X184895310Y-85421328D01*
X184961445Y-85443865D01*
X185000483Y-85488917D01*
X185031566Y-85549920D01*
X185047715Y-85581614D01*
X185168028Y-85747213D01*
X185312786Y-85891971D01*
X185437139Y-85982317D01*
X185478390Y-86012287D01*
X185575975Y-86062009D01*
X185660776Y-86105218D01*
X185660778Y-86105218D01*
X185660781Y-86105220D01*
X185765137Y-86139127D01*
X185855465Y-86168477D01*
X185956106Y-86184417D01*
X186057648Y-86200500D01*
X186057649Y-86200500D01*
X186262351Y-86200500D01*
X186262352Y-86200500D01*
X186464534Y-86168477D01*
X186659219Y-86105220D01*
X186841610Y-86012287D01*
X186964971Y-85922661D01*
X187007213Y-85891971D01*
X187007215Y-85891968D01*
X187007219Y-85891966D01*
X187151966Y-85747219D01*
X187151968Y-85747215D01*
X187151971Y-85747213D01*
X187272284Y-85581614D01*
X187272285Y-85581613D01*
X187272287Y-85581610D01*
X187319516Y-85488917D01*
X187367489Y-85438123D01*
X187435310Y-85421328D01*
X187501445Y-85443865D01*
X187540483Y-85488917D01*
X187571566Y-85549920D01*
X187587715Y-85581614D01*
X187708028Y-85747213D01*
X187852786Y-85891971D01*
X187977139Y-85982317D01*
X188018390Y-86012287D01*
X188115975Y-86062009D01*
X188200776Y-86105218D01*
X188200778Y-86105218D01*
X188200781Y-86105220D01*
X188305137Y-86139127D01*
X188395465Y-86168477D01*
X188496106Y-86184417D01*
X188597648Y-86200500D01*
X188597649Y-86200500D01*
X188802351Y-86200500D01*
X188802352Y-86200500D01*
X189004534Y-86168477D01*
X189199219Y-86105220D01*
X189381610Y-86012287D01*
X189504971Y-85922661D01*
X189547213Y-85891971D01*
X189547215Y-85891968D01*
X189547219Y-85891966D01*
X189691966Y-85747219D01*
X189691968Y-85747215D01*
X189691971Y-85747213D01*
X189812284Y-85581614D01*
X189812285Y-85581613D01*
X189812287Y-85581610D01*
X189859516Y-85488917D01*
X189907489Y-85438123D01*
X189975310Y-85421328D01*
X190041445Y-85443865D01*
X190080483Y-85488917D01*
X190111566Y-85549920D01*
X190127715Y-85581614D01*
X190248028Y-85747213D01*
X190392786Y-85891971D01*
X190517139Y-85982317D01*
X190558390Y-86012287D01*
X190655975Y-86062009D01*
X190740776Y-86105218D01*
X190740778Y-86105218D01*
X190740781Y-86105220D01*
X190845137Y-86139127D01*
X190935465Y-86168477D01*
X191036106Y-86184417D01*
X191137648Y-86200500D01*
X191137649Y-86200500D01*
X191342351Y-86200500D01*
X191342352Y-86200500D01*
X191544534Y-86168477D01*
X191739219Y-86105220D01*
X191921610Y-86012287D01*
X192044971Y-85922661D01*
X192087213Y-85891971D01*
X192087215Y-85891968D01*
X192087219Y-85891966D01*
X192231966Y-85747219D01*
X192231968Y-85747215D01*
X192231971Y-85747213D01*
X192352284Y-85581614D01*
X192352285Y-85581613D01*
X192352287Y-85581610D01*
X192399516Y-85488917D01*
X192447489Y-85438123D01*
X192515310Y-85421328D01*
X192581445Y-85443865D01*
X192620483Y-85488917D01*
X192651566Y-85549920D01*
X192667715Y-85581614D01*
X192788028Y-85747213D01*
X192932786Y-85891971D01*
X193057139Y-85982317D01*
X193098390Y-86012287D01*
X193195975Y-86062009D01*
X193280776Y-86105218D01*
X193280778Y-86105218D01*
X193280781Y-86105220D01*
X193385137Y-86139127D01*
X193475465Y-86168477D01*
X193576106Y-86184417D01*
X193677648Y-86200500D01*
X193677649Y-86200500D01*
X193882351Y-86200500D01*
X193882352Y-86200500D01*
X194084534Y-86168477D01*
X194279219Y-86105220D01*
X194461610Y-86012287D01*
X194584971Y-85922661D01*
X194627213Y-85891971D01*
X194627215Y-85891968D01*
X194627219Y-85891966D01*
X194771966Y-85747219D01*
X194771968Y-85747215D01*
X194771971Y-85747213D01*
X194892284Y-85581614D01*
X194892285Y-85581613D01*
X194892287Y-85581610D01*
X194939516Y-85488917D01*
X194987489Y-85438123D01*
X195055310Y-85421328D01*
X195121445Y-85443865D01*
X195160483Y-85488917D01*
X195191566Y-85549920D01*
X195207715Y-85581614D01*
X195328028Y-85747213D01*
X195472786Y-85891971D01*
X195597139Y-85982317D01*
X195638390Y-86012287D01*
X195735975Y-86062009D01*
X195820776Y-86105218D01*
X195820778Y-86105218D01*
X195820781Y-86105220D01*
X195925137Y-86139127D01*
X196015465Y-86168477D01*
X196116106Y-86184417D01*
X196217648Y-86200500D01*
X196217649Y-86200500D01*
X196422351Y-86200500D01*
X196422352Y-86200500D01*
X196624534Y-86168477D01*
X196819219Y-86105220D01*
X197001610Y-86012287D01*
X197124971Y-85922661D01*
X197167213Y-85891971D01*
X197167215Y-85891968D01*
X197167219Y-85891966D01*
X197311966Y-85747219D01*
X197311968Y-85747215D01*
X197311971Y-85747213D01*
X197393937Y-85634394D01*
X197432287Y-85581610D01*
X197525220Y-85399219D01*
X197588477Y-85204534D01*
X197620500Y-85002352D01*
X197620500Y-84797648D01*
X197599456Y-84664781D01*
X197588477Y-84595465D01*
X197539871Y-84445872D01*
X197525220Y-84400781D01*
X197525218Y-84400778D01*
X197525218Y-84400776D01*
X197479515Y-84311080D01*
X197432287Y-84218390D01*
X197424556Y-84207749D01*
X197311971Y-84052786D01*
X197167213Y-83908028D01*
X197001610Y-83787712D01*
X197001608Y-83787711D01*
X196976630Y-83774984D01*
X196925834Y-83727010D01*
X196909039Y-83659189D01*
X196931577Y-83593054D01*
X196986292Y-83549603D01*
X197032925Y-83540500D01*
X197877770Y-83540500D01*
X197944809Y-83560185D01*
X197965451Y-83576819D01*
X198773181Y-84384549D01*
X198806666Y-84445872D01*
X198809500Y-84472230D01*
X198809500Y-88963918D01*
X198809500Y-88963920D01*
X198809499Y-88963920D01*
X198838340Y-89108907D01*
X198838343Y-89108917D01*
X198894913Y-89245490D01*
X198894914Y-89245492D01*
X198894915Y-89245494D01*
X198894916Y-89245495D01*
X198925380Y-89291087D01*
X198977048Y-89368416D01*
X200716907Y-91108275D01*
X202423181Y-92814548D01*
X202456666Y-92875871D01*
X202459500Y-92902229D01*
X202459500Y-94312779D01*
X202439815Y-94379818D01*
X202408385Y-94413097D01*
X202330211Y-94469893D01*
X202330205Y-94469898D01*
X202179890Y-94620213D01*
X202054949Y-94792182D01*
X202050484Y-94800946D01*
X202002509Y-94851742D01*
X201934688Y-94868536D01*
X201868553Y-94845998D01*
X201829516Y-94800946D01*
X201825050Y-94792182D01*
X201700109Y-94620213D01*
X201549790Y-94469894D01*
X201549785Y-94469890D01*
X201431615Y-94384035D01*
X201388949Y-94328706D01*
X201380500Y-94283717D01*
X201380500Y-93091004D01*
X201353581Y-92955677D01*
X201353580Y-92955676D01*
X201353580Y-92955672D01*
X201350582Y-92948435D01*
X201300777Y-92828193D01*
X201300776Y-92828192D01*
X201300775Y-92828189D01*
X201298588Y-92824916D01*
X201224114Y-92713457D01*
X201224112Y-92713454D01*
X197916545Y-89405887D01*
X197801807Y-89329222D01*
X197674332Y-89276421D01*
X197674322Y-89276418D01*
X197538996Y-89249500D01*
X197538994Y-89249500D01*
X197538993Y-89249500D01*
X166735316Y-89249500D01*
X166687864Y-89240061D01*
X166543501Y-89180264D01*
X166543489Y-89180261D01*
X166388845Y-89149500D01*
X166388842Y-89149500D01*
X166231158Y-89149500D01*
X166231155Y-89149500D01*
X166076510Y-89180261D01*
X166076498Y-89180264D01*
X165930828Y-89240602D01*
X165930816Y-89240609D01*
X165906860Y-89256615D01*
X165862173Y-89275126D01*
X165855675Y-89276418D01*
X165855669Y-89276420D01*
X165728195Y-89329221D01*
X165728182Y-89329228D01*
X165613458Y-89405885D01*
X165613454Y-89405888D01*
X165515888Y-89503454D01*
X165515885Y-89503458D01*
X165439228Y-89618182D01*
X165439221Y-89618195D01*
X165386421Y-89745667D01*
X165386418Y-89745677D01*
X165359500Y-89881004D01*
X165359500Y-89881007D01*
X165359500Y-90018993D01*
X165359500Y-90018995D01*
X165359499Y-90018995D01*
X165386418Y-90154322D01*
X165386421Y-90154332D01*
X165439221Y-90281804D01*
X165439228Y-90281817D01*
X165515885Y-90396541D01*
X165515888Y-90396545D01*
X165613454Y-90494111D01*
X165679863Y-90538485D01*
X165724667Y-90592098D01*
X165733374Y-90661423D01*
X165703219Y-90724450D01*
X165698655Y-90729265D01*
X165688215Y-90739705D01*
X165688210Y-90739711D01*
X165600609Y-90870814D01*
X165600602Y-90870827D01*
X165540264Y-91016498D01*
X165540261Y-91016510D01*
X165509500Y-91171153D01*
X165509500Y-91328846D01*
X165540261Y-91483489D01*
X165540264Y-91483501D01*
X165600602Y-91629172D01*
X165600609Y-91629185D01*
X165688210Y-91760288D01*
X165688213Y-91760292D01*
X165799707Y-91871786D01*
X165799711Y-91871789D01*
X165930814Y-91959390D01*
X165930827Y-91959397D01*
X166028706Y-91999939D01*
X166076503Y-92019737D01*
X166231153Y-92050499D01*
X166231156Y-92050500D01*
X166231158Y-92050500D01*
X166388844Y-92050500D01*
X166388845Y-92050499D01*
X166465152Y-92035320D01*
X166543488Y-92019739D01*
X166543490Y-92019738D01*
X166543497Y-92019737D01*
X166591294Y-91999938D01*
X166638746Y-91990500D01*
X186344684Y-91990500D01*
X186392136Y-91999939D01*
X186536498Y-92059735D01*
X186536503Y-92059737D01*
X186691153Y-92090499D01*
X186691156Y-92090500D01*
X186691158Y-92090500D01*
X186848844Y-92090500D01*
X186848845Y-92090499D01*
X187003497Y-92059737D01*
X187149179Y-91999394D01*
X187280289Y-91911789D01*
X187391789Y-91800289D01*
X187479394Y-91669179D01*
X187539737Y-91523497D01*
X187570500Y-91368842D01*
X187570500Y-91211158D01*
X187570500Y-91211155D01*
X187570499Y-91211153D01*
X187557207Y-91144332D01*
X187539737Y-91056503D01*
X187526150Y-91023701D01*
X187479397Y-90910827D01*
X187479390Y-90910814D01*
X187434339Y-90843391D01*
X187413461Y-90776714D01*
X187431945Y-90709334D01*
X187483924Y-90662643D01*
X187537441Y-90650500D01*
X197128481Y-90650500D01*
X197195520Y-90670185D01*
X197216162Y-90686819D01*
X199943181Y-93413838D01*
X199976666Y-93475161D01*
X199979500Y-93501519D01*
X199979500Y-94269186D01*
X199959815Y-94336225D01*
X199928385Y-94369504D01*
X199790214Y-94469890D01*
X199790209Y-94469894D01*
X199639890Y-94620213D01*
X199514949Y-94792182D01*
X199510484Y-94800946D01*
X199462509Y-94851742D01*
X199394688Y-94868536D01*
X199328553Y-94845998D01*
X199289516Y-94800946D01*
X199285050Y-94792182D01*
X199160109Y-94620213D01*
X199009786Y-94469890D01*
X198837820Y-94344951D01*
X198648414Y-94248444D01*
X198648413Y-94248443D01*
X198648412Y-94248443D01*
X198446243Y-94182754D01*
X198446241Y-94182753D01*
X198446240Y-94182753D01*
X198284957Y-94157208D01*
X198236287Y-94149500D01*
X198023713Y-94149500D01*
X197975042Y-94157208D01*
X197813760Y-94182753D01*
X197611585Y-94248444D01*
X197422179Y-94344951D01*
X197250213Y-94469890D01*
X197099890Y-94620213D01*
X196974949Y-94792182D01*
X196970484Y-94800946D01*
X196922509Y-94851742D01*
X196854688Y-94868536D01*
X196788553Y-94845998D01*
X196749516Y-94800946D01*
X196745050Y-94792182D01*
X196620109Y-94620213D01*
X196469790Y-94469894D01*
X196469785Y-94469890D01*
X196381615Y-94405831D01*
X196338949Y-94350501D01*
X196330500Y-94305513D01*
X196330500Y-93781005D01*
X196323493Y-93745784D01*
X196312984Y-93692951D01*
X196303580Y-93645672D01*
X196250775Y-93518189D01*
X196174114Y-93403457D01*
X196174112Y-93403454D01*
X195506545Y-92735887D01*
X195391807Y-92659222D01*
X195264332Y-92606421D01*
X195264322Y-92606418D01*
X195128996Y-92579500D01*
X195128994Y-92579500D01*
X195128993Y-92579500D01*
X166735316Y-92579500D01*
X166687864Y-92570061D01*
X166543501Y-92510264D01*
X166543489Y-92510261D01*
X166388845Y-92479500D01*
X166388842Y-92479500D01*
X166231158Y-92479500D01*
X166231155Y-92479500D01*
X166076510Y-92510261D01*
X166076498Y-92510264D01*
X165930827Y-92570602D01*
X165930814Y-92570609D01*
X165799711Y-92658210D01*
X165799707Y-92658213D01*
X165688213Y-92769707D01*
X165688210Y-92769711D01*
X165600609Y-92900814D01*
X165600602Y-92900827D01*
X165540264Y-93046498D01*
X165540261Y-93046510D01*
X165509500Y-93201153D01*
X165509500Y-93358846D01*
X165540261Y-93513489D01*
X165540264Y-93513501D01*
X165600602Y-93659172D01*
X165600609Y-93659185D01*
X165688210Y-93790288D01*
X165688213Y-93790292D01*
X165799707Y-93901786D01*
X165799711Y-93901789D01*
X165930814Y-93989390D01*
X165930827Y-93989397D01*
X166053705Y-94040294D01*
X166076503Y-94049737D01*
X166172907Y-94068913D01*
X166231153Y-94080499D01*
X166231156Y-94080500D01*
X166231158Y-94080500D01*
X166388844Y-94080500D01*
X166388845Y-94080499D01*
X166543497Y-94049737D01*
X166633775Y-94012343D01*
X166687864Y-93989939D01*
X166735316Y-93980500D01*
X167173327Y-93980500D01*
X167240366Y-94000185D01*
X167286121Y-94052989D01*
X167296065Y-94122147D01*
X167267040Y-94185703D01*
X167211645Y-94222430D01*
X167200408Y-94226082D01*
X167131585Y-94248444D01*
X166942179Y-94344951D01*
X166770213Y-94469890D01*
X166619890Y-94620213D01*
X166494949Y-94792182D01*
X166490202Y-94801499D01*
X166442227Y-94852293D01*
X166374405Y-94869087D01*
X166308271Y-94846548D01*
X166269234Y-94801495D01*
X166264626Y-94792452D01*
X166225270Y-94738282D01*
X166225269Y-94738282D01*
X165592962Y-95370590D01*
X165575925Y-95307007D01*
X165510099Y-95192993D01*
X165417007Y-95099901D01*
X165302993Y-95034075D01*
X165239409Y-95017037D01*
X165871716Y-94384728D01*
X165817550Y-94345375D01*
X165628217Y-94248904D01*
X165426129Y-94183242D01*
X165216246Y-94150000D01*
X165003754Y-94150000D01*
X164793872Y-94183242D01*
X164793869Y-94183242D01*
X164591782Y-94248904D01*
X164402439Y-94345380D01*
X164348282Y-94384727D01*
X164348282Y-94384728D01*
X164980591Y-95017037D01*
X164917007Y-95034075D01*
X164802993Y-95099901D01*
X164709901Y-95192993D01*
X164644075Y-95307007D01*
X164627037Y-95370591D01*
X163994728Y-94738282D01*
X163994727Y-94738282D01*
X163955380Y-94792440D01*
X163955376Y-94792446D01*
X163950760Y-94801505D01*
X163902781Y-94852297D01*
X163834959Y-94869087D01*
X163768826Y-94846543D01*
X163729794Y-94801493D01*
X163725051Y-94792184D01*
X163725049Y-94792181D01*
X163725048Y-94792179D01*
X163600109Y-94620213D01*
X163503498Y-94523602D01*
X163449792Y-94469896D01*
X163368226Y-94410635D01*
X163365017Y-94407955D01*
X163347826Y-94382248D01*
X163328949Y-94357767D01*
X163327969Y-94352553D01*
X163326179Y-94349875D01*
X163326040Y-94342280D01*
X163320500Y-94312779D01*
X163320500Y-88689630D01*
X163340185Y-88622591D01*
X163392989Y-88576836D01*
X163405484Y-88571928D01*
X163426955Y-88564814D01*
X163576277Y-88472712D01*
X163700333Y-88348656D01*
X163792435Y-88199334D01*
X163815723Y-88129054D01*
X163819731Y-88121050D01*
X163837681Y-88101772D01*
X163852676Y-88080116D01*
X163861116Y-88076606D01*
X163867346Y-88069917D01*
X163892870Y-88063404D01*
X163917192Y-88053292D01*
X163933455Y-88053048D01*
X163935046Y-88052643D01*
X163936144Y-88053008D01*
X163940340Y-88052946D01*
X163978146Y-88055921D01*
X164657621Y-87376446D01*
X164657621Y-87382661D01*
X164684880Y-87484394D01*
X164737541Y-87575606D01*
X164812015Y-87650080D01*
X164903227Y-87702741D01*
X165004960Y-87730000D01*
X165011174Y-87730000D01*
X164331697Y-88409474D01*
X164376271Y-88441859D01*
X164558589Y-88534755D01*
X164753203Y-88597990D01*
X164955304Y-88630000D01*
X165159938Y-88630000D01*
X165362038Y-88597990D01*
X165556652Y-88534755D01*
X165738970Y-88441859D01*
X165783542Y-88409474D01*
X165104068Y-87730000D01*
X165110282Y-87730000D01*
X165212015Y-87702741D01*
X165303227Y-87650080D01*
X165377701Y-87575606D01*
X165430362Y-87484394D01*
X165457621Y-87382661D01*
X165457621Y-87376448D01*
X166137095Y-88055922D01*
X166137095Y-88055921D01*
X166169480Y-88011349D01*
X166262376Y-87829031D01*
X166325611Y-87634417D01*
X166357621Y-87432317D01*
X166357621Y-87227682D01*
X166325611Y-87025582D01*
X166262376Y-86830968D01*
X166169480Y-86648650D01*
X166137095Y-86604077D01*
X166137095Y-86604076D01*
X165457621Y-87283551D01*
X165457621Y-87277339D01*
X165430362Y-87175606D01*
X165377701Y-87084394D01*
X165303227Y-87009920D01*
X165212015Y-86957259D01*
X165110282Y-86930000D01*
X165104067Y-86930000D01*
X165783543Y-86250524D01*
X165783542Y-86250523D01*
X165738980Y-86218147D01*
X165738971Y-86218141D01*
X165556652Y-86125244D01*
X165362038Y-86062009D01*
X165159938Y-86030000D01*
X164955304Y-86030000D01*
X164753203Y-86062009D01*
X164558589Y-86125244D01*
X164376265Y-86218143D01*
X164331698Y-86250523D01*
X164331698Y-86250524D01*
X165011175Y-86930000D01*
X165004960Y-86930000D01*
X164903227Y-86957259D01*
X164812015Y-87009920D01*
X164737541Y-87084394D01*
X164684880Y-87175606D01*
X164657621Y-87277339D01*
X164657621Y-87283553D01*
X163978145Y-86604077D01*
X163940340Y-86607053D01*
X163871962Y-86592689D01*
X163822205Y-86543638D01*
X163819731Y-86538949D01*
X163815722Y-86530942D01*
X163792435Y-86460666D01*
X163700333Y-86311344D01*
X163576277Y-86187288D01*
X163426955Y-86095186D01*
X163260418Y-86040001D01*
X163260416Y-86040000D01*
X163157631Y-86029500D01*
X161957619Y-86029500D01*
X161957602Y-86029501D01*
X161854824Y-86040000D01*
X161854821Y-86040001D01*
X161688289Y-86095185D01*
X161688284Y-86095187D01*
X161538963Y-86187289D01*
X161414910Y-86311342D01*
X161322808Y-86460663D01*
X161322807Y-86460666D01*
X161267622Y-86627203D01*
X161267622Y-86627204D01*
X161267621Y-86627204D01*
X161257121Y-86729983D01*
X161257121Y-87930001D01*
X161257122Y-87930018D01*
X161267621Y-88032796D01*
X161267622Y-88032799D01*
X161301638Y-88135451D01*
X161322807Y-88199334D01*
X161414909Y-88348656D01*
X161538965Y-88472712D01*
X161688287Y-88564814D01*
X161688289Y-88564815D01*
X161705606Y-88570553D01*
X161734502Y-88580128D01*
X161791947Y-88619898D01*
X161818772Y-88684414D01*
X161819500Y-88697834D01*
X161819500Y-91389007D01*
X161799815Y-91456046D01*
X161747011Y-91501801D01*
X161677853Y-91511745D01*
X161648048Y-91503569D01*
X161638158Y-91499472D01*
X161543497Y-91460263D01*
X161543492Y-91460262D01*
X161543491Y-91460261D01*
X161388792Y-91429489D01*
X161326881Y-91397104D01*
X161292307Y-91336388D01*
X161294051Y-91280632D01*
X161292392Y-91280302D01*
X161320500Y-91138996D01*
X161320500Y-90375316D01*
X161329939Y-90327864D01*
X161389735Y-90183501D01*
X161389737Y-90183497D01*
X161420500Y-90028842D01*
X161420500Y-89871158D01*
X161420500Y-89871155D01*
X161420499Y-89871153D01*
X161389738Y-89716510D01*
X161389737Y-89716503D01*
X161349017Y-89618195D01*
X161329397Y-89570827D01*
X161329390Y-89570814D01*
X161241789Y-89439711D01*
X161241786Y-89439707D01*
X161130292Y-89328213D01*
X161130288Y-89328210D01*
X160999185Y-89240609D01*
X160999172Y-89240602D01*
X160853501Y-89180264D01*
X160853489Y-89180261D01*
X160698845Y-89149500D01*
X160698842Y-89149500D01*
X160541158Y-89149500D01*
X160541155Y-89149500D01*
X160386510Y-89180261D01*
X160386498Y-89180264D01*
X160240827Y-89240602D01*
X160240814Y-89240609D01*
X160109711Y-89328210D01*
X160109707Y-89328213D01*
X159998213Y-89439707D01*
X159998210Y-89439711D01*
X159910609Y-89570814D01*
X159910602Y-89570827D01*
X159850264Y-89716498D01*
X159850261Y-89716510D01*
X159819500Y-89871153D01*
X159819500Y-90028846D01*
X159850261Y-90183489D01*
X159850264Y-90183501D01*
X159910061Y-90327864D01*
X159919500Y-90375316D01*
X159919500Y-90728481D01*
X159899815Y-90795520D01*
X159883181Y-90816162D01*
X158916162Y-91783181D01*
X158854839Y-91816666D01*
X158828481Y-91819500D01*
X143981518Y-91819500D01*
X143914479Y-91799815D01*
X143893837Y-91783181D01*
X142796819Y-90686162D01*
X142763334Y-90624839D01*
X142760500Y-90598481D01*
X142760500Y-89151519D01*
X142780185Y-89084480D01*
X142796819Y-89063838D01*
X143867819Y-87992838D01*
X143929142Y-87959353D01*
X143998834Y-87964337D01*
X144054767Y-88006209D01*
X144079184Y-88071673D01*
X144079500Y-88080519D01*
X144079500Y-88807147D01*
X144059815Y-88874186D01*
X144043182Y-88894828D01*
X143982455Y-88955555D01*
X143902132Y-89060232D01*
X143902120Y-89060250D01*
X143836303Y-89174248D01*
X143836302Y-89174249D01*
X143785800Y-89296170D01*
X143751724Y-89423341D01*
X143734500Y-89554166D01*
X143734500Y-90185833D01*
X143751724Y-90316658D01*
X143751725Y-90316662D01*
X143767442Y-90375316D01*
X143785800Y-90443829D01*
X143836302Y-90565750D01*
X143836303Y-90565751D01*
X143902120Y-90679749D01*
X143902132Y-90679767D01*
X143982455Y-90784444D01*
X143982459Y-90784449D01*
X144075551Y-90877541D01*
X144075555Y-90877544D01*
X144180232Y-90957867D01*
X144180236Y-90957869D01*
X144180243Y-90957875D01*
X144180250Y-90957879D01*
X144294248Y-91023696D01*
X144294249Y-91023697D01*
X144294252Y-91023698D01*
X144294257Y-91023701D01*
X144416171Y-91074200D01*
X144543338Y-91108275D01*
X144674174Y-91125500D01*
X144674181Y-91125500D01*
X145290000Y-91125500D01*
X145361940Y-91120355D01*
X145373726Y-91116893D01*
X145424559Y-91115534D01*
X145424804Y-91113262D01*
X145441387Y-91115044D01*
X145492127Y-91120500D01*
X146587872Y-91120499D01*
X146647483Y-91114091D01*
X146782331Y-91063796D01*
X146897546Y-90977546D01*
X146983796Y-90862331D01*
X147034091Y-90727483D01*
X147040500Y-90667873D01*
X147040499Y-89072128D01*
X147034091Y-89012517D01*
X146987804Y-88888416D01*
X146983797Y-88877671D01*
X146983793Y-88877664D01*
X146918987Y-88791095D01*
X146897546Y-88762454D01*
X146897542Y-88762451D01*
X146897540Y-88762449D01*
X146890187Y-88756944D01*
X146848317Y-88701009D01*
X146840500Y-88657679D01*
X146840500Y-86995416D01*
X146860185Y-86928377D01*
X146891613Y-86895099D01*
X146937219Y-86861966D01*
X147081966Y-86717219D01*
X147081968Y-86717215D01*
X147081971Y-86717213D01*
X147195204Y-86561359D01*
X147202287Y-86551610D01*
X147249516Y-86458917D01*
X147297489Y-86408123D01*
X147365310Y-86391328D01*
X147431445Y-86413865D01*
X147470483Y-86458917D01*
X147471375Y-86460666D01*
X147517715Y-86551614D01*
X147638028Y-86717213D01*
X147782786Y-86861971D01*
X147916990Y-86959474D01*
X147948390Y-86982287D01*
X148041724Y-87029843D01*
X148130776Y-87075218D01*
X148130778Y-87075218D01*
X148130781Y-87075220D01*
X148193046Y-87095451D01*
X148325465Y-87138477D01*
X148426557Y-87154488D01*
X148527648Y-87170500D01*
X148527649Y-87170500D01*
X148732351Y-87170500D01*
X148732352Y-87170500D01*
X148934534Y-87138477D01*
X149129219Y-87075220D01*
X149311610Y-86982287D01*
X149431619Y-86895096D01*
X149477213Y-86861971D01*
X149477215Y-86861968D01*
X149477219Y-86861966D01*
X149621966Y-86717219D01*
X149621968Y-86717215D01*
X149621971Y-86717213D01*
X149687366Y-86627203D01*
X149742287Y-86551610D01*
X149835220Y-86369219D01*
X149898477Y-86174534D01*
X149930500Y-85972352D01*
X149930500Y-85777682D01*
X153040000Y-85777682D01*
X153040000Y-85982317D01*
X153072009Y-86184417D01*
X153135244Y-86379031D01*
X153228141Y-86561350D01*
X153228147Y-86561359D01*
X153260523Y-86605921D01*
X153260524Y-86605922D01*
X153940000Y-85926446D01*
X153940000Y-85932661D01*
X153967259Y-86034394D01*
X154019920Y-86125606D01*
X154094394Y-86200080D01*
X154185606Y-86252741D01*
X154287339Y-86280000D01*
X154293553Y-86280000D01*
X153614076Y-86959474D01*
X153658650Y-86991859D01*
X153840968Y-87084755D01*
X154035582Y-87147990D01*
X154237683Y-87180000D01*
X154442317Y-87180000D01*
X154644417Y-87147990D01*
X154839031Y-87084755D01*
X155021349Y-86991859D01*
X155065921Y-86959474D01*
X154386447Y-86280000D01*
X154392661Y-86280000D01*
X154494394Y-86252741D01*
X154585606Y-86200080D01*
X154660080Y-86125606D01*
X154712741Y-86034394D01*
X154740000Y-85932661D01*
X154740000Y-85926447D01*
X155419474Y-86605921D01*
X155451859Y-86561349D01*
X155544755Y-86379031D01*
X155607990Y-86184417D01*
X155640000Y-85982317D01*
X155640000Y-85777682D01*
X155607990Y-85575582D01*
X155544755Y-85380968D01*
X155451859Y-85198650D01*
X155419474Y-85154077D01*
X155419474Y-85154076D01*
X154740000Y-85833551D01*
X154740000Y-85827339D01*
X154712741Y-85725606D01*
X154660080Y-85634394D01*
X154585606Y-85559920D01*
X154494394Y-85507259D01*
X154392661Y-85480000D01*
X154386446Y-85480000D01*
X155065922Y-84800524D01*
X155065921Y-84800523D01*
X155021359Y-84768147D01*
X155021350Y-84768141D01*
X154839031Y-84675244D01*
X154644417Y-84612009D01*
X154442317Y-84580000D01*
X154237683Y-84580000D01*
X154035582Y-84612009D01*
X153840968Y-84675244D01*
X153658644Y-84768143D01*
X153614077Y-84800523D01*
X153614077Y-84800524D01*
X154293554Y-85480000D01*
X154287339Y-85480000D01*
X154185606Y-85507259D01*
X154094394Y-85559920D01*
X154019920Y-85634394D01*
X153967259Y-85725606D01*
X153940000Y-85827339D01*
X153940000Y-85833553D01*
X153260524Y-85154077D01*
X153260523Y-85154077D01*
X153228143Y-85198644D01*
X153135244Y-85380968D01*
X153072009Y-85575582D01*
X153040000Y-85777682D01*
X149930500Y-85777682D01*
X149930500Y-85767648D01*
X149909394Y-85634394D01*
X149898477Y-85565465D01*
X149854209Y-85429223D01*
X149835220Y-85370781D01*
X149835218Y-85370778D01*
X149835218Y-85370776D01*
X149789515Y-85281080D01*
X149742287Y-85188390D01*
X149734556Y-85177749D01*
X149621971Y-85022786D01*
X149477213Y-84878028D01*
X149311613Y-84757715D01*
X149311612Y-84757714D01*
X149311610Y-84757713D01*
X149254653Y-84728691D01*
X149129223Y-84664781D01*
X148934534Y-84601522D01*
X148759995Y-84573878D01*
X148732352Y-84569500D01*
X148527648Y-84569500D01*
X148503329Y-84573351D01*
X148325465Y-84601522D01*
X148130776Y-84664781D01*
X147948386Y-84757715D01*
X147782786Y-84878028D01*
X147638028Y-85022786D01*
X147517715Y-85188386D01*
X147470485Y-85281080D01*
X147422510Y-85331876D01*
X147354689Y-85348671D01*
X147288554Y-85326134D01*
X147249515Y-85281080D01*
X147248883Y-85279840D01*
X147202287Y-85188390D01*
X147194556Y-85177749D01*
X147081971Y-85022786D01*
X146937213Y-84878028D01*
X146771613Y-84757715D01*
X146771612Y-84757714D01*
X146771610Y-84757713D01*
X146714653Y-84728691D01*
X146589223Y-84664781D01*
X146394534Y-84601522D01*
X146219995Y-84573878D01*
X146192352Y-84569500D01*
X145987648Y-84569500D01*
X145957753Y-84574235D01*
X145785464Y-84601523D01*
X145785457Y-84601524D01*
X145742817Y-84615379D01*
X145672976Y-84617374D01*
X145613143Y-84581293D01*
X145582316Y-84518592D01*
X145580500Y-84497448D01*
X145580500Y-75582229D01*
X145600185Y-75515190D01*
X145616819Y-75494548D01*
X145794548Y-75316819D01*
X145855871Y-75283334D01*
X145882229Y-75280500D01*
X146389001Y-75280500D01*
X146456040Y-75300185D01*
X146496386Y-75342497D01*
X146512125Y-75369757D01*
X146512128Y-75369761D01*
X146512132Y-75369767D01*
X146564070Y-75437452D01*
X146592459Y-75474449D01*
X146685551Y-75567541D01*
X146685555Y-75567544D01*
X146790232Y-75647867D01*
X146790236Y-75647869D01*
X146790243Y-75647875D01*
X146790250Y-75647879D01*
X146904248Y-75713696D01*
X146904249Y-75713697D01*
X146904252Y-75713698D01*
X146904257Y-75713701D01*
X147026171Y-75764200D01*
X147153338Y-75798275D01*
X147284174Y-75815500D01*
X147284181Y-75815500D01*
X147900000Y-75815500D01*
X147971940Y-75810355D01*
X147983726Y-75806893D01*
X148034559Y-75805534D01*
X148034804Y-75803262D01*
X148051387Y-75805044D01*
X148102127Y-75810500D01*
X149197872Y-75810499D01*
X149245721Y-75805355D01*
X149257475Y-75804092D01*
X149257476Y-75804091D01*
X149257483Y-75804091D01*
X149257489Y-75804088D01*
X149258478Y-75803855D01*
X149260536Y-75803762D01*
X149265197Y-75803262D01*
X149265228Y-75803553D01*
X149304651Y-75801791D01*
X149400000Y-75815500D01*
X149400003Y-75815500D01*
X150015819Y-75815500D01*
X150015826Y-75815500D01*
X150146662Y-75798275D01*
X150273829Y-75764200D01*
X150395743Y-75713701D01*
X150509757Y-75647875D01*
X150614449Y-75567541D01*
X150707541Y-75474449D01*
X150787875Y-75369757D01*
X150803613Y-75342497D01*
X150854179Y-75294284D01*
X150910999Y-75280500D01*
X152407770Y-75280500D01*
X152474809Y-75300185D01*
X152495451Y-75316819D01*
X153573181Y-76394548D01*
X153606666Y-76455871D01*
X153609500Y-76482229D01*
X153609500Y-79740051D01*
X153589815Y-79807090D01*
X153558385Y-79840369D01*
X153492787Y-79888028D01*
X153492782Y-79888032D01*
X153348028Y-80032786D01*
X153227715Y-80198386D01*
X153134781Y-80380776D01*
X153071522Y-80575465D01*
X153039500Y-80777648D01*
X153039500Y-80982351D01*
X153071522Y-81184534D01*
X153134781Y-81379223D01*
X153180191Y-81468343D01*
X153225778Y-81557813D01*
X153227715Y-81561613D01*
X153348028Y-81727213D01*
X153492786Y-81871971D01*
X153647749Y-81984556D01*
X153658390Y-81992287D01*
X153751051Y-82039500D01*
X153840776Y-82085218D01*
X153840778Y-82085218D01*
X153840781Y-82085220D01*
X153945137Y-82119127D01*
X154035465Y-82148477D01*
X154130297Y-82163497D01*
X154237648Y-82180500D01*
X154237649Y-82180500D01*
X154442351Y-82180500D01*
X154442352Y-82180500D01*
X154644534Y-82148477D01*
X154839219Y-82085220D01*
X155021610Y-81992287D01*
X155114590Y-81924732D01*
X155187213Y-81871971D01*
X155187215Y-81871968D01*
X155187219Y-81871966D01*
X155331966Y-81727219D01*
X155331968Y-81727215D01*
X155331971Y-81727213D01*
X155384732Y-81654590D01*
X155452287Y-81561610D01*
X155545220Y-81379219D01*
X155608477Y-81184534D01*
X155640500Y-80982352D01*
X155640500Y-80777648D01*
X155624742Y-80678156D01*
X155608477Y-80575465D01*
X155545218Y-80380776D01*
X155470370Y-80233880D01*
X155457474Y-80165211D01*
X155483750Y-80100470D01*
X155540857Y-80060213D01*
X155610662Y-80057221D01*
X155668536Y-80089904D01*
X156221578Y-80642947D01*
X156221585Y-80642953D01*
X156292741Y-80690497D01*
X156292743Y-80690498D01*
X156292746Y-80690500D01*
X156344505Y-80725084D01*
X156344506Y-80725084D01*
X156344507Y-80725085D01*
X156476937Y-80779939D01*
X156481087Y-80781658D01*
X156481091Y-80781658D01*
X156481092Y-80781659D01*
X156626079Y-80810500D01*
X156626082Y-80810500D01*
X156626083Y-80810500D01*
X156773917Y-80810500D01*
X157397770Y-80810500D01*
X157464809Y-80830185D01*
X157485451Y-80846819D01*
X159151580Y-82512948D01*
X159151584Y-82512951D01*
X159274498Y-82595080D01*
X159274511Y-82595087D01*
X159381469Y-82639390D01*
X159411087Y-82651658D01*
X159411091Y-82651658D01*
X159411092Y-82651659D01*
X159556079Y-82680500D01*
X159556082Y-82680500D01*
X159703917Y-82680500D01*
X164625396Y-82680500D01*
X164672844Y-82689937D01*
X164696503Y-82699737D01*
X164696508Y-82699738D01*
X164696511Y-82699739D01*
X164851153Y-82730499D01*
X164851156Y-82730500D01*
X164851158Y-82730500D01*
X165008844Y-82730500D01*
X165008845Y-82730499D01*
X165163497Y-82699737D01*
X165309179Y-82639394D01*
X165440289Y-82551789D01*
X165551789Y-82440289D01*
X165639394Y-82309179D01*
X165699737Y-82163497D01*
X165730500Y-82008842D01*
X165730500Y-81851158D01*
X165730500Y-81851155D01*
X165730499Y-81851153D01*
X165699737Y-81696503D01*
X165699735Y-81696498D01*
X165639397Y-81550827D01*
X165639390Y-81550814D01*
X165551789Y-81419711D01*
X165551786Y-81419707D01*
X165440292Y-81308213D01*
X165440288Y-81308210D01*
X165309185Y-81220609D01*
X165309172Y-81220602D01*
X165163501Y-81160264D01*
X165163489Y-81160261D01*
X165008845Y-81129500D01*
X165008842Y-81129500D01*
X164851158Y-81129500D01*
X164851155Y-81129500D01*
X164696511Y-81160260D01*
X164696506Y-81160262D01*
X164696504Y-81160262D01*
X164696503Y-81160263D01*
X164672844Y-81170062D01*
X164625396Y-81179500D01*
X159992229Y-81179500D01*
X159925190Y-81159815D01*
X159904548Y-81143181D01*
X158238421Y-79477052D01*
X158238414Y-79477046D01*
X158164729Y-79427812D01*
X158164729Y-79427813D01*
X158115491Y-79394913D01*
X157978917Y-79338343D01*
X157978907Y-79338340D01*
X157833920Y-79309500D01*
X157833918Y-79309500D01*
X157062230Y-79309500D01*
X156995191Y-79289815D01*
X156974549Y-79273181D01*
X156486071Y-78784703D01*
X156459191Y-78744475D01*
X156449394Y-78720821D01*
X156422636Y-78680775D01*
X156361789Y-78589710D01*
X156250292Y-78478213D01*
X156250288Y-78478210D01*
X156119185Y-78390609D01*
X156119172Y-78390602D01*
X155973501Y-78330264D01*
X155973489Y-78330261D01*
X155818845Y-78299500D01*
X155818842Y-78299500D01*
X155661158Y-78299500D01*
X155661155Y-78299500D01*
X155506510Y-78330261D01*
X155506498Y-78330264D01*
X155360827Y-78390602D01*
X155360814Y-78390609D01*
X155303391Y-78428979D01*
X155236714Y-78449857D01*
X155169333Y-78431373D01*
X155122643Y-78379394D01*
X155110500Y-78325877D01*
X155110500Y-76046079D01*
X155099443Y-75990494D01*
X155097256Y-75979500D01*
X155081659Y-75901088D01*
X155025669Y-75765920D01*
X155025317Y-75764853D01*
X154942954Y-75641588D01*
X154942953Y-75641587D01*
X154942951Y-75641584D01*
X154838416Y-75537049D01*
X154165872Y-74864505D01*
X153434115Y-74132747D01*
X153352521Y-74051153D01*
X159739500Y-74051153D01*
X159739500Y-74208846D01*
X159770261Y-74363489D01*
X159770264Y-74363501D01*
X159827859Y-74502548D01*
X159835328Y-74572017D01*
X159827859Y-74597452D01*
X159770264Y-74736498D01*
X159770261Y-74736510D01*
X159739500Y-74891153D01*
X159739500Y-75048846D01*
X159770261Y-75203489D01*
X159770264Y-75203501D01*
X159827859Y-75342548D01*
X159835328Y-75412017D01*
X159827859Y-75437452D01*
X159770264Y-75576498D01*
X159770261Y-75576510D01*
X159739500Y-75731153D01*
X159739500Y-75888846D01*
X159770261Y-76043489D01*
X159770264Y-76043501D01*
X159829930Y-76187548D01*
X159837399Y-76257017D01*
X159829930Y-76282452D01*
X159770264Y-76426498D01*
X159770261Y-76426510D01*
X159739500Y-76581153D01*
X159739500Y-76738846D01*
X159770261Y-76893489D01*
X159770264Y-76893501D01*
X159827859Y-77032548D01*
X159835328Y-77102017D01*
X159827859Y-77127452D01*
X159770264Y-77266498D01*
X159770261Y-77266510D01*
X159739500Y-77421153D01*
X159739500Y-77578846D01*
X159770261Y-77733489D01*
X159770264Y-77733501D01*
X159829930Y-77877548D01*
X159837399Y-77947017D01*
X159829930Y-77972452D01*
X159770264Y-78116498D01*
X159770261Y-78116510D01*
X159739500Y-78271153D01*
X159739500Y-78428846D01*
X159770261Y-78583489D01*
X159770264Y-78583501D01*
X159827859Y-78722548D01*
X159835328Y-78792017D01*
X159827859Y-78817452D01*
X159770264Y-78956498D01*
X159770261Y-78956510D01*
X159739500Y-79111153D01*
X159739500Y-79268846D01*
X159770261Y-79423489D01*
X159770264Y-79423501D01*
X159829930Y-79567548D01*
X159837399Y-79637017D01*
X159829930Y-79662452D01*
X159770264Y-79806498D01*
X159770261Y-79806510D01*
X159739500Y-79961153D01*
X159739500Y-80118846D01*
X159770261Y-80273489D01*
X159770264Y-80273501D01*
X159830602Y-80419172D01*
X159830609Y-80419185D01*
X159918210Y-80550288D01*
X159918213Y-80550292D01*
X160029707Y-80661786D01*
X160029711Y-80661789D01*
X160160814Y-80749390D01*
X160160827Y-80749397D01*
X160299458Y-80806819D01*
X160306503Y-80809737D01*
X160461153Y-80840499D01*
X160461156Y-80840500D01*
X160461158Y-80840500D01*
X160618844Y-80840500D01*
X160618845Y-80840499D01*
X160773497Y-80809737D01*
X160841284Y-80781659D01*
X160845437Y-80779939D01*
X160892889Y-80770500D01*
X165938481Y-80770500D01*
X166005520Y-80790185D01*
X166026162Y-80806819D01*
X166933181Y-81713838D01*
X166966666Y-81775161D01*
X166969500Y-81801519D01*
X166969500Y-83889963D01*
X166949815Y-83957002D01*
X166948602Y-83958853D01*
X166940606Y-83970818D01*
X166940604Y-83970822D01*
X166880264Y-84116498D01*
X166880261Y-84116510D01*
X166849500Y-84271153D01*
X166849500Y-84428846D01*
X166880261Y-84583489D01*
X166880264Y-84583501D01*
X166940602Y-84729172D01*
X166940609Y-84729185D01*
X167028210Y-84860288D01*
X167028213Y-84860292D01*
X167139707Y-84971786D01*
X167139711Y-84971789D01*
X167270814Y-85059390D01*
X167270827Y-85059397D01*
X167416498Y-85119735D01*
X167416503Y-85119737D01*
X167538863Y-85144076D01*
X167571153Y-85150499D01*
X167571156Y-85150500D01*
X167571158Y-85150500D01*
X167728844Y-85150500D01*
X167728845Y-85150499D01*
X167883497Y-85119737D01*
X168029179Y-85059394D01*
X168131111Y-84991284D01*
X168197786Y-84970408D01*
X168265166Y-84988892D01*
X168268847Y-84991257D01*
X168370821Y-85059394D01*
X168370823Y-85059395D01*
X168370827Y-85059397D01*
X168516498Y-85119735D01*
X168516503Y-85119737D01*
X168638863Y-85144076D01*
X168671153Y-85150499D01*
X168671156Y-85150500D01*
X168671158Y-85150500D01*
X168828844Y-85150500D01*
X168828845Y-85150499D01*
X168983497Y-85119737D01*
X169129179Y-85059394D01*
X169231111Y-84991284D01*
X169297786Y-84970408D01*
X169365166Y-84988892D01*
X169368847Y-84991257D01*
X169470821Y-85059394D01*
X169470823Y-85059395D01*
X169470827Y-85059397D01*
X169616498Y-85119735D01*
X169616503Y-85119737D01*
X169738863Y-85144076D01*
X169771153Y-85150499D01*
X169771156Y-85150500D01*
X169771158Y-85150500D01*
X169928844Y-85150500D01*
X169928845Y-85150499D01*
X170083497Y-85119737D01*
X170229179Y-85059394D01*
X170331111Y-84991284D01*
X170397786Y-84970408D01*
X170465166Y-84988892D01*
X170468847Y-84991257D01*
X170570821Y-85059394D01*
X170570823Y-85059395D01*
X170570827Y-85059397D01*
X170716498Y-85119735D01*
X170716503Y-85119737D01*
X170838863Y-85144076D01*
X170871153Y-85150499D01*
X170871156Y-85150500D01*
X170871158Y-85150500D01*
X171028844Y-85150500D01*
X171028845Y-85150499D01*
X171183497Y-85119737D01*
X171329179Y-85059394D01*
X171431111Y-84991284D01*
X171497786Y-84970408D01*
X171565166Y-84988892D01*
X171568847Y-84991257D01*
X171670821Y-85059394D01*
X171670823Y-85059395D01*
X171670827Y-85059397D01*
X171816498Y-85119735D01*
X171816503Y-85119737D01*
X171938863Y-85144076D01*
X171971153Y-85150499D01*
X171971156Y-85150500D01*
X171971158Y-85150500D01*
X172128844Y-85150500D01*
X172128845Y-85150499D01*
X172283497Y-85119737D01*
X172429179Y-85059394D01*
X172531111Y-84991284D01*
X172597786Y-84970408D01*
X172665166Y-84988892D01*
X172668847Y-84991257D01*
X172770821Y-85059394D01*
X172770823Y-85059395D01*
X172770827Y-85059397D01*
X172916498Y-85119735D01*
X172916503Y-85119737D01*
X173038863Y-85144076D01*
X173071153Y-85150499D01*
X173071156Y-85150500D01*
X173071158Y-85150500D01*
X173228844Y-85150500D01*
X173228845Y-85150499D01*
X173383497Y-85119737D01*
X173529179Y-85059394D01*
X173631111Y-84991284D01*
X173697786Y-84970408D01*
X173765166Y-84988892D01*
X173768847Y-84991257D01*
X173870821Y-85059394D01*
X173870823Y-85059395D01*
X173870827Y-85059397D01*
X174016498Y-85119735D01*
X174016503Y-85119737D01*
X174138863Y-85144076D01*
X174171153Y-85150499D01*
X174171156Y-85150500D01*
X174171158Y-85150500D01*
X174328844Y-85150500D01*
X174328845Y-85150499D01*
X174483497Y-85119737D01*
X174629179Y-85059394D01*
X174731111Y-84991284D01*
X174797786Y-84970408D01*
X174865166Y-84988892D01*
X174868847Y-84991257D01*
X174970821Y-85059394D01*
X174970823Y-85059395D01*
X174970827Y-85059397D01*
X175116498Y-85119735D01*
X175116503Y-85119737D01*
X175238863Y-85144076D01*
X175271153Y-85150499D01*
X175271156Y-85150500D01*
X175271158Y-85150500D01*
X175428844Y-85150500D01*
X175428845Y-85150499D01*
X175583497Y-85119737D01*
X175729179Y-85059394D01*
X175860289Y-84971789D01*
X175971789Y-84860289D01*
X176059394Y-84729179D01*
X176119737Y-84583497D01*
X176150500Y-84428842D01*
X176150500Y-84271158D01*
X176150500Y-84271155D01*
X176150499Y-84271153D01*
X176119738Y-84116510D01*
X176119737Y-84116503D01*
X176086425Y-84036079D01*
X176059395Y-83970822D01*
X176059393Y-83970818D01*
X176051398Y-83958853D01*
X176030520Y-83892176D01*
X176030500Y-83889963D01*
X176030500Y-75061005D01*
X176018580Y-75001082D01*
X176011187Y-74963917D01*
X176003580Y-74925672D01*
X175950775Y-74798189D01*
X175874114Y-74683457D01*
X175874112Y-74683454D01*
X174776545Y-73585887D01*
X174661807Y-73509222D01*
X174534332Y-73456421D01*
X174534322Y-73456418D01*
X174398996Y-73429500D01*
X174398994Y-73429500D01*
X174398993Y-73429500D01*
X160965316Y-73429500D01*
X160917864Y-73420061D01*
X160773501Y-73360264D01*
X160773489Y-73360261D01*
X160618845Y-73329500D01*
X160618842Y-73329500D01*
X160461158Y-73329500D01*
X160461155Y-73329500D01*
X160306510Y-73360261D01*
X160306498Y-73360264D01*
X160160827Y-73420602D01*
X160160814Y-73420609D01*
X160029711Y-73508210D01*
X160029707Y-73508213D01*
X159918213Y-73619707D01*
X159918210Y-73619711D01*
X159830609Y-73750814D01*
X159830602Y-73750827D01*
X159770264Y-73896498D01*
X159770261Y-73896510D01*
X159739500Y-74051153D01*
X153352521Y-74051153D01*
X153248413Y-73947045D01*
X153203027Y-73916721D01*
X153172768Y-73896503D01*
X153125495Y-73864916D01*
X153125494Y-73864915D01*
X153125492Y-73864914D01*
X153125490Y-73864913D01*
X152988917Y-73808343D01*
X152988907Y-73808340D01*
X152843920Y-73779500D01*
X152843918Y-73779500D01*
X150871474Y-73779500D01*
X150804435Y-73759815D01*
X150773099Y-73730987D01*
X150767836Y-73724128D01*
X150707541Y-73645551D01*
X150614449Y-73552459D01*
X150614444Y-73552455D01*
X150509767Y-73472132D01*
X150509749Y-73472120D01*
X150395751Y-73406303D01*
X150395750Y-73406302D01*
X150284603Y-73360263D01*
X150273829Y-73355800D01*
X150146662Y-73321725D01*
X150146661Y-73321724D01*
X150146658Y-73321724D01*
X150015833Y-73304500D01*
X150015826Y-73304500D01*
X149504500Y-73304500D01*
X149437461Y-73284815D01*
X149391706Y-73232011D01*
X149380500Y-73180500D01*
X149380500Y-71993732D01*
X149400185Y-71926693D01*
X149452989Y-71880938D01*
X149465495Y-71876026D01*
X149499334Y-71864814D01*
X149648656Y-71772712D01*
X149772712Y-71648656D01*
X149864814Y-71499334D01*
X149919999Y-71332797D01*
X149930500Y-71230009D01*
X149930499Y-70826405D01*
X149932882Y-70802212D01*
X149940500Y-70763918D01*
X149940500Y-70616081D01*
X149932882Y-70577786D01*
X149930499Y-70553593D01*
X149930499Y-70029998D01*
X149930498Y-70029981D01*
X149919999Y-69927203D01*
X149919998Y-69927200D01*
X149915022Y-69912184D01*
X149864814Y-69760666D01*
X149772712Y-69611344D01*
X149648656Y-69487288D01*
X149547314Y-69424780D01*
X149499336Y-69395187D01*
X149499331Y-69395185D01*
X149444262Y-69376937D01*
X149332797Y-69340001D01*
X149332795Y-69340000D01*
X149230016Y-69329500D01*
X149230009Y-69329500D01*
X148214500Y-69329500D01*
X148147461Y-69309815D01*
X148101706Y-69257011D01*
X148090500Y-69205500D01*
X148090500Y-68732230D01*
X148099144Y-68702789D01*
X148105668Y-68672803D01*
X148109422Y-68667787D01*
X148110185Y-68665191D01*
X148126819Y-68644549D01*
X148194549Y-68576819D01*
X148255872Y-68543334D01*
X148282230Y-68540500D01*
X164767770Y-68540500D01*
X164834809Y-68560185D01*
X164855451Y-68576819D01*
X165003181Y-68724549D01*
X165036666Y-68785872D01*
X165039500Y-68812230D01*
X165039500Y-69432779D01*
X165019815Y-69499818D01*
X164988385Y-69533097D01*
X164910211Y-69589893D01*
X164910205Y-69589898D01*
X164759890Y-69740213D01*
X164634949Y-69912182D01*
X164630484Y-69920946D01*
X164582509Y-69971742D01*
X164514688Y-69988536D01*
X164448553Y-69965998D01*
X164409516Y-69920946D01*
X164405050Y-69912182D01*
X164280109Y-69740213D01*
X164129786Y-69589890D01*
X163957820Y-69464951D01*
X163768414Y-69368444D01*
X163768413Y-69368443D01*
X163768412Y-69368443D01*
X163566243Y-69302754D01*
X163566241Y-69302753D01*
X163566240Y-69302753D01*
X163404957Y-69277208D01*
X163356287Y-69269500D01*
X163143713Y-69269500D01*
X163095042Y-69277208D01*
X162933760Y-69302753D01*
X162933757Y-69302754D01*
X162752886Y-69361523D01*
X162731585Y-69368444D01*
X162542179Y-69464951D01*
X162370213Y-69589890D01*
X162219890Y-69740213D01*
X162094951Y-69912179D01*
X161998444Y-70101585D01*
X161932753Y-70303760D01*
X161899500Y-70513713D01*
X161899500Y-70726286D01*
X161932753Y-70936239D01*
X161998444Y-71138414D01*
X162094951Y-71327820D01*
X162219890Y-71499786D01*
X162370213Y-71650109D01*
X162542179Y-71775048D01*
X162542181Y-71775049D01*
X162542184Y-71775051D01*
X162731588Y-71871557D01*
X162933757Y-71937246D01*
X163143713Y-71970500D01*
X163143714Y-71970500D01*
X163356286Y-71970500D01*
X163356287Y-71970500D01*
X163566243Y-71937246D01*
X163768412Y-71871557D01*
X163957816Y-71775051D01*
X164044478Y-71712088D01*
X164129786Y-71650109D01*
X164129788Y-71650106D01*
X164129792Y-71650104D01*
X164280104Y-71499792D01*
X164280106Y-71499788D01*
X164280109Y-71499786D01*
X164401432Y-71332797D01*
X164405051Y-71327816D01*
X164409514Y-71319054D01*
X164457488Y-71268259D01*
X164525308Y-71251463D01*
X164591444Y-71273999D01*
X164630486Y-71319056D01*
X164634951Y-71327820D01*
X164759890Y-71499786D01*
X164910213Y-71650109D01*
X165082179Y-71775048D01*
X165082181Y-71775049D01*
X165082184Y-71775051D01*
X165271588Y-71871557D01*
X165473757Y-71937246D01*
X165683713Y-71970500D01*
X165683714Y-71970500D01*
X165896286Y-71970500D01*
X165896287Y-71970500D01*
X166106243Y-71937246D01*
X166308412Y-71871557D01*
X166497816Y-71775051D01*
X166584478Y-71712088D01*
X166669784Y-71650110D01*
X166669784Y-71650109D01*
X166669792Y-71650104D01*
X166783717Y-71536178D01*
X166845036Y-71502696D01*
X166914728Y-71507680D01*
X166970662Y-71549551D01*
X166987577Y-71580528D01*
X167036646Y-71712088D01*
X167036649Y-71712093D01*
X167122809Y-71827187D01*
X167122812Y-71827190D01*
X167237906Y-71913350D01*
X167237913Y-71913354D01*
X167372620Y-71963596D01*
X167372627Y-71963598D01*
X167432155Y-71969999D01*
X167432172Y-71970000D01*
X168080000Y-71970000D01*
X168080000Y-71053012D01*
X168137007Y-71085925D01*
X168264174Y-71120000D01*
X168395826Y-71120000D01*
X168522993Y-71085925D01*
X168580000Y-71053012D01*
X168580000Y-71970000D01*
X169227828Y-71970000D01*
X169227844Y-71969999D01*
X169287372Y-71963598D01*
X169287379Y-71963596D01*
X169422086Y-71913354D01*
X169422093Y-71913350D01*
X169537187Y-71827190D01*
X169537190Y-71827187D01*
X169623350Y-71712093D01*
X169623354Y-71712086D01*
X169673596Y-71577379D01*
X169673598Y-71577372D01*
X169679999Y-71517844D01*
X169680000Y-71517827D01*
X169680000Y-70870000D01*
X168763012Y-70870000D01*
X168795925Y-70812993D01*
X168830000Y-70685826D01*
X168830000Y-70554174D01*
X168795925Y-70427007D01*
X168763012Y-70370000D01*
X169680000Y-70370000D01*
X169680000Y-69722172D01*
X169679999Y-69722155D01*
X169673598Y-69662627D01*
X169673596Y-69662620D01*
X169623354Y-69527913D01*
X169623350Y-69527906D01*
X169537190Y-69412812D01*
X169537187Y-69412809D01*
X169422093Y-69326649D01*
X169422086Y-69326645D01*
X169287379Y-69276403D01*
X169287372Y-69276401D01*
X169227844Y-69270000D01*
X168580000Y-69270000D01*
X168580000Y-70186988D01*
X168522993Y-70154075D01*
X168395826Y-70120000D01*
X168264174Y-70120000D01*
X168137007Y-70154075D01*
X168080000Y-70186988D01*
X168080000Y-69270000D01*
X167432155Y-69270000D01*
X167372627Y-69276401D01*
X167372620Y-69276403D01*
X167237913Y-69326645D01*
X167237906Y-69326649D01*
X167122812Y-69412809D01*
X167122809Y-69412812D01*
X167036649Y-69527906D01*
X167036646Y-69527912D01*
X166987577Y-69659471D01*
X166945705Y-69715404D01*
X166880241Y-69739821D01*
X166811968Y-69724969D01*
X166783714Y-69703818D01*
X166669794Y-69589898D01*
X166669788Y-69589893D01*
X166591615Y-69533097D01*
X166548949Y-69477767D01*
X166540500Y-69432779D01*
X166540500Y-68376079D01*
X166511659Y-68231092D01*
X166511658Y-68231091D01*
X166511658Y-68231087D01*
X166455084Y-68094505D01*
X166422186Y-68045270D01*
X166422185Y-68045268D01*
X166372956Y-67971589D01*
X166372952Y-67971584D01*
X165608421Y-67207052D01*
X165608414Y-67207046D01*
X165534729Y-67157812D01*
X165534729Y-67157813D01*
X165485491Y-67124913D01*
X165348917Y-67068343D01*
X165348907Y-67068340D01*
X165203920Y-67039500D01*
X165203918Y-67039500D01*
X147846082Y-67039500D01*
X147846080Y-67039500D01*
X147701092Y-67068340D01*
X147701086Y-67068342D01*
X147564508Y-67124914D01*
X147564496Y-67124921D01*
X147515269Y-67157813D01*
X147441588Y-67207044D01*
X147441580Y-67207050D01*
X146757050Y-67891580D01*
X146757044Y-67891588D01*
X146707812Y-67965268D01*
X146707813Y-67965269D01*
X146674921Y-68014496D01*
X146674914Y-68014508D01*
X146618342Y-68151086D01*
X146618340Y-68151092D01*
X146589500Y-68296079D01*
X146589500Y-69254199D01*
X146569815Y-69321238D01*
X146517011Y-69366993D01*
X146447853Y-69376937D01*
X146427183Y-69372130D01*
X146394542Y-69361524D01*
X146394535Y-69361523D01*
X146293443Y-69345511D01*
X146192352Y-69329500D01*
X145987648Y-69329500D01*
X145963329Y-69333351D01*
X145785465Y-69361522D01*
X145590776Y-69424781D01*
X145408386Y-69517715D01*
X145242786Y-69638028D01*
X145098028Y-69782786D01*
X144977715Y-69948386D01*
X144930485Y-70041080D01*
X144882510Y-70091876D01*
X144814689Y-70108671D01*
X144748554Y-70086134D01*
X144709515Y-70041080D01*
X144674185Y-69971742D01*
X144662287Y-69948390D01*
X144635981Y-69912182D01*
X144541971Y-69782786D01*
X144397213Y-69638028D01*
X144231613Y-69517715D01*
X144231612Y-69517714D01*
X144231610Y-69517713D01*
X144153212Y-69477767D01*
X144049223Y-69424781D01*
X143854534Y-69361522D01*
X143679995Y-69333878D01*
X143652352Y-69329500D01*
X143447648Y-69329500D01*
X143423329Y-69333351D01*
X143245465Y-69361522D01*
X143050776Y-69424781D01*
X142868386Y-69517715D01*
X142702786Y-69638028D01*
X142558028Y-69782786D01*
X142437715Y-69948386D01*
X142390485Y-70041080D01*
X142342510Y-70091876D01*
X142274689Y-70108671D01*
X142208554Y-70086134D01*
X142169515Y-70041080D01*
X142134185Y-69971742D01*
X142122287Y-69948390D01*
X142095981Y-69912182D01*
X142001971Y-69782786D01*
X141857213Y-69638028D01*
X141691613Y-69517715D01*
X141691612Y-69517714D01*
X141691610Y-69517713D01*
X141613212Y-69477767D01*
X141509223Y-69424781D01*
X141314534Y-69361522D01*
X141139995Y-69333878D01*
X141112352Y-69329500D01*
X140907648Y-69329500D01*
X140883329Y-69333351D01*
X140705465Y-69361522D01*
X140510776Y-69424781D01*
X140328386Y-69517715D01*
X140162786Y-69638028D01*
X140018028Y-69782786D01*
X139897715Y-69948386D01*
X139850485Y-70041080D01*
X139802510Y-70091876D01*
X139734689Y-70108671D01*
X139668554Y-70086134D01*
X139629515Y-70041080D01*
X139594185Y-69971742D01*
X139582287Y-69948390D01*
X139555981Y-69912182D01*
X139461971Y-69782786D01*
X139317213Y-69638028D01*
X139151613Y-69517715D01*
X139151612Y-69517714D01*
X139151610Y-69517713D01*
X139073212Y-69477767D01*
X138969223Y-69424781D01*
X138774534Y-69361522D01*
X138599995Y-69333878D01*
X138572352Y-69329500D01*
X138367648Y-69329500D01*
X138343329Y-69333351D01*
X138165465Y-69361522D01*
X137970776Y-69424781D01*
X137788386Y-69517715D01*
X137622786Y-69638028D01*
X137478028Y-69782786D01*
X137357715Y-69948386D01*
X137310485Y-70041080D01*
X137262510Y-70091876D01*
X137194689Y-70108671D01*
X137128554Y-70086134D01*
X137089515Y-70041080D01*
X137054185Y-69971742D01*
X137042287Y-69948390D01*
X137015981Y-69912182D01*
X136921971Y-69782786D01*
X136777213Y-69638028D01*
X136611613Y-69517715D01*
X136611612Y-69517714D01*
X136611610Y-69517713D01*
X136533212Y-69477767D01*
X136429223Y-69424781D01*
X136234534Y-69361522D01*
X136059995Y-69333878D01*
X136032352Y-69329500D01*
X135827648Y-69329500D01*
X135803329Y-69333351D01*
X135625465Y-69361522D01*
X135430776Y-69424781D01*
X135248386Y-69517715D01*
X135082786Y-69638028D01*
X134938028Y-69782786D01*
X134817715Y-69948386D01*
X134770485Y-70041080D01*
X134722510Y-70091876D01*
X134654689Y-70108671D01*
X134588554Y-70086134D01*
X134549515Y-70041080D01*
X134514185Y-69971742D01*
X134502287Y-69948390D01*
X134475981Y-69912182D01*
X134381971Y-69782786D01*
X134237213Y-69638028D01*
X134071613Y-69517715D01*
X134071612Y-69517714D01*
X134071610Y-69517713D01*
X133993212Y-69477767D01*
X133889223Y-69424781D01*
X133694534Y-69361522D01*
X133519995Y-69333878D01*
X133492352Y-69329500D01*
X133287648Y-69329500D01*
X133263329Y-69333351D01*
X133085465Y-69361522D01*
X132890776Y-69424781D01*
X132708386Y-69517715D01*
X132542786Y-69638028D01*
X132398028Y-69782786D01*
X132277715Y-69948386D01*
X132230485Y-70041080D01*
X132182510Y-70091876D01*
X132114689Y-70108671D01*
X132048554Y-70086134D01*
X132009515Y-70041080D01*
X131974185Y-69971742D01*
X131962287Y-69948390D01*
X131935981Y-69912182D01*
X131841971Y-69782786D01*
X131697213Y-69638028D01*
X131531613Y-69517715D01*
X131531612Y-69517714D01*
X131531610Y-69517713D01*
X131453212Y-69477767D01*
X131349223Y-69424781D01*
X131154534Y-69361522D01*
X130979995Y-69333878D01*
X130952352Y-69329500D01*
X130747648Y-69329500D01*
X130723329Y-69333351D01*
X130545465Y-69361522D01*
X130350776Y-69424781D01*
X130168386Y-69517715D01*
X130002786Y-69638028D01*
X129858028Y-69782786D01*
X129737715Y-69948386D01*
X129690485Y-70041080D01*
X129642510Y-70091876D01*
X129574689Y-70108671D01*
X129508554Y-70086134D01*
X129469515Y-70041080D01*
X129434185Y-69971742D01*
X129422287Y-69948390D01*
X129395981Y-69912182D01*
X129301971Y-69782786D01*
X129157213Y-69638028D01*
X128991613Y-69517715D01*
X128991612Y-69517714D01*
X128991610Y-69517713D01*
X128913212Y-69477767D01*
X128809223Y-69424781D01*
X128614534Y-69361522D01*
X128439995Y-69333878D01*
X128412352Y-69329500D01*
X128207648Y-69329500D01*
X128183329Y-69333351D01*
X128005465Y-69361522D01*
X127810776Y-69424781D01*
X127628386Y-69517715D01*
X127462786Y-69638028D01*
X127318028Y-69782786D01*
X127197715Y-69948386D01*
X127150485Y-70041080D01*
X127102510Y-70091876D01*
X127034689Y-70108671D01*
X126968554Y-70086134D01*
X126929515Y-70041080D01*
X126894185Y-69971742D01*
X126882287Y-69948390D01*
X126855981Y-69912182D01*
X126761971Y-69782786D01*
X126617213Y-69638028D01*
X126451613Y-69517715D01*
X126451612Y-69517714D01*
X126451610Y-69517713D01*
X126373212Y-69477767D01*
X126269223Y-69424781D01*
X126074534Y-69361522D01*
X125899995Y-69333878D01*
X125872352Y-69329500D01*
X125667648Y-69329500D01*
X125643329Y-69333351D01*
X125465465Y-69361522D01*
X125270776Y-69424781D01*
X125088386Y-69517715D01*
X124922786Y-69638028D01*
X124778028Y-69782786D01*
X124657715Y-69948386D01*
X124610485Y-70041080D01*
X124562510Y-70091876D01*
X124494689Y-70108671D01*
X124428554Y-70086134D01*
X124389515Y-70041080D01*
X124354185Y-69971742D01*
X124342287Y-69948390D01*
X124315981Y-69912182D01*
X124221971Y-69782786D01*
X124077213Y-69638028D01*
X123911613Y-69517715D01*
X123911612Y-69517714D01*
X123911610Y-69517713D01*
X123833212Y-69477767D01*
X123729223Y-69424781D01*
X123534534Y-69361522D01*
X123359995Y-69333878D01*
X123332352Y-69329500D01*
X123127648Y-69329500D01*
X123103329Y-69333351D01*
X122925465Y-69361522D01*
X122730776Y-69424781D01*
X122548386Y-69517715D01*
X122382786Y-69638028D01*
X122238028Y-69782786D01*
X122117715Y-69948386D01*
X122070485Y-70041080D01*
X122022510Y-70091876D01*
X121954689Y-70108671D01*
X121888554Y-70086134D01*
X121849515Y-70041080D01*
X121814185Y-69971742D01*
X121802287Y-69948390D01*
X121775981Y-69912182D01*
X121681971Y-69782786D01*
X121537213Y-69638028D01*
X121371613Y-69517715D01*
X121371612Y-69517714D01*
X121371610Y-69517713D01*
X121293212Y-69477767D01*
X121189223Y-69424781D01*
X120994534Y-69361522D01*
X120819995Y-69333878D01*
X120792352Y-69329500D01*
X120587648Y-69329500D01*
X120563329Y-69333351D01*
X120385465Y-69361522D01*
X120190776Y-69424781D01*
X120008386Y-69517715D01*
X119842786Y-69638028D01*
X119698028Y-69782786D01*
X119577715Y-69948386D01*
X119530485Y-70041080D01*
X119482510Y-70091876D01*
X119414689Y-70108671D01*
X119348554Y-70086134D01*
X119309515Y-70041080D01*
X119274185Y-69971742D01*
X119262287Y-69948390D01*
X119235981Y-69912182D01*
X119141971Y-69782786D01*
X118997213Y-69638028D01*
X118831613Y-69517715D01*
X118831612Y-69517714D01*
X118831610Y-69517713D01*
X118753212Y-69477767D01*
X118649223Y-69424781D01*
X118454534Y-69361522D01*
X118279995Y-69333878D01*
X118252352Y-69329500D01*
X118047648Y-69329500D01*
X118023329Y-69333351D01*
X117845465Y-69361522D01*
X117650776Y-69424781D01*
X117468386Y-69517715D01*
X117302786Y-69638028D01*
X117158028Y-69782786D01*
X117037713Y-69948388D01*
X116990203Y-70041630D01*
X116942228Y-70092426D01*
X116874407Y-70109220D01*
X116808272Y-70086682D01*
X116769234Y-70041628D01*
X116721861Y-69948652D01*
X116689474Y-69904077D01*
X116689474Y-69904076D01*
X116010000Y-70583551D01*
X116010000Y-70577339D01*
X115982741Y-70475606D01*
X115930080Y-70384394D01*
X115855606Y-70309920D01*
X115764394Y-70257259D01*
X115662661Y-70230000D01*
X115656446Y-70230000D01*
X116335922Y-69550524D01*
X116335921Y-69550523D01*
X116291359Y-69518147D01*
X116291350Y-69518141D01*
X116109031Y-69425244D01*
X115914417Y-69362009D01*
X115712317Y-69330000D01*
X115507683Y-69330000D01*
X115305582Y-69362009D01*
X115110968Y-69425244D01*
X114928644Y-69518143D01*
X114884077Y-69550523D01*
X114884077Y-69550524D01*
X115563554Y-70230000D01*
X115557339Y-70230000D01*
X115455606Y-70257259D01*
X115364394Y-70309920D01*
X115289920Y-70384394D01*
X115237259Y-70475606D01*
X115210000Y-70577339D01*
X115210000Y-70583553D01*
X114530524Y-69904077D01*
X114530523Y-69904077D01*
X114498143Y-69948644D01*
X114405244Y-70130968D01*
X114342009Y-70325582D01*
X114310000Y-70527682D01*
X114310000Y-70732317D01*
X114342009Y-70934417D01*
X114405244Y-71129031D01*
X114498141Y-71311350D01*
X114498147Y-71311359D01*
X114530523Y-71355921D01*
X114530524Y-71355922D01*
X115210000Y-70676446D01*
X115210000Y-70682661D01*
X115237259Y-70784394D01*
X115289920Y-70875606D01*
X115364394Y-70950080D01*
X115455606Y-71002741D01*
X115557339Y-71030000D01*
X115563553Y-71030000D01*
X114884076Y-71709474D01*
X114928650Y-71741859D01*
X115110968Y-71834755D01*
X115305582Y-71897990D01*
X115507683Y-71930000D01*
X115712317Y-71930000D01*
X115914417Y-71897990D01*
X116109031Y-71834755D01*
X116291349Y-71741859D01*
X116335921Y-71709474D01*
X115656447Y-71030000D01*
X115662661Y-71030000D01*
X115764394Y-71002741D01*
X115855606Y-70950080D01*
X115930080Y-70875606D01*
X115982741Y-70784394D01*
X116010000Y-70682661D01*
X116010000Y-70676448D01*
X116689474Y-71355922D01*
X116689474Y-71355921D01*
X116721861Y-71311347D01*
X116721861Y-71311346D01*
X116769234Y-71218371D01*
X116817208Y-71167575D01*
X116885028Y-71150779D01*
X116951164Y-71173316D01*
X116990203Y-71218369D01*
X117037713Y-71311611D01*
X117158028Y-71477213D01*
X117158034Y-71477219D01*
X117302781Y-71621966D01*
X117348384Y-71655098D01*
X117391050Y-71710425D01*
X117399500Y-71755416D01*
X117399500Y-76403918D01*
X117399500Y-76403920D01*
X117399499Y-76403920D01*
X117428340Y-76548907D01*
X117428343Y-76548917D01*
X117484913Y-76685490D01*
X117484916Y-76685495D01*
X117498591Y-76705960D01*
X117498592Y-76705965D01*
X117498594Y-76705965D01*
X117548583Y-76780781D01*
X117567051Y-76808420D01*
X117567052Y-76808421D01*
X119281584Y-78522952D01*
X119281586Y-78522954D01*
X119307489Y-78540261D01*
X119351250Y-78569500D01*
X119404505Y-78605084D01*
X119404507Y-78605085D01*
X119404511Y-78605087D01*
X119499789Y-78644552D01*
X119541087Y-78661658D01*
X119541091Y-78661658D01*
X119541092Y-78661659D01*
X119686079Y-78690500D01*
X119686082Y-78690500D01*
X119686083Y-78690500D01*
X119833918Y-78690500D01*
X126097770Y-78690500D01*
X126127210Y-78699144D01*
X126157197Y-78705668D01*
X126162212Y-78709422D01*
X126164809Y-78710185D01*
X126185451Y-78726819D01*
X126253181Y-78794549D01*
X126286666Y-78855872D01*
X126289500Y-78882230D01*
X126289500Y-84500697D01*
X126269815Y-84567736D01*
X126217011Y-84613491D01*
X126147853Y-84623435D01*
X126127183Y-84618628D01*
X126074542Y-84601524D01*
X126074535Y-84601523D01*
X125929610Y-84578569D01*
X125872352Y-84569500D01*
X125667648Y-84569500D01*
X125643329Y-84573351D01*
X125465465Y-84601522D01*
X125270776Y-84664781D01*
X125088386Y-84757715D01*
X124922786Y-84878028D01*
X124778028Y-85022786D01*
X124657715Y-85188386D01*
X124610485Y-85281080D01*
X124562510Y-85331876D01*
X124494689Y-85348671D01*
X124428554Y-85326134D01*
X124389515Y-85281080D01*
X124388883Y-85279840D01*
X124342287Y-85188390D01*
X124334556Y-85177749D01*
X124221971Y-85022786D01*
X124077213Y-84878028D01*
X123911613Y-84757715D01*
X123911612Y-84757714D01*
X123911610Y-84757713D01*
X123854653Y-84728691D01*
X123729223Y-84664781D01*
X123534534Y-84601522D01*
X123359995Y-84573878D01*
X123332352Y-84569500D01*
X123127648Y-84569500D01*
X123103329Y-84573351D01*
X122925465Y-84601522D01*
X122730776Y-84664781D01*
X122548386Y-84757715D01*
X122382786Y-84878028D01*
X122238028Y-85022786D01*
X122117715Y-85188386D01*
X122070485Y-85281080D01*
X122022510Y-85331876D01*
X121954689Y-85348671D01*
X121888554Y-85326134D01*
X121849515Y-85281080D01*
X121848883Y-85279840D01*
X121802287Y-85188390D01*
X121794556Y-85177749D01*
X121681971Y-85022786D01*
X121537213Y-84878028D01*
X121371613Y-84757715D01*
X121371612Y-84757714D01*
X121371610Y-84757713D01*
X121314653Y-84728691D01*
X121189223Y-84664781D01*
X120994534Y-84601522D01*
X120819995Y-84573878D01*
X120792352Y-84569500D01*
X120587648Y-84569500D01*
X120563329Y-84573351D01*
X120385465Y-84601522D01*
X120190776Y-84664781D01*
X120008386Y-84757715D01*
X119842786Y-84878028D01*
X119698028Y-85022786D01*
X119577715Y-85188386D01*
X119530485Y-85281080D01*
X119482510Y-85331876D01*
X119414689Y-85348671D01*
X119348554Y-85326134D01*
X119309515Y-85281080D01*
X119308883Y-85279840D01*
X119262287Y-85188390D01*
X119254556Y-85177749D01*
X119141971Y-85022786D01*
X118997213Y-84878028D01*
X118831613Y-84757715D01*
X118831612Y-84757714D01*
X118831610Y-84757713D01*
X118774653Y-84728691D01*
X118649223Y-84664781D01*
X118454534Y-84601522D01*
X118279995Y-84573878D01*
X118252352Y-84569500D01*
X118047648Y-84569500D01*
X118023329Y-84573351D01*
X117845465Y-84601522D01*
X117650776Y-84664781D01*
X117468386Y-84757715D01*
X117302786Y-84878028D01*
X117158028Y-85022786D01*
X117037715Y-85188386D01*
X116990485Y-85281080D01*
X116942510Y-85331876D01*
X116874689Y-85348671D01*
X116808554Y-85326134D01*
X116769515Y-85281080D01*
X116768883Y-85279840D01*
X116722287Y-85188390D01*
X116714556Y-85177749D01*
X116601971Y-85022786D01*
X116457213Y-84878028D01*
X116291613Y-84757715D01*
X116291612Y-84757714D01*
X116291610Y-84757713D01*
X116234653Y-84728691D01*
X116109223Y-84664781D01*
X115914534Y-84601522D01*
X115739995Y-84573878D01*
X115712352Y-84569500D01*
X115507648Y-84569500D01*
X115483329Y-84573351D01*
X115305465Y-84601522D01*
X115110776Y-84664781D01*
X114928386Y-84757715D01*
X114762786Y-84878028D01*
X114618028Y-85022786D01*
X114497715Y-85188386D01*
X114404781Y-85370776D01*
X114341522Y-85565465D01*
X114309500Y-85767648D01*
X114309500Y-85972351D01*
X114341522Y-86174534D01*
X114404781Y-86369223D01*
X114468691Y-86494653D01*
X114497578Y-86551346D01*
X114497715Y-86551613D01*
X114618028Y-86717213D01*
X114762786Y-86861971D01*
X114896990Y-86959474D01*
X114928390Y-86982287D01*
X115021724Y-87029843D01*
X115110776Y-87075218D01*
X115110778Y-87075218D01*
X115110781Y-87075220D01*
X115173046Y-87095451D01*
X115305465Y-87138477D01*
X115406557Y-87154488D01*
X115507648Y-87170500D01*
X115507649Y-87170500D01*
X115712351Y-87170500D01*
X115712352Y-87170500D01*
X115914534Y-87138477D01*
X116109219Y-87075220D01*
X116291610Y-86982287D01*
X116411619Y-86895096D01*
X116457213Y-86861971D01*
X116457215Y-86861968D01*
X116457219Y-86861966D01*
X116601966Y-86717219D01*
X116601968Y-86717215D01*
X116601971Y-86717213D01*
X116715204Y-86561359D01*
X116722287Y-86551610D01*
X116769516Y-86458917D01*
X116817489Y-86408123D01*
X116885310Y-86391328D01*
X116951445Y-86413865D01*
X116990483Y-86458917D01*
X116991375Y-86460666D01*
X117037715Y-86551614D01*
X117158028Y-86717213D01*
X117302786Y-86861971D01*
X117436990Y-86959474D01*
X117468390Y-86982287D01*
X117561724Y-87029843D01*
X117650776Y-87075218D01*
X117650778Y-87075218D01*
X117650781Y-87075220D01*
X117713046Y-87095451D01*
X117845465Y-87138477D01*
X117946557Y-87154488D01*
X118047648Y-87170500D01*
X118047649Y-87170500D01*
X118252351Y-87170500D01*
X118252352Y-87170500D01*
X118454534Y-87138477D01*
X118649219Y-87075220D01*
X118831610Y-86982287D01*
X118951619Y-86895096D01*
X118997213Y-86861971D01*
X118997215Y-86861968D01*
X118997219Y-86861966D01*
X119141966Y-86717219D01*
X119141968Y-86717215D01*
X119141971Y-86717213D01*
X119255204Y-86561359D01*
X119262287Y-86551610D01*
X119309516Y-86458917D01*
X119357489Y-86408123D01*
X119425310Y-86391328D01*
X119491445Y-86413865D01*
X119530483Y-86458917D01*
X119531375Y-86460666D01*
X119577715Y-86551614D01*
X119698028Y-86717213D01*
X119842786Y-86861971D01*
X119976990Y-86959474D01*
X120008390Y-86982287D01*
X120101724Y-87029843D01*
X120190776Y-87075218D01*
X120190778Y-87075218D01*
X120190781Y-87075220D01*
X120253046Y-87095451D01*
X120385465Y-87138477D01*
X120486557Y-87154488D01*
X120587648Y-87170500D01*
X120587649Y-87170500D01*
X120792351Y-87170500D01*
X120792352Y-87170500D01*
X120994534Y-87138477D01*
X121189219Y-87075220D01*
X121371610Y-86982287D01*
X121491619Y-86895096D01*
X121537213Y-86861971D01*
X121537215Y-86861968D01*
X121537219Y-86861966D01*
X121681966Y-86717219D01*
X121681968Y-86717215D01*
X121681971Y-86717213D01*
X121795204Y-86561359D01*
X121802287Y-86551610D01*
X121849516Y-86458917D01*
X121897489Y-86408123D01*
X121965310Y-86391328D01*
X122031445Y-86413865D01*
X122070483Y-86458917D01*
X122071375Y-86460666D01*
X122117715Y-86551614D01*
X122238028Y-86717213D01*
X122382786Y-86861971D01*
X122516990Y-86959474D01*
X122548390Y-86982287D01*
X122641724Y-87029843D01*
X122730776Y-87075218D01*
X122730778Y-87075218D01*
X122730781Y-87075220D01*
X122793046Y-87095451D01*
X122925465Y-87138477D01*
X123026557Y-87154488D01*
X123127648Y-87170500D01*
X123127649Y-87170500D01*
X123332351Y-87170500D01*
X123332352Y-87170500D01*
X123534534Y-87138477D01*
X123729219Y-87075220D01*
X123911610Y-86982287D01*
X124031619Y-86895096D01*
X124077213Y-86861971D01*
X124077215Y-86861968D01*
X124077219Y-86861966D01*
X124221966Y-86717219D01*
X124221968Y-86717215D01*
X124221971Y-86717213D01*
X124335204Y-86561359D01*
X124342287Y-86551610D01*
X124389516Y-86458917D01*
X124437489Y-86408123D01*
X124505310Y-86391328D01*
X124571445Y-86413865D01*
X124610483Y-86458917D01*
X124611375Y-86460666D01*
X124657715Y-86551614D01*
X124778028Y-86717213D01*
X124778034Y-86717219D01*
X124922781Y-86861966D01*
X124968384Y-86895098D01*
X124971724Y-86899429D01*
X124976703Y-86901703D01*
X124992832Y-86926801D01*
X125011050Y-86950425D01*
X125012303Y-86957098D01*
X125014477Y-86960481D01*
X125019500Y-86995416D01*
X125019500Y-87007770D01*
X124999815Y-87074809D01*
X124983181Y-87095451D01*
X121347047Y-90731584D01*
X121347045Y-90731586D01*
X121311728Y-90784446D01*
X121311726Y-90784449D01*
X121264919Y-90854499D01*
X121264912Y-90854511D01*
X121208343Y-90991082D01*
X121208340Y-90991092D01*
X121179500Y-91136079D01*
X121179500Y-94312779D01*
X121159815Y-94379818D01*
X121128385Y-94413097D01*
X121050211Y-94469893D01*
X121050205Y-94469898D01*
X120899890Y-94620213D01*
X120774949Y-94792182D01*
X120770484Y-94800946D01*
X120722509Y-94851742D01*
X120654688Y-94868536D01*
X120588553Y-94845998D01*
X120549516Y-94800946D01*
X120545050Y-94792182D01*
X120420109Y-94620213D01*
X120269786Y-94469890D01*
X120097820Y-94344951D01*
X119908414Y-94248444D01*
X119908413Y-94248443D01*
X119908412Y-94248443D01*
X119706243Y-94182754D01*
X119706241Y-94182753D01*
X119706240Y-94182753D01*
X119544957Y-94157208D01*
X119496287Y-94149500D01*
X119283713Y-94149500D01*
X119235042Y-94157208D01*
X119073760Y-94182753D01*
X118871585Y-94248444D01*
X118682179Y-94344951D01*
X118510213Y-94469890D01*
X118359890Y-94620213D01*
X118234949Y-94792182D01*
X118230484Y-94800946D01*
X118182509Y-94851742D01*
X118114688Y-94868536D01*
X118048553Y-94845998D01*
X118009516Y-94800946D01*
X118005050Y-94792182D01*
X117880109Y-94620213D01*
X117729786Y-94469890D01*
X117557820Y-94344951D01*
X117368414Y-94248444D01*
X117368413Y-94248443D01*
X117368412Y-94248443D01*
X117166243Y-94182754D01*
X117166241Y-94182753D01*
X117166240Y-94182753D01*
X117004957Y-94157208D01*
X116956287Y-94149500D01*
X116743713Y-94149500D01*
X116695042Y-94157208D01*
X116533760Y-94182753D01*
X116331585Y-94248444D01*
X116142179Y-94344951D01*
X115970213Y-94469890D01*
X115819890Y-94620213D01*
X115694949Y-94792182D01*
X115690484Y-94800946D01*
X115642509Y-94851742D01*
X115574688Y-94868536D01*
X115508553Y-94845998D01*
X115469516Y-94800946D01*
X115465050Y-94792182D01*
X115340109Y-94620213D01*
X115189786Y-94469890D01*
X115017820Y-94344951D01*
X114828414Y-94248444D01*
X114828413Y-94248443D01*
X114828412Y-94248443D01*
X114626243Y-94182754D01*
X114626241Y-94182753D01*
X114626240Y-94182753D01*
X114464957Y-94157208D01*
X114416287Y-94149500D01*
X114203713Y-94149500D01*
X114155042Y-94157208D01*
X113993760Y-94182753D01*
X113791585Y-94248444D01*
X113602179Y-94344951D01*
X113430213Y-94469890D01*
X113279890Y-94620213D01*
X113154949Y-94792182D01*
X113150484Y-94800946D01*
X113102509Y-94851742D01*
X113034688Y-94868536D01*
X112968553Y-94845998D01*
X112929516Y-94800946D01*
X112925050Y-94792182D01*
X112800109Y-94620213D01*
X112649786Y-94469890D01*
X112477820Y-94344951D01*
X112288414Y-94248444D01*
X112288413Y-94248443D01*
X112288412Y-94248443D01*
X112086243Y-94182754D01*
X112086241Y-94182753D01*
X112086240Y-94182753D01*
X111924957Y-94157208D01*
X111876287Y-94149500D01*
X111663713Y-94149500D01*
X111615042Y-94157208D01*
X111453760Y-94182753D01*
X111251585Y-94248444D01*
X111062179Y-94344951D01*
X110890213Y-94469890D01*
X110739890Y-94620213D01*
X110614949Y-94792182D01*
X110610484Y-94800946D01*
X110562509Y-94851742D01*
X110494688Y-94868536D01*
X110428553Y-94845998D01*
X110389516Y-94800946D01*
X110385050Y-94792182D01*
X110260109Y-94620213D01*
X110109786Y-94469890D01*
X109937820Y-94344951D01*
X109748414Y-94248444D01*
X109748413Y-94248443D01*
X109748412Y-94248443D01*
X109546243Y-94182754D01*
X109546241Y-94182753D01*
X109546240Y-94182753D01*
X109384957Y-94157208D01*
X109336287Y-94149500D01*
X109123713Y-94149500D01*
X109075042Y-94157208D01*
X108913760Y-94182753D01*
X108711585Y-94248444D01*
X108522179Y-94344951D01*
X108350213Y-94469890D01*
X108350209Y-94469894D01*
X108202181Y-94617923D01*
X108140858Y-94651408D01*
X108071166Y-94646424D01*
X108015233Y-94604552D01*
X107990816Y-94539088D01*
X107990500Y-94530242D01*
X107990500Y-65214500D01*
X108010185Y-65147461D01*
X108062989Y-65101706D01*
X108114500Y-65090500D01*
X206865500Y-65090500D01*
X206932539Y-65110185D01*
G37*
%TD.AperFunction*%
%TA.AperFunction,Conductor*%
G36*
X134469474Y-86595922D02*
G01*
X134469474Y-86595921D01*
X134501861Y-86551347D01*
X134501861Y-86551346D01*
X134549234Y-86458371D01*
X134597208Y-86407575D01*
X134665028Y-86390779D01*
X134731164Y-86413316D01*
X134770203Y-86458369D01*
X134817713Y-86551611D01*
X134938028Y-86717213D01*
X135082786Y-86861971D01*
X135216990Y-86959474D01*
X135248390Y-86982287D01*
X135341724Y-87029843D01*
X135430776Y-87075218D01*
X135430778Y-87075218D01*
X135430781Y-87075220D01*
X135493046Y-87095451D01*
X135625465Y-87138477D01*
X135726557Y-87154488D01*
X135827648Y-87170500D01*
X135827649Y-87170500D01*
X136032351Y-87170500D01*
X136032352Y-87170500D01*
X136234534Y-87138477D01*
X136429219Y-87075220D01*
X136611610Y-86982287D01*
X136731619Y-86895096D01*
X136777213Y-86861971D01*
X136777215Y-86861968D01*
X136777219Y-86861966D01*
X136921966Y-86717219D01*
X136921968Y-86717215D01*
X136921971Y-86717213D01*
X137035204Y-86561359D01*
X137042287Y-86551610D01*
X137089516Y-86458917D01*
X137137489Y-86408123D01*
X137205310Y-86391328D01*
X137271445Y-86413865D01*
X137310483Y-86458917D01*
X137311375Y-86460666D01*
X137357715Y-86551614D01*
X137478028Y-86717213D01*
X137622786Y-86861971D01*
X137756990Y-86959474D01*
X137788390Y-86982287D01*
X137881724Y-87029843D01*
X137970776Y-87075218D01*
X137970778Y-87075218D01*
X137970781Y-87075220D01*
X138033046Y-87095451D01*
X138165465Y-87138477D01*
X138266557Y-87154488D01*
X138367648Y-87170500D01*
X138367649Y-87170500D01*
X138572351Y-87170500D01*
X138572352Y-87170500D01*
X138774534Y-87138477D01*
X138969219Y-87075220D01*
X139151610Y-86982287D01*
X139271619Y-86895096D01*
X139317213Y-86861971D01*
X139317215Y-86861968D01*
X139317219Y-86861966D01*
X139461966Y-86717219D01*
X139461968Y-86717215D01*
X139461971Y-86717213D01*
X139575204Y-86561359D01*
X139582287Y-86551610D01*
X139629516Y-86458917D01*
X139677489Y-86408123D01*
X139745310Y-86391328D01*
X139811445Y-86413865D01*
X139850483Y-86458917D01*
X139851375Y-86460666D01*
X139897715Y-86551614D01*
X140018028Y-86717213D01*
X140162786Y-86861971D01*
X140296990Y-86959474D01*
X140328390Y-86982287D01*
X140421724Y-87029843D01*
X140510776Y-87075218D01*
X140510778Y-87075218D01*
X140510781Y-87075220D01*
X140573046Y-87095451D01*
X140705465Y-87138477D01*
X140806557Y-87154488D01*
X140907648Y-87170500D01*
X140907649Y-87170500D01*
X141112351Y-87170500D01*
X141112352Y-87170500D01*
X141314534Y-87138477D01*
X141509219Y-87075220D01*
X141691610Y-86982287D01*
X141811619Y-86895096D01*
X141857213Y-86861971D01*
X141857215Y-86861968D01*
X141857219Y-86861966D01*
X142001966Y-86717219D01*
X142001968Y-86717215D01*
X142001971Y-86717213D01*
X142115204Y-86561359D01*
X142122287Y-86551610D01*
X142169516Y-86458917D01*
X142217489Y-86408123D01*
X142285310Y-86391328D01*
X142351445Y-86413865D01*
X142390483Y-86458917D01*
X142391375Y-86460666D01*
X142437715Y-86551614D01*
X142558028Y-86717213D01*
X142558034Y-86717219D01*
X142702781Y-86861966D01*
X142767536Y-86909012D01*
X142810201Y-86964341D01*
X142816180Y-87033954D01*
X142783575Y-87095750D01*
X142782331Y-87097011D01*
X141515888Y-88363453D01*
X141515887Y-88363454D01*
X141439223Y-88478192D01*
X141386421Y-88605668D01*
X141386418Y-88605680D01*
X141377015Y-88652952D01*
X141377015Y-88652953D01*
X141359500Y-88741004D01*
X141359500Y-88741007D01*
X141359500Y-90871006D01*
X141359500Y-91008994D01*
X141359500Y-91008996D01*
X141359499Y-91008996D01*
X141386418Y-91144322D01*
X141386421Y-91144332D01*
X141439222Y-91271807D01*
X141515887Y-91386545D01*
X141515888Y-91386546D01*
X143095886Y-92966542D01*
X143165426Y-93036082D01*
X143193459Y-93064115D01*
X143308182Y-93140771D01*
X143308186Y-93140773D01*
X143308189Y-93140775D01*
X143382866Y-93171707D01*
X143435671Y-93193580D01*
X143462591Y-93198934D01*
X143559630Y-93218237D01*
X143571006Y-93220500D01*
X143571007Y-93220500D01*
X159238996Y-93220500D01*
X159336231Y-93201158D01*
X159374328Y-93193580D01*
X159438069Y-93167177D01*
X159501807Y-93140777D01*
X159501808Y-93140776D01*
X159501811Y-93140775D01*
X159616543Y-93064114D01*
X160322618Y-92358038D01*
X160383939Y-92324555D01*
X160453630Y-92329539D01*
X160509564Y-92371410D01*
X160527012Y-92403844D01*
X160530120Y-92412507D01*
X160540263Y-92463497D01*
X160600606Y-92609179D01*
X160600779Y-92609439D01*
X160602215Y-92613439D01*
X160602655Y-92620905D01*
X160609500Y-92655316D01*
X160609500Y-94097620D01*
X160589815Y-94164659D01*
X160537011Y-94210414D01*
X160467853Y-94220358D01*
X160447182Y-94215551D01*
X160346240Y-94182753D01*
X160184957Y-94157208D01*
X160136287Y-94149500D01*
X159923713Y-94149500D01*
X159875042Y-94157208D01*
X159713760Y-94182753D01*
X159511585Y-94248444D01*
X159322179Y-94344951D01*
X159150213Y-94469890D01*
X158999890Y-94620213D01*
X158874949Y-94792182D01*
X158870484Y-94800946D01*
X158822509Y-94851742D01*
X158754688Y-94868536D01*
X158688553Y-94845998D01*
X158649516Y-94800946D01*
X158645050Y-94792182D01*
X158520109Y-94620213D01*
X158369786Y-94469890D01*
X158197820Y-94344951D01*
X158008414Y-94248444D01*
X158008413Y-94248443D01*
X158008412Y-94248443D01*
X157806243Y-94182754D01*
X157806241Y-94182753D01*
X157806240Y-94182753D01*
X157644957Y-94157208D01*
X157596287Y-94149500D01*
X157383713Y-94149500D01*
X157335042Y-94157208D01*
X157173760Y-94182753D01*
X156971585Y-94248444D01*
X156782179Y-94344951D01*
X156610213Y-94469890D01*
X156459890Y-94620213D01*
X156334949Y-94792182D01*
X156330484Y-94800946D01*
X156282509Y-94851742D01*
X156214688Y-94868536D01*
X156148553Y-94845998D01*
X156109516Y-94800946D01*
X156105050Y-94792182D01*
X155980109Y-94620213D01*
X155829786Y-94469890D01*
X155657820Y-94344951D01*
X155468414Y-94248444D01*
X155468413Y-94248443D01*
X155468412Y-94248443D01*
X155266243Y-94182754D01*
X155266241Y-94182753D01*
X155266240Y-94182753D01*
X155104957Y-94157208D01*
X155056287Y-94149500D01*
X154843713Y-94149500D01*
X154795042Y-94157208D01*
X154633760Y-94182753D01*
X154431585Y-94248444D01*
X154242179Y-94344951D01*
X154070213Y-94469890D01*
X153919890Y-94620213D01*
X153794949Y-94792182D01*
X153790484Y-94800946D01*
X153742509Y-94851742D01*
X153674688Y-94868536D01*
X153608553Y-94845998D01*
X153569516Y-94800946D01*
X153565050Y-94792182D01*
X153440109Y-94620213D01*
X153289786Y-94469890D01*
X153117820Y-94344951D01*
X152928414Y-94248444D01*
X152928413Y-94248443D01*
X152928412Y-94248443D01*
X152726243Y-94182754D01*
X152726241Y-94182753D01*
X152726240Y-94182753D01*
X152564957Y-94157208D01*
X152516287Y-94149500D01*
X152303713Y-94149500D01*
X152255042Y-94157208D01*
X152093760Y-94182753D01*
X151891585Y-94248444D01*
X151702179Y-94344951D01*
X151530213Y-94469890D01*
X151379890Y-94620213D01*
X151254949Y-94792182D01*
X151250484Y-94800946D01*
X151202509Y-94851742D01*
X151134688Y-94868536D01*
X151068553Y-94845998D01*
X151029516Y-94800946D01*
X151025050Y-94792182D01*
X150900109Y-94620213D01*
X150749786Y-94469890D01*
X150577820Y-94344951D01*
X150388414Y-94248444D01*
X150388413Y-94248443D01*
X150388412Y-94248443D01*
X150186243Y-94182754D01*
X150186241Y-94182753D01*
X150186240Y-94182753D01*
X150024957Y-94157208D01*
X149976287Y-94149500D01*
X149763713Y-94149500D01*
X149715042Y-94157208D01*
X149553760Y-94182753D01*
X149351585Y-94248444D01*
X149162179Y-94344951D01*
X148990213Y-94469890D01*
X148839890Y-94620213D01*
X148714949Y-94792182D01*
X148710484Y-94800946D01*
X148662509Y-94851742D01*
X148594688Y-94868536D01*
X148528553Y-94845998D01*
X148489516Y-94800946D01*
X148485050Y-94792182D01*
X148360109Y-94620213D01*
X148209786Y-94469890D01*
X148037820Y-94344951D01*
X147848414Y-94248444D01*
X147848413Y-94248443D01*
X147848412Y-94248443D01*
X147646243Y-94182754D01*
X147646241Y-94182753D01*
X147646240Y-94182753D01*
X147484957Y-94157208D01*
X147436287Y-94149500D01*
X147223713Y-94149500D01*
X147175042Y-94157208D01*
X147013760Y-94182753D01*
X146811585Y-94248444D01*
X146622179Y-94344951D01*
X146450213Y-94469890D01*
X146299890Y-94620213D01*
X146174949Y-94792182D01*
X146170484Y-94800946D01*
X146122509Y-94851742D01*
X146054688Y-94868536D01*
X145988553Y-94845998D01*
X145949516Y-94800946D01*
X145945050Y-94792182D01*
X145820109Y-94620213D01*
X145669786Y-94469890D01*
X145497820Y-94344951D01*
X145308414Y-94248444D01*
X145308413Y-94248443D01*
X145308412Y-94248443D01*
X145106243Y-94182754D01*
X145106241Y-94182753D01*
X145106240Y-94182753D01*
X144944957Y-94157208D01*
X144896287Y-94149500D01*
X144683713Y-94149500D01*
X144635042Y-94157208D01*
X144473760Y-94182753D01*
X144271585Y-94248444D01*
X144082179Y-94344951D01*
X143910213Y-94469890D01*
X143759890Y-94620213D01*
X143634949Y-94792182D01*
X143630484Y-94800946D01*
X143582509Y-94851742D01*
X143514688Y-94868536D01*
X143448553Y-94845998D01*
X143409516Y-94800946D01*
X143405050Y-94792182D01*
X143280109Y-94620213D01*
X143129786Y-94469890D01*
X142957820Y-94344951D01*
X142768414Y-94248444D01*
X142768413Y-94248443D01*
X142768412Y-94248443D01*
X142566243Y-94182754D01*
X142566241Y-94182753D01*
X142566240Y-94182753D01*
X142404957Y-94157208D01*
X142356287Y-94149500D01*
X142143713Y-94149500D01*
X142095042Y-94157208D01*
X141933760Y-94182753D01*
X141731585Y-94248444D01*
X141542179Y-94344951D01*
X141370213Y-94469890D01*
X141219890Y-94620213D01*
X141094949Y-94792182D01*
X141090484Y-94800946D01*
X141042509Y-94851742D01*
X140974688Y-94868536D01*
X140908553Y-94845998D01*
X140869516Y-94800946D01*
X140865050Y-94792182D01*
X140740109Y-94620213D01*
X140589794Y-94469898D01*
X140589788Y-94469893D01*
X140511615Y-94413097D01*
X140468949Y-94357767D01*
X140460500Y-94312779D01*
X140460500Y-94226079D01*
X140431659Y-94081092D01*
X140431658Y-94081091D01*
X140431658Y-94081087D01*
X140431415Y-94080500D01*
X140375085Y-93944507D01*
X140346540Y-93901786D01*
X140316258Y-93856465D01*
X140292952Y-93821584D01*
X135398416Y-88927048D01*
X135315517Y-88871658D01*
X135297214Y-88859428D01*
X135275500Y-88844919D01*
X135275488Y-88844912D01*
X135138917Y-88788343D01*
X135138907Y-88788340D01*
X134993920Y-88759500D01*
X134993918Y-88759500D01*
X133862229Y-88759500D01*
X133795190Y-88739815D01*
X133774548Y-88723181D01*
X132926819Y-87875451D01*
X132893334Y-87814128D01*
X132890500Y-87787770D01*
X132890500Y-87245275D01*
X132910185Y-87178236D01*
X132962989Y-87132481D01*
X133032147Y-87122537D01*
X133052820Y-87127345D01*
X133085575Y-87137988D01*
X133085581Y-87137989D01*
X133287683Y-87170000D01*
X133492317Y-87170000D01*
X133694417Y-87137990D01*
X133889031Y-87074755D01*
X134071349Y-86981859D01*
X134115921Y-86949474D01*
X133436447Y-86270000D01*
X133442661Y-86270000D01*
X133544394Y-86242741D01*
X133635606Y-86190080D01*
X133710080Y-86115606D01*
X133762741Y-86024394D01*
X133790000Y-85922661D01*
X133790000Y-85916448D01*
X134469474Y-86595922D01*
G37*
%TD.AperFunction*%
%TA.AperFunction,Conductor*%
G36*
X144837227Y-71155389D02*
G01*
X144849808Y-71154850D01*
X144869673Y-71166445D01*
X144891445Y-71173865D01*
X144900719Y-71184568D01*
X144910150Y-71190073D01*
X144930483Y-71218916D01*
X144936139Y-71230016D01*
X144977715Y-71311614D01*
X145098028Y-71477213D01*
X145242786Y-71621971D01*
X145366824Y-71712088D01*
X145408390Y-71742287D01*
X145524607Y-71801503D01*
X145590776Y-71835218D01*
X145590778Y-71835218D01*
X145590781Y-71835220D01*
X145681862Y-71864814D01*
X145785465Y-71898477D01*
X145821542Y-71904191D01*
X145987648Y-71930500D01*
X145987649Y-71930500D01*
X146192351Y-71930500D01*
X146192352Y-71930500D01*
X146394534Y-71898477D01*
X146394539Y-71898475D01*
X146394541Y-71898475D01*
X146427180Y-71887870D01*
X146497021Y-71885873D01*
X146556855Y-71921953D01*
X146587684Y-71984653D01*
X146589500Y-72005800D01*
X146589500Y-73607314D01*
X146583059Y-73629246D01*
X146581158Y-73652026D01*
X146571124Y-73669891D01*
X146569815Y-73674353D01*
X146563876Y-73682800D01*
X146526902Y-73730986D01*
X146470475Y-73772189D01*
X146428526Y-73779500D01*
X145666402Y-73779500D01*
X145642209Y-73777117D01*
X145603918Y-73769500D01*
X145603917Y-73769500D01*
X145456083Y-73769500D01*
X145456081Y-73769500D01*
X145339929Y-73792605D01*
X145318247Y-73796917D01*
X145311086Y-73798342D01*
X145174508Y-73854914D01*
X145174496Y-73854921D01*
X145125269Y-73887813D01*
X145051588Y-73937044D01*
X145051586Y-73937046D01*
X145051584Y-73937047D01*
X145051584Y-73937048D01*
X144947048Y-74041584D01*
X144247047Y-74741584D01*
X144234100Y-74760961D01*
X144221209Y-74780256D01*
X144209227Y-74798189D01*
X144164914Y-74864507D01*
X144108343Y-75001082D01*
X144108340Y-75001092D01*
X144079500Y-75146079D01*
X144079500Y-84503947D01*
X144059815Y-84570986D01*
X144007011Y-84616741D01*
X143937853Y-84626685D01*
X143917182Y-84621878D01*
X143854536Y-84601523D01*
X143682247Y-84574235D01*
X143652352Y-84569500D01*
X143447648Y-84569500D01*
X143423329Y-84573351D01*
X143245465Y-84601522D01*
X143050776Y-84664781D01*
X142868386Y-84757715D01*
X142702786Y-84878028D01*
X142558028Y-85022786D01*
X142437715Y-85188386D01*
X142390485Y-85281080D01*
X142342510Y-85331876D01*
X142274689Y-85348671D01*
X142208554Y-85326134D01*
X142169515Y-85281080D01*
X142168883Y-85279840D01*
X142122287Y-85188390D01*
X142114556Y-85177749D01*
X142001971Y-85022786D01*
X141857213Y-84878028D01*
X141691613Y-84757715D01*
X141691612Y-84757714D01*
X141691610Y-84757713D01*
X141634653Y-84728691D01*
X141509223Y-84664781D01*
X141314534Y-84601522D01*
X141139995Y-84573878D01*
X141112352Y-84569500D01*
X140907648Y-84569500D01*
X140883329Y-84573351D01*
X140705465Y-84601522D01*
X140510776Y-84664781D01*
X140328386Y-84757715D01*
X140162786Y-84878028D01*
X140018028Y-85022786D01*
X139897715Y-85188386D01*
X139850485Y-85281080D01*
X139802510Y-85331876D01*
X139734689Y-85348671D01*
X139668554Y-85326134D01*
X139629515Y-85281080D01*
X139628883Y-85279840D01*
X139582287Y-85188390D01*
X139574556Y-85177749D01*
X139461971Y-85022786D01*
X139317213Y-84878028D01*
X139151613Y-84757715D01*
X139151612Y-84757714D01*
X139151610Y-84757713D01*
X139094653Y-84728691D01*
X138969223Y-84664781D01*
X138774534Y-84601522D01*
X138599995Y-84573878D01*
X138572352Y-84569500D01*
X138367648Y-84569500D01*
X138343329Y-84573351D01*
X138165465Y-84601522D01*
X137970776Y-84664781D01*
X137788386Y-84757715D01*
X137622786Y-84878028D01*
X137478028Y-85022786D01*
X137357715Y-85188386D01*
X137310485Y-85281080D01*
X137262510Y-85331876D01*
X137194689Y-85348671D01*
X137128554Y-85326134D01*
X137089515Y-85281080D01*
X137088883Y-85279840D01*
X137042287Y-85188390D01*
X137034556Y-85177749D01*
X136921971Y-85022786D01*
X136777213Y-84878028D01*
X136611613Y-84757715D01*
X136611612Y-84757714D01*
X136611610Y-84757713D01*
X136554653Y-84728691D01*
X136429223Y-84664781D01*
X136234534Y-84601522D01*
X136059995Y-84573878D01*
X136032352Y-84569500D01*
X135827648Y-84569500D01*
X135803329Y-84573351D01*
X135625465Y-84601522D01*
X135430776Y-84664781D01*
X135248386Y-84757715D01*
X135082786Y-84878028D01*
X134938028Y-85022786D01*
X134817713Y-85188388D01*
X134770203Y-85281630D01*
X134722228Y-85332426D01*
X134654407Y-85349220D01*
X134588272Y-85326682D01*
X134549234Y-85281628D01*
X134501861Y-85188652D01*
X134469474Y-85144077D01*
X134469474Y-85144076D01*
X133790000Y-85823551D01*
X133790000Y-85817339D01*
X133762741Y-85715606D01*
X133710080Y-85624394D01*
X133635606Y-85549920D01*
X133544394Y-85497259D01*
X133442661Y-85470000D01*
X133436446Y-85470000D01*
X134115922Y-84790524D01*
X134115921Y-84790523D01*
X134071359Y-84758147D01*
X134071350Y-84758141D01*
X133889031Y-84665244D01*
X133694417Y-84602009D01*
X133492317Y-84570000D01*
X133287683Y-84570000D01*
X133085581Y-84602010D01*
X133085574Y-84602011D01*
X133052817Y-84612655D01*
X132982976Y-84614650D01*
X132923143Y-84578569D01*
X132892316Y-84515868D01*
X132890500Y-84494724D01*
X132890500Y-75736079D01*
X132861659Y-75591092D01*
X132861658Y-75591091D01*
X132861658Y-75591087D01*
X132851905Y-75567541D01*
X132805087Y-75454511D01*
X132805080Y-75454498D01*
X132722952Y-75331585D01*
X132671867Y-75280500D01*
X132618416Y-75227049D01*
X132392449Y-75001082D01*
X131698421Y-74307052D01*
X131698414Y-74307046D01*
X131624729Y-74257812D01*
X131624729Y-74257813D01*
X131575491Y-74224913D01*
X131438917Y-74168343D01*
X131438907Y-74168340D01*
X131293920Y-74139500D01*
X131293918Y-74139500D01*
X124422229Y-74139500D01*
X124355190Y-74119815D01*
X124334548Y-74103181D01*
X124016819Y-73785451D01*
X123983334Y-73724128D01*
X123980500Y-73697770D01*
X123980500Y-71755416D01*
X124000185Y-71688377D01*
X124031613Y-71655099D01*
X124077219Y-71621966D01*
X124221966Y-71477219D01*
X124221968Y-71477215D01*
X124221971Y-71477213D01*
X124342284Y-71311614D01*
X124342286Y-71311611D01*
X124342287Y-71311610D01*
X124389516Y-71218917D01*
X124437489Y-71168123D01*
X124505310Y-71151328D01*
X124571445Y-71173865D01*
X124610483Y-71218917D01*
X124616139Y-71230016D01*
X124657715Y-71311614D01*
X124778028Y-71477213D01*
X124922786Y-71621971D01*
X125046824Y-71712088D01*
X125088390Y-71742287D01*
X125204607Y-71801503D01*
X125270776Y-71835218D01*
X125270778Y-71835218D01*
X125270781Y-71835220D01*
X125361862Y-71864814D01*
X125465465Y-71898477D01*
X125501542Y-71904191D01*
X125667648Y-71930500D01*
X125667649Y-71930500D01*
X125872351Y-71930500D01*
X125872352Y-71930500D01*
X126074534Y-71898477D01*
X126269219Y-71835220D01*
X126451610Y-71742287D01*
X126578482Y-71650110D01*
X126617213Y-71621971D01*
X126617215Y-71621968D01*
X126617219Y-71621966D01*
X126761966Y-71477219D01*
X126761968Y-71477215D01*
X126761971Y-71477213D01*
X126882284Y-71311614D01*
X126882286Y-71311611D01*
X126882287Y-71311610D01*
X126929516Y-71218917D01*
X126977489Y-71168123D01*
X127045310Y-71151328D01*
X127111445Y-71173865D01*
X127150483Y-71218917D01*
X127156139Y-71230016D01*
X127197715Y-71311614D01*
X127318028Y-71477213D01*
X127462786Y-71621971D01*
X127586824Y-71712088D01*
X127628390Y-71742287D01*
X127744607Y-71801503D01*
X127810776Y-71835218D01*
X127810778Y-71835218D01*
X127810781Y-71835220D01*
X127901862Y-71864814D01*
X128005465Y-71898477D01*
X128041542Y-71904191D01*
X128207648Y-71930500D01*
X128207649Y-71930500D01*
X128412351Y-71930500D01*
X128412352Y-71930500D01*
X128614534Y-71898477D01*
X128809219Y-71835220D01*
X128991610Y-71742287D01*
X129118482Y-71650110D01*
X129157213Y-71621971D01*
X129157215Y-71621968D01*
X129157219Y-71621966D01*
X129301966Y-71477219D01*
X129301968Y-71477215D01*
X129301971Y-71477213D01*
X129422284Y-71311614D01*
X129422286Y-71311611D01*
X129422287Y-71311610D01*
X129469516Y-71218917D01*
X129517489Y-71168123D01*
X129585310Y-71151328D01*
X129651445Y-71173865D01*
X129690483Y-71218917D01*
X129696139Y-71230016D01*
X129737715Y-71311614D01*
X129858028Y-71477213D01*
X130002786Y-71621971D01*
X130126824Y-71712088D01*
X130168390Y-71742287D01*
X130284607Y-71801503D01*
X130350776Y-71835218D01*
X130350778Y-71835218D01*
X130350781Y-71835220D01*
X130441862Y-71864814D01*
X130545465Y-71898477D01*
X130581542Y-71904191D01*
X130747648Y-71930500D01*
X130747649Y-71930500D01*
X130952351Y-71930500D01*
X130952352Y-71930500D01*
X131154534Y-71898477D01*
X131349219Y-71835220D01*
X131531610Y-71742287D01*
X131658482Y-71650110D01*
X131697213Y-71621971D01*
X131697215Y-71621968D01*
X131697219Y-71621966D01*
X131841966Y-71477219D01*
X131841968Y-71477215D01*
X131841971Y-71477213D01*
X131962284Y-71311614D01*
X131962286Y-71311611D01*
X131962287Y-71311610D01*
X132009516Y-71218917D01*
X132057489Y-71168123D01*
X132125310Y-71151328D01*
X132191445Y-71173865D01*
X132230483Y-71218917D01*
X132236139Y-71230016D01*
X132277715Y-71311614D01*
X132398028Y-71477213D01*
X132542786Y-71621971D01*
X132666824Y-71712088D01*
X132708390Y-71742287D01*
X132824607Y-71801503D01*
X132890776Y-71835218D01*
X132890778Y-71835218D01*
X132890781Y-71835220D01*
X132981862Y-71864814D01*
X133085465Y-71898477D01*
X133121542Y-71904191D01*
X133287648Y-71930500D01*
X133287649Y-71930500D01*
X133492351Y-71930500D01*
X133492352Y-71930500D01*
X133694534Y-71898477D01*
X133889219Y-71835220D01*
X134071610Y-71742287D01*
X134198482Y-71650110D01*
X134237213Y-71621971D01*
X134237215Y-71621968D01*
X134237219Y-71621966D01*
X134381966Y-71477219D01*
X134381968Y-71477215D01*
X134381971Y-71477213D01*
X134502284Y-71311614D01*
X134502286Y-71311611D01*
X134502287Y-71311610D01*
X134549516Y-71218917D01*
X134597489Y-71168123D01*
X134665310Y-71151328D01*
X134731445Y-71173865D01*
X134770483Y-71218917D01*
X134776139Y-71230016D01*
X134817715Y-71311614D01*
X134938028Y-71477213D01*
X135082786Y-71621971D01*
X135206824Y-71712088D01*
X135248390Y-71742287D01*
X135364607Y-71801503D01*
X135430776Y-71835218D01*
X135430778Y-71835218D01*
X135430781Y-71835220D01*
X135521862Y-71864814D01*
X135625465Y-71898477D01*
X135661542Y-71904191D01*
X135827648Y-71930500D01*
X135827649Y-71930500D01*
X136032351Y-71930500D01*
X136032352Y-71930500D01*
X136234534Y-71898477D01*
X136429219Y-71835220D01*
X136611610Y-71742287D01*
X136738482Y-71650110D01*
X136777213Y-71621971D01*
X136777215Y-71621968D01*
X136777219Y-71621966D01*
X136921966Y-71477219D01*
X136921968Y-71477215D01*
X136921971Y-71477213D01*
X137042284Y-71311614D01*
X137042286Y-71311611D01*
X137042287Y-71311610D01*
X137089516Y-71218917D01*
X137137489Y-71168123D01*
X137205310Y-71151328D01*
X137271445Y-71173865D01*
X137310483Y-71218917D01*
X137316139Y-71230016D01*
X137357715Y-71311614D01*
X137478028Y-71477213D01*
X137622786Y-71621971D01*
X137746824Y-71712088D01*
X137788390Y-71742287D01*
X137904607Y-71801503D01*
X137970776Y-71835218D01*
X137970778Y-71835218D01*
X137970781Y-71835220D01*
X138061862Y-71864814D01*
X138165465Y-71898477D01*
X138201542Y-71904191D01*
X138367648Y-71930500D01*
X138367649Y-71930500D01*
X138572351Y-71930500D01*
X138572352Y-71930500D01*
X138774534Y-71898477D01*
X138969219Y-71835220D01*
X139151610Y-71742287D01*
X139278482Y-71650110D01*
X139317213Y-71621971D01*
X139317215Y-71621968D01*
X139317219Y-71621966D01*
X139461966Y-71477219D01*
X139461968Y-71477215D01*
X139461971Y-71477213D01*
X139582284Y-71311614D01*
X139582286Y-71311611D01*
X139582287Y-71311610D01*
X139629516Y-71218917D01*
X139677489Y-71168123D01*
X139745310Y-71151328D01*
X139811445Y-71173865D01*
X139850483Y-71218917D01*
X139856139Y-71230016D01*
X139897715Y-71311614D01*
X140018028Y-71477213D01*
X140162786Y-71621971D01*
X140286824Y-71712088D01*
X140328390Y-71742287D01*
X140444607Y-71801503D01*
X140510776Y-71835218D01*
X140510778Y-71835218D01*
X140510781Y-71835220D01*
X140601862Y-71864814D01*
X140705465Y-71898477D01*
X140741542Y-71904191D01*
X140907648Y-71930500D01*
X140907649Y-71930500D01*
X141112351Y-71930500D01*
X141112352Y-71930500D01*
X141314534Y-71898477D01*
X141509219Y-71835220D01*
X141691610Y-71742287D01*
X141818482Y-71650110D01*
X141857213Y-71621971D01*
X141857215Y-71621968D01*
X141857219Y-71621966D01*
X142001966Y-71477219D01*
X142001968Y-71477215D01*
X142001971Y-71477213D01*
X142122284Y-71311614D01*
X142122286Y-71311611D01*
X142122287Y-71311610D01*
X142169516Y-71218917D01*
X142217489Y-71168123D01*
X142285310Y-71151328D01*
X142351445Y-71173865D01*
X142390483Y-71218917D01*
X142396139Y-71230016D01*
X142437715Y-71311614D01*
X142558028Y-71477213D01*
X142702786Y-71621971D01*
X142826824Y-71712088D01*
X142868390Y-71742287D01*
X142984607Y-71801503D01*
X143050776Y-71835218D01*
X143050778Y-71835218D01*
X143050781Y-71835220D01*
X143141862Y-71864814D01*
X143245465Y-71898477D01*
X143281542Y-71904191D01*
X143447648Y-71930500D01*
X143447649Y-71930500D01*
X143652351Y-71930500D01*
X143652352Y-71930500D01*
X143854534Y-71898477D01*
X144049219Y-71835220D01*
X144231610Y-71742287D01*
X144358482Y-71650110D01*
X144397213Y-71621971D01*
X144397215Y-71621968D01*
X144397219Y-71621966D01*
X144541966Y-71477219D01*
X144541968Y-71477215D01*
X144541971Y-71477213D01*
X144662284Y-71311614D01*
X144662286Y-71311611D01*
X144662287Y-71311610D01*
X144709516Y-71218917D01*
X144718161Y-71209764D01*
X144722896Y-71198099D01*
X144741693Y-71184847D01*
X144757489Y-71168123D01*
X144769711Y-71165096D01*
X144780002Y-71157842D01*
X144802982Y-71156856D01*
X144825310Y-71151328D01*
X144837227Y-71155389D01*
G37*
%TD.AperFunction*%
%TD*%
M02*
